<?xml version="1.0" encoding="UTF-8" standalone="no"?>
<svg
   xmlns:dc="http://purl.org/dc/elements/1.1/"
   xmlns:cc="http://creativecommons.org/ns#"
   xmlns:rdf="http://www.w3.org/1999/02/22-rdf-syntax-ns#"
   xmlns:svg="http://www.w3.org/2000/svg"
   xmlns="http://www.w3.org/2000/svg"
   xmlns:sodipodi="http://sodipodi.sourceforge.net/DTD/sodipodi-0.dtd"
   xmlns:inkscape="http://www.inkscape.org/namespaces/inkscape"
   width="71.428574"
   height="100"
   version="1.1"
   id="svg11"
   sodipodi:docname="clipboard.svg"
   inkscape:version="0.92.3 (2405546, 2018-03-11)">
  <metadata
     id="metadata15">
    <rdf:RDF>
      <cc:Work
         rdf:about="">
        <dc:format>image/svg+xml</dc:format>
        <dc:type
           rdf:resource="http://purl.org/dc/dcmitype/StillImage" />
        <dc:title></dc:title>
      </cc:Work>
    </rdf:RDF>
  </metadata>
  <sodipodi:namedview
     pagecolor="#ffffff"
     bordercolor="#666666"
     borderopacity="1"
     objecttolerance="10"
     gridtolerance="10"
     guidetolerance="10"
     inkscape:pageopacity="0"
     inkscape:pageshadow="2"
     inkscape:window-width="2400"
     inkscape:window-height="1321"
     id="namedview13"
     showgrid="false"
     fit-margin-top="0"
     fit-margin-left="0"
     fit-margin-right="0"
     fit-margin-bottom="0"
     inkscape:zoom="4.2142857"
     inkscape:cx="-80.288624"
     inkscape:cy="3.3274711"
     inkscape:window-x="-9"
     inkscape:window-y="-5"
     inkscape:window-maximized="1"
     inkscape:current-layer="svg11" />
  <defs
     id="defs5">
    <clipPath
       id="clip_0">
      <rect
         x="-22"
         y="-267"
         width="375"
         height="667"
         id="rect2"
         style="clip-rule:evenodd" />
    </clipPath>
  </defs>
  <g
     id="g19"
     transform="scale(3.5714286)">
    <g
       id="g9"
       clip-path="url(#clip_0)">
      <path
         id="path7"
         d="M 19,4 H 17 C 17,2.89539 16.1046,2 15,2 H 12 C 12,0.895386 11.1046,0 10,0 8.89545,0 8,0.895386 8,2 H 5 C 3.89545,2 3,2.89539 3,4 H 1 C 0.447693,4 0,4.44769 0,5 v 22 c 0,0.5522 0.447693,1 1,1 h 18 c 0.5523,0 1,-0.4478 1,-1 V 5 C 20,4.44769 19.5523,4 19,4 Z M 4,4 C 4,3.44861 4.44861,3 5,3 H 9 V 2 c 0,-0.55139 0.44861,-1 1,-1 0.5514,0 1,0.44861 1,1 v 1 h 4 c 0.5514,0 1,0.44861 1,1 V 5 H 4 Z M 1,5 V 27 H 19 V 5 H 17 V 5.5 C 17,5.77612 16.7761,6 16.5,6 H 3.5 C 3.22388,6 3,5.77612 3,5.5 V 5 Z"
         inkscape:connector-curvature="0"
         style="fill:#979797;fill-rule:evenodd;stroke:none" />
    </g>
  </g>
</svg>
