<svg xmlns="http://www.w3.org/2000/svg" width="15" height="19" viewBox="0 0 15 19">
  <g fill="#FFF">
    <path d="M8.6875 17.7333333C8.6875 15.6346513 7.00856781 13.9333333 4.9375 13.9333333L3.83333333 13.9333333C1.76226552 13.9333333.0833333333 15.6346513.0833333333 17.7333333L.0833333333 18.8733333 8.6875 18.8733333 8.6875 17.7333333zM7.85416667 18.0288889L.916666667 18.0288889.916666667 17.7333333C.916666667 16.1010251 2.22250281 14.7777778 3.83333333 14.7777778L4.95833333 14.7777778C6.56916385 14.7777778 7.875 16.1010251 7.875 17.7333333L7.85416667 18.0288889zM4.39583333 13.4055556C5.86859267 13.4055556 7.0625 12.1957295 7.0625 10.7033333 7.0625 9.21093721 5.86859267 8.00111111 4.39583333 8.00111111 2.923074 8.00111111 1.72916667 9.21093721 1.72916667 10.7033333 1.72916667 12.1957295 2.923074 13.4055556 4.39583333 13.4055556zM4.39583333 8.86666667C5.40835537 8.86666667 6.22916667 9.69842211 6.22916667 10.7244444 6.22916667 11.7504668 5.40835537 12.5822222 4.39583333 12.5822222 3.38331129 12.5822222 2.5625 11.7504668 2.5625 10.7244444 2.5625 9.69842211 3.38331129 8.86666667 4.39583333 8.86666667zM14.9166667.126666667L5.9375.126666667 5.9375 6.54444444 9.5625 6.54444444 9.5625 9.39444444 12.9166667 6.54444444 14.9166667 6.54444444 14.9166667.126666667zM14.0833333 5.7L12.625 5.7 10.3958333 7.57888889 10.3958333 5.7 6.77083333 5.7 6.77083333.971111111 14.0833333.971111111 14.0833333 5.7z"/>
    <path d="M10.3541667 4.13777778C10.1268243 4.13806593 9.9416744 4.32296707 9.93807345 4.55331195 9.93447249 4.78365683 10.1137499 4.97440795 10.3409691 4.98199298 10.5681884 4.989578 10.759466 4.81119674 10.7708333 4.58111111 10.7765441 4.46551992 10.7351796 4.35262072 10.656412 4.26881193 10.5776443 4.18500314 10.4683797 4.13763301 10.3541667 4.13777778zM10.0625 2.44888889C10.142853 2.39486475 10.2369085 2.36553874 10.3333333 2.36444444 10.5208333 2.36444444 10.5208333 2.44888889 10.5208333 2.51222222 10.4903178 2.66792667 10.4097255 2.80898766 10.2916667 2.91333333 10.0838437 3.13358549 9.97785977 3.43276294 10 3.73666667L10 4.01111111 10.6666667 4.01111111 10.6666667 3.71555556C10.6586965 3.55067834 10.7191263 3.38993518 10.8333333 3.27222222 11.0529546 3.0617581 11.1867548 2.77552464 11.2083333 2.47 11.2096603 2.25291375 11.1193101 2.04561472 10.9600713 1.90038889 10.8008324 1.75516306 10.587907 1.68587468 10.375 1.71 10.1389223 1.70349819 9.90645594 1.76975112 9.70833333 1.9L9.58333333 1.98444444 9.8125 2.59666667 10.0625 2.44888889z"/>
  </g>
</svg>
