<?xml version="1.0" encoding="UTF-8" standalone="no"?>
<svg
   xmlns:dc="http://purl.org/dc/elements/1.1/"
   xmlns:cc="http://creativecommons.org/ns#"
   xmlns:rdf="http://www.w3.org/1999/02/22-rdf-syntax-ns#"
   xmlns:svg="http://www.w3.org/2000/svg"
   xmlns="http://www.w3.org/2000/svg"
   xmlns:sodipodi="http://sodipodi.sourceforge.net/DTD/sodipodi-0.dtd"
   xmlns:inkscape="http://www.inkscape.org/namespaces/inkscape"
   width="100"
   height="99.665588"
   version="1.1"
   id="svg11"
   sodipodi:docname="message-bubble.svg"
   inkscape:version="0.92.3 (2405546, 2018-03-11)">
  <metadata
     id="metadata15">
    <rdf:RDF>
      <cc:Work
         rdf:about="">
        <dc:format>image/svg+xml</dc:format>
        <dc:type
           rdf:resource="http://purl.org/dc/dcmitype/StillImage" />
        <dc:title></dc:title>
      </cc:Work>
    </rdf:RDF>
  </metadata>
  <sodipodi:namedview
     pagecolor="#ffffff"
     bordercolor="#666666"
     borderopacity="1"
     objecttolerance="10"
     gridtolerance="10"
     guidetolerance="10"
     inkscape:pageopacity="0"
     inkscape:pageshadow="2"
     inkscape:window-width="2400"
     inkscape:window-height="1321"
     id="namedview13"
     showgrid="false"
     fit-margin-top="0"
     fit-margin-left="0"
     fit-margin-right="0"
     fit-margin-bottom="0"
     inkscape:zoom="10.727273"
     inkscape:cx="10.821899"
     inkscape:cy="10.779636"
     inkscape:window-x="-9"
     inkscape:window-y="-5"
     inkscape:window-maximized="1"
     inkscape:current-layer="svg11" />
  <defs
     id="defs5">
    <clipPath
       id="clip_0">
      <rect
         x="-23"
         y="-200"
         width="375"
         height="667"
         id="rect2"
         style="clip-rule:evenodd" />
    </clipPath>
  </defs>
  <g
     id="g19"
     transform="matrix(4.6317096,0,0,4.6317096,-0.82491211,-1.2113588)">
    <g
       id="g9"
       clip-path="url(#clip_0)">
      <path
         id="path7"
         d="m 2.02572,21.1839 c 0.13681,0.2123 0.36987,0.3342 0.63903,0.3342 0.19456,0 0.41284,-0.0632 0.64831,-0.1893 l 6.55222,-3.4945 h 8.13522 c 1.9793,0 3.5898,-1.636 3.5898,-3.6471 V 3.64676 C 21.5903,1.63603 19.9801,0 18.0005,0 H 3.58978 C 1.61081,0 0,1.63603 0,3.64676 V 14.1872 c 0,1.8208 1.32,3.3346 3.03944,3.6042 L 2.03981,20.1265 C 1.85556,20.5567 1.85075,20.9126 2.02572,21.1839 Z M 1.03125,3.64711 c 0,-1.43314 1.14778,-2.59914 2.55853,-2.59914 V 1.04762 H 18.0005 c 1.4107,0 2.5585,1.166 2.5585,2.59914 V 14.1876 c 0,1.4331 -1.1478,2.5994 -2.5585,2.5994 H 9.73844 c -0.08319,0 -0.16569,0.0207 -0.2396,0.0601 l -6.38893,3.4076 1.17012,-2.735 C 4.34947,17.358 4.33366,17.1715 4.23844,17.0238 4.14322,16.8761 3.98131,16.787 3.80738,16.787 h -0.2176 c -1.41075,0 -2.55853,-1.1663 -2.55853,-2.5994 z"
         transform="translate(0.178101,0.261536)"
         inkscape:connector-curvature="0"
         style="fill:#979797;fill-rule:evenodd;stroke:none" />
    </g>
  </g>
</svg>
