<?xml version="1.0" encoding="UTF-8" standalone="no"?>
<svg
   xmlns:dc="http://purl.org/dc/elements/1.1/"
   xmlns:cc="http://creativecommons.org/ns#"
   xmlns:rdf="http://www.w3.org/1999/02/22-rdf-syntax-ns#"
   xmlns:svg="http://www.w3.org/2000/svg"
   xmlns="http://www.w3.org/2000/svg"
   xmlns:sodipodi="http://sodipodi.sourceforge.net/DTD/sodipodi-0.dtd"
   xmlns:inkscape="http://www.inkscape.org/namespaces/inkscape"
   width="91.378502"
   height="100"
   version="1.1"
   id="svg335"
   sodipodi:docname="pickup.svg"
   inkscape:version="0.92.3 (2405546, 2018-03-11)">
  <metadata
     id="metadata339">
    <rdf:RDF>
      <cc:Work
         rdf:about="">
        <dc:format>image/svg+xml</dc:format>
        <dc:type
           rdf:resource="http://purl.org/dc/dcmitype/StillImage" />
        <dc:title></dc:title>
      </cc:Work>
    </rdf:RDF>
  </metadata>
  <sodipodi:namedview
     pagecolor="#ffffff"
     bordercolor="#666666"
     borderopacity="1"
     objecttolerance="10"
     gridtolerance="10"
     guidetolerance="10"
     inkscape:pageopacity="0"
     inkscape:pageshadow="2"
     inkscape:window-width="2400"
     inkscape:window-height="1321"
     id="namedview337"
     showgrid="false"
     fit-margin-top="0"
     fit-margin-left="0"
     fit-margin-right="0"
     fit-margin-bottom="0"
     inkscape:zoom="0.96721311"
     inkscape:cx="98.265809"
     inkscape:cy="113.69214"
     inkscape:window-x="-9"
     inkscape:window-y="-5"
     inkscape:window-maximized="1"
     inkscape:current-layer="svg335" />
  <defs
     id="defs5">
    <clipPath
       id="clip_0">
      <rect
         x="-89.240479"
         y="-116.4796"
         width="374.17499"
         height="666.5304"
         id="rect2"
         style="clip-rule:evenodd" />
    </clipPath>
  </defs>
  <defs
     id="defs14">
    <clipPath
       id="clip_1">
      <rect
         x="-89.240479"
         y="-116.4796"
         width="374.17499"
         height="666.5304"
         id="rect11"
         style="clip-rule:evenodd" />
    </clipPath>
  </defs>
  <defs
     id="defs23">
    <clipPath
       id="clip_2">
      <rect
         x="-89.240479"
         y="-116.4796"
         width="374.17499"
         height="666.5304"
         id="rect20"
         style="clip-rule:evenodd" />
    </clipPath>
  </defs>
  <defs
     id="defs32">
    <clipPath
       id="clip_3">
      <rect
         x="-89.240479"
         y="-116.4796"
         width="374.17499"
         height="666.5304"
         id="rect29"
         style="clip-rule:evenodd" />
    </clipPath>
  </defs>
  <defs
     id="defs41">
    <clipPath
       id="clip_4">
      <rect
         x="-89.240479"
         y="-116.4796"
         width="374.17499"
         height="666.5304"
         id="rect38"
         style="clip-rule:evenodd" />
    </clipPath>
  </defs>
  <defs
     id="defs50">
    <clipPath
       id="clip_5">
      <path
         d="M -89.2405,-116.48 H 284.935 V 550.051 H -89.2405 Z M 97.8643,109.084 c -7.8428,5.245 -10.7147,13.715 -7.029,8.997 q -0.0944,0.121 -0.1841,0.247 -0.0898,0.125 -0.1748,0.256 -0.0849,0.13 -0.1649,0.265 -0.08,0.135 -0.1548,0.274 -0.0748,0.139 -0.1443,0.281 -0.0695,0.143 -0.1336,0.289 -0.0641,0.147 -0.1226,0.296 -0.0585,0.15 -0.1113,0.302 -0.0528,0.152 -0.0997,0.307 -0.047,0.156 -0.0881,0.313 -0.0411,0.157 -0.0762,0.317 -0.0351,0.159 -0.0642,0.32 -0.029,0.161 -0.052,0.323 -0.0229,0.163 -0.0397,0.326 -0.0168,0.163 -0.0274,0.327 -0.0106,0.164 -0.0149,0.329 -0.0044,0.164 -0.0025,0.328 0.0018,0.165 0.0099,0.329 0.0081,0.164 0.0224,0.327 0.0143,0.163 0.0347,0.326 0.0205,0.162 0.0471,0.323 0.0266,0.161 0.0593,0.32 0.0326,0.16 0.0713,0.317 0.0387,0.157 0.0834,0.313 0.0446,0.155 0.0951,0.307 0.0504,0.152 0.1066,0.302 0.0562,0.149 0.1181,0.295 0.0618,0.147 0.1292,0.289 0.0673,0.143 0.14,0.282 0.0727,0.139 0.1506,0.273 0.0779,0.135 0.1609,0.266 0.083,0.13 0.1708,0.256 l 0.3543,0.506 q 0.1758,0.252 0.3718,0.484 0.1959,0.231 0.4104,0.441 0.2144,0.21 0.4457,0.396 0.2312,0.186 0.4773,0.348 0.2462,0.161 0.5052,0.296 0.259,0.135 0.5288,0.242 0.2698,0.108 0.5482,0.187 0.2784,0.079 0.563,0.129 0.2847,0.05 0.5734,0.071 0.2886,0.021 0.5789,0.012 0.2903,-0.009 0.5799,-0.047 0.2895,-0.038 0.576,-0.105 0.2864,-0.068 0.5674,-0.164 0.281,-0.096 0.5543,-0.219 0.2733,-0.124 0.5366,-0.275 0.2633,-0.15 0.5145,-0.327 l 17.4317,-12.226 q 0.125,-0.088 0.246,-0.181 0.121,-0.093 0.236,-0.191 0.116,-0.098 0.226,-0.201 0.11,-0.103 0.215,-0.21 0.105,-0.108 0.204,-0.219 0.099,-0.112 0.192,-0.228 0.093,-0.116 0.18,-0.235 0.087,-0.12 0.167,-0.243 0.081,-0.123 0.155,-0.25 0.074,-0.127 0.141,-0.256 0.068,-0.13 0.128,-0.262 0.061,-0.133 0.115,-0.268 0.053,-0.135 0.1,-0.272 0.047,-0.138 0.086,-0.277 0.04,-0.14 0.072,-0.281 0.033,-0.141 0.058,-0.283 0.025,-0.143 0.043,-0.286 0.017,-0.144 0.028,-0.288 0.01,-0.145 0.013,-0.29 0.004,-0.145 -0.001,-0.29 -0.004,-0.145 -0.016,-0.291 -0.011,-0.145 -0.03,-0.29 -0.019,-0.145 -0.045,-0.289 -0.027,-0.144 -0.06,-0.288 -0.034,-0.143 -0.075,-0.285 -0.04,-0.142 -0.088,-0.283 -0.048,-0.14 -0.103,-0.279 -0.054,-0.139 -0.116,-0.276 -0.062,-0.137 -0.13,-0.271 -0.069,-0.134 -0.144,-0.266 -0.075,-0.132 -0.157,-0.261 -0.081,-0.129 -0.169,-0.254 l -3.784,-5.414 c 0,0 -8.677,0.142 -16.5197,5.387 z"
         id="path47"
         inkscape:connector-curvature="0"
         style="clip-rule:evenodd" />
    </clipPath>
  </defs>
  <defs
     id="defs59">
    <clipPath
       id="clip_6">
      <rect
         x="-89.240479"
         y="-116.4796"
         width="374.17499"
         height="666.5304"
         id="rect56"
         style="clip-rule:evenodd" />
    </clipPath>
  </defs>
  <defs
     id="defs68">
    <clipPath
       id="clip_7">
      <rect
         x="-89.240479"
         y="-116.4796"
         width="374.17499"
         height="666.5304"
         id="rect65"
         style="clip-rule:evenodd" />
    </clipPath>
  </defs>
  <defs
     id="defs77">
    <clipPath
       id="clip_8">
      <rect
         x="-89.240479"
         y="-116.4796"
         width="374.17499"
         height="666.5304"
         id="rect74"
         style="clip-rule:evenodd" />
    </clipPath>
  </defs>
  <defs
     id="defs86">
    <clipPath
       id="clip_9">
      <rect
         x="-89.240479"
         y="-116.4796"
         width="374.17499"
         height="666.5304"
         id="rect83"
         style="clip-rule:evenodd" />
    </clipPath>
  </defs>
  <defs
     id="defs95">
    <clipPath
       id="clip_10">
      <path
         d="M -89.2405,-116.48 H 284.935 V 550.051 H -89.2405 Z M 70.5577,76.2727 C 67.3794,46.0339 73.645,28.7192 81.5389,25.9904 c 1.4305,-0.4945 7.3058,-0.9094 7.3058,-0.9094 7.5691,-0.654 20.5543,18.4867 23.2403,44.0414 2.686,25.5548 -3.084,47.1066 -12.8868,48.1366 -1.0959,0.115 -2.0174,-0.02 -2.7937,-0.386 6.2065,-5.984 9.3455,-23.8326 7.1845,-44.3953 -2.217,-21.0902 -9.2492,-36.7222 -15.6452,-41.1015 -0.0112,-0.0076 -0.0253,-0.0176 -0.0423,-0.0296 -0.2423,-0.1714 -1.0624,-0.7513 -1.9616,-0.6568 -0.9621,0.1011 -1.3838,0.3406 -2.0471,1.0533 -5.9083,6.3478 -8.7518,22.6535 -6.7661,41.546 1.1139,10.5979 3.6169,20.1414 6.8613,27.3649 -2.3451,1.837 -3.7528,3.129 -4.2232,3.874 Q 72.1496,91.4193 70.5577,76.2727 Z"
         id="path92"
         inkscape:connector-curvature="0"
         style="clip-rule:evenodd" />
    </clipPath>
  </defs>
  <defs
     id="defs104">
    <clipPath
       id="clip_11">
      <rect
         x="-89.240479"
         y="-116.4796"
         width="374.17499"
         height="666.5304"
         id="rect101"
         style="clip-rule:evenodd" />
    </clipPath>
  </defs>
  <defs
     id="defs113">
    <clipPath
       id="clip_12">
      <rect
         x="-89.240479"
         y="-116.4796"
         width="374.17499"
         height="666.5304"
         id="rect110"
         style="clip-rule:evenodd" />
    </clipPath>
  </defs>
  <defs
     id="defs122">
    <clipPath
       id="clip_13">
      <rect
         x="-89.240479"
         y="-116.4796"
         width="374.17499"
         height="666.5304"
         id="rect119"
         style="clip-rule:evenodd" />
    </clipPath>
  </defs>
  <defs
     id="defs131">
    <clipPath
       id="clip_14">
      <rect
         x="-89.240479"
         y="-116.4796"
         width="374.17499"
         height="666.5304"
         id="rect128"
         style="clip-rule:evenodd" />
    </clipPath>
  </defs>
  <defs
     id="defs140">
    <clipPath
       id="clip_15">
      <rect
         x="-89.240479"
         y="-116.4796"
         width="374.17499"
         height="666.5304"
         id="rect137"
         style="clip-rule:evenodd" />
    </clipPath>
  </defs>
  <defs
     id="defs149">
    <clipPath
       id="clip_16">
      <rect
         x="-89.240479"
         y="-116.4796"
         width="374.17499"
         height="666.5304"
         id="rect146"
         style="clip-rule:evenodd" />
    </clipPath>
  </defs>
  <defs
     id="defs158">
    <clipPath
       id="clip_17">
      <rect
         x="-89.240479"
         y="-116.4796"
         width="374.17499"
         height="666.5304"
         id="rect155"
         style="clip-rule:evenodd" />
    </clipPath>
  </defs>
  <defs
     id="defs167">
    <clipPath
       id="clip_18">
      <rect
         x="-89.240479"
         y="-116.4796"
         width="374.17499"
         height="666.5304"
         id="rect164"
         style="clip-rule:evenodd" />
    </clipPath>
  </defs>
  <defs
     id="defs176">
    <clipPath
       id="clip_19">
      <rect
         x="-89.240479"
         y="-116.4796"
         width="374.17499"
         height="666.5304"
         id="rect173"
         style="clip-rule:evenodd" />
    </clipPath>
  </defs>
  <defs
     id="defs185">
    <clipPath
       id="clip_20">
      <rect
         x="-89.240479"
         y="-116.4796"
         width="374.17499"
         height="666.5304"
         id="rect182"
         style="clip-rule:evenodd" />
    </clipPath>
  </defs>
  <defs
     id="defs194">
    <clipPath
       id="clip_21">
      <rect
         x="-89.240479"
         y="-116.4796"
         width="374.17499"
         height="666.5304"
         id="rect191"
         style="clip-rule:evenodd" />
    </clipPath>
  </defs>
  <defs
     id="defs203">
    <clipPath
       id="clip_22">
      <rect
         x="-89.240479"
         y="-116.4796"
         width="374.17499"
         height="666.5304"
         id="rect200"
         style="clip-rule:evenodd" />
    </clipPath>
  </defs>
  <defs
     id="defs212">
    <clipPath
       id="clip_23">
      <rect
         x="-89.240479"
         y="-116.4796"
         width="374.17499"
         height="666.5304"
         id="rect209"
         style="clip-rule:evenodd" />
    </clipPath>
  </defs>
  <defs
     id="defs221">
    <clipPath
       id="clip_24">
      <path
         d="M -89.2405,-116.48 H 284.935 V 550.051 H -89.2405 Z M 35.887,107.433 c 0.7965,0.155 1.3169,0.925 1.1624,1.721 -0.1546,0.795 -0.9256,1.314 -1.7222,1.159 -0.7965,-0.155 -1.3169,-0.925 -1.1623,-1.72 0.1545,-0.795 0.9256,-1.314 1.7221,-1.16 z"
         id="path218"
         inkscape:connector-curvature="0"
         style="clip-rule:evenodd" />
    </clipPath>
  </defs>
  <defs
     id="defs230">
    <clipPath
       id="clip_25">
      <rect
         x="-89.240479"
         y="-116.4796"
         width="374.17499"
         height="666.5304"
         id="rect227"
         style="clip-rule:evenodd" />
    </clipPath>
  </defs>
  <defs
     id="defs239">
    <clipPath
       id="clip_26">
      <path
         d="M -89.2405,-116.48 H 284.935 V 550.051 H -89.2405 Z M 26.0586,88.7829 26.0564,88.784 q -0.361,0.176 -0.6761,0.4106 -0.315,0.2346 -0.5739,0.5201 -0.2588,0.2855 -0.4531,0.6126 -0.1942,0.3271 -0.3175,0.6852 -0.1233,0.358 -0.1716,0.7353 -0.0483,0.3773 -0.0201,0.7617 0.0282,0.3843 0.1321,0.7631 0.1038,0.3789 0.2799,0.7399 l 8.1651,16.7405 q 0.0878,0.181 0.1907,0.35 0.1029,0.169 0.2199,0.326 0.1171,0.158 0.2474,0.301 0.1303,0.144 0.2727,0.273 0.1425,0.13 0.2959,0.243 0.1535,0.114 0.3167,0.21 0.1632,0.097 0.3348,0.177 0.1717,0.079 0.3503,0.141 0.1787,0.061 0.3629,0.104 0.1842,0.043 0.3725,0.068 0.1883,0.024 0.3791,0.029 0.1908,0.005 0.3826,-0.009 0.1917,-0.014 0.3829,-0.047 0.1912,-0.034 0.3802,-0.085 0.1891,-0.052 0.3744,-0.122 0.1853,-0.07 0.3655,-0.158 l 0.0022,-0.001 q 0.361,-0.176 0.676,-0.411 0.3151,-0.235 0.5739,-0.52 0.2589,-0.286 0.4531,-0.613 0.1943,-0.327 0.3175,-0.685 0.1233,-0.358 0.1716,-0.735 0.0484,-0.378 0.0202,-0.762 -0.0283,-0.384 -0.1321,-0.763 -0.1038,-0.379 -0.2799,-0.74 L 31.2871,90.5832 q -0.0879,-0.1801 -0.1907,-0.3495 -0.1029,-0.1693 -0.22,-0.3265 -0.117,-0.1572 -0.2473,-0.301 -0.1303,-0.1438 -0.2728,-0.2729 -0.1424,-0.1292 -0.2959,-0.2427 -0.1534,-0.1135 -0.3166,-0.2104 -0.1632,-0.0969 -0.3349,-0.1765 -0.1716,-0.0795 -0.3503,-0.141 -0.1786,-0.0616 -0.3628,-0.1045 -0.1842,-0.043 -0.3725,-0.0671 -0.1883,-0.0241 -0.3791,-0.0292 -0.1908,-0.005 -0.3826,0.009 -0.1918,0.0141 -0.383,0.0472 -0.1911,0.0331 -0.3802,0.0849 -0.189,0.0518 -0.3743,0.1219 -0.1854,0.0701 -0.3655,0.158 z"
         id="path236"
         inkscape:connector-curvature="0"
         style="clip-rule:evenodd" />
    </clipPath>
  </defs>
  <defs
     id="defs248">
    <clipPath
       id="clip_27">
      <rect
         x="-89.240479"
         y="-116.4796"
         width="374.17499"
         height="666.5304"
         id="rect245"
         style="clip-rule:evenodd" />
    </clipPath>
  </defs>
  <defs
     id="defs257">
    <clipPath
       id="clip_28">
      <rect
         x="-89.240479"
         y="-116.4796"
         width="374.17499"
         height="666.5304"
         id="rect254"
         style="clip-rule:evenodd" />
    </clipPath>
  </defs>
  <defs
     id="defs266">
    <clipPath
       id="clip_29">
      <rect
         x="-89.240479"
         y="-116.4796"
         width="374.17499"
         height="666.5304"
         id="rect263"
         style="clip-rule:evenodd" />
    </clipPath>
  </defs>
  <defs
     id="defs275">
    <clipPath
       id="clip_30">
      <path
         d="M -89.2405,-116.48 H 284.935 V 550.051 H -89.2405 Z M 170.062,113.549 c 1.589,-0.455 2.508,-2.113 2.052,-3.702 -0.456,-1.589 -2.113,-2.508 -3.703,-2.053 -1.589,0.456 -2.508,2.114 -2.052,3.703 0.456,1.589 2.113,2.508 3.703,2.052 z"
         id="path272"
         inkscape:connector-curvature="0"
         style="clip-rule:evenodd" />
    </clipPath>
  </defs>
  <defs
     id="defs284">
    <clipPath
       id="clip_31">
      <rect
         x="-89.240479"
         y="-116.4796"
         width="374.17499"
         height="666.5304"
         id="rect281"
         style="clip-rule:evenodd" />
    </clipPath>
  </defs>
  <defs
     id="defs293">
    <clipPath
       id="clip_32">
      <path
         d="M -89.2405,-116.48 H 284.935 V 550.051 H -89.2405 Z m 263.6995,214.8741 -9.045,2.5939 -0.959,0.275 c 0,0 2.203,-3.9667 2.878,-5.1122 0.675,-1.1455 1.731,-2.5106 3.376,-2.9822 2.66,-0.7627 5.458,4.7357 3.75,5.2255 z"
         id="path290"
         inkscape:connector-curvature="0"
         style="clip-rule:evenodd" />
    </clipPath>
  </defs>
  <defs
     id="defs302">
    <clipPath
       id="clip_33">
      <rect
         x="-89.240479"
         y="-116.4796"
         width="374.17499"
         height="666.5304"
         id="rect299"
         style="clip-rule:evenodd" />
    </clipPath>
  </defs>
  <defs
     id="defs311">
    <clipPath
       id="clip_34">
      <path
         d="m 173.602,89.6977 0.96,-0.275 q 0.344,-0.0987 0.711,-0.18 0.367,-0.0813 0.754,-0.1445 0.388,-0.0632 0.792,-0.1079 0.404,-0.0446 0.822,-0.0703 0.418,-0.0258 0.846,-0.0323 0.429,-0.0066 0.864,0.006 0.435,0.0126 0.873,0.0444 0.438,0.0317 0.876,0.0822 0.437,0.0506 0.871,0.1196 0.434,0.069 0.861,0.1558 0.426,0.0868 0.841,0.1908 0.416,0.104 0.817,0.2243 0.401,0.1204 0.785,0.256 0.383,0.1356 0.746,0.2855 0.362,0.1498 0.701,0.3126 0.339,0.1629 0.652,0.3374 l 3.728,2.0815 4.843,-1.3886 2.75,9.5918 q 0.028,0.098 0.047,0.197 0.019,0.1 0.028,0.199 0.009,0.1 0.009,0.199 0,0.099 -0.01,0.197 -0.01,0.097 -0.029,0.193 -0.02,0.095 -0.049,0.188 -0.029,0.092 -0.066,0.181 -0.038,0.089 -0.085,0.173 -0.047,0.084 -0.102,0.164 -0.055,0.079 -0.118,0.152 -0.064,0.074 -0.134,0.141 -0.071,0.067 -0.148,0.127 -0.078,0.06 -0.162,0.113 -0.084,0.053 -0.173,0.098 -0.089,0.044 -0.184,0.081 -0.094,0.037 -0.192,0.065 l -40.284,11.551 -0.55,-1.918 q -0.062,-0.213 -0.114,-0.427 -0.052,-0.214 -0.096,-0.43 -0.043,-0.215 -0.078,-0.43 -0.034,-0.216 -0.06,-0.432 -0.026,-0.216 -0.042,-0.431 -0.017,-0.216 -0.024,-0.431 -0.008,-0.216 -0.007,-0.43 0.002,-0.214 0.012,-0.428 0.011,-0.213 0.03,-0.425 0.02,-0.212 0.048,-0.422 0.028,-0.21 0.066,-0.418 0.037,-0.208 0.084,-0.414 0.046,-0.206 0.101,-0.409 0.055,-0.203 0.119,-0.403 0.064,-0.199 0.136,-0.396 0.072,-0.197 0.153,-0.389 0.081,-0.193 0.171,-0.382 0.089,-0.189 0.187,-0.374 0.097,-0.185 0.203,-0.365 0.106,-0.18 0.22,-0.356 0.113,-0.175 0.235,-0.346 0.121,-0.17 0.25,-0.335 0.129,-0.165 0.266,-0.325 0.136,-0.159 0.28,-0.313 0.143,-0.153 0.294,-0.301 0.15,-0.148 0.308,-0.289 0.157,-0.141 0.321,-0.276 0.163,-0.135 0.333,-0.263 0.17,-0.128 0.346,-0.25 0.176,-0.121 0.358,-0.235 0.182,-0.114 0.369,-0.221 0.187,-0.107 0.379,-0.206 l 2.188,-3.9893 q 0.172,-0.3138 0.373,-0.6318 0.201,-0.318 0.429,-0.6376 0.228,-0.3195 0.481,-0.6379 0.252,-0.3185 0.528,-0.6333 0.276,-0.3147 0.573,-0.6233 0.297,-0.3085 0.612,-0.6083 0.316,-0.2998 0.647,-0.5884 0.331,-0.2886 0.675,-0.5636 0.344,-0.275 0.699,-0.5342 0.354,-0.2593 0.716,-0.5006 0.362,-0.2413 0.728,-0.4627 0.367,-0.2215 0.735,-0.4213 0.368,-0.1997 0.734,-0.3761 0.367,-0.1765 0.728,-0.3282 0.362,-0.1516 0.717,-0.2773 0.354,-0.1257 0.698,-0.2244 z"
         id="path308"
         inkscape:connector-curvature="0"
         style="clip-rule:evenodd" />
    </clipPath>
  </defs>
  <defs
     id="defs320">
    <clipPath
       id="clip_35">
      <rect
         x="-89.240479"
         y="-116.4796"
         width="374.17499"
         height="666.5304"
         id="rect317"
         style="clip-rule:evenodd" />
    </clipPath>
  </defs>
  <defs
     id="defs329">
    <clipPath
       id="clip_36">
      <rect
         x="-89.240479"
         y="-116.4796"
         width="374.17499"
         height="666.5304"
         id="rect326"
         style="clip-rule:evenodd" />
    </clipPath>
  </defs>
  <g
     id="g415"
     transform="matrix(0.46610994,0,0,0.46610994,-1.2744336,-9.8584542)">
    <g
       id="g9"
       clip-path="url(#clip_0)">
      <path
         id="path7"
         d="m 84.2675,168.947 c 46.5395,0 84.2675,-37.82 84.2675,-84.4733 C 168.535,37.8202 130.807,0 84.2675,0 37.7279,0 0,37.8202 0,84.4737 0,131.127 37.7279,168.947 84.2675,168.947 Z"
         transform="matrix(0.9978,0,0,0.9978,13.533,41.1728)"
         inkscape:connector-curvature="0"
         style="fill:#eff2ff;stroke:none" />
    </g>
    <g
       id="g18"
       clip-path="url(#clip_1)">
      <path
         id="path16"
         d="m 84.2675,168.947 c 46.5395,0 84.2675,-37.82 84.2675,-84.4733 C 168.535,37.8202 130.807,0 84.2675,0 37.7279,0 0,37.8202 0,84.4737 0,131.127 37.7279,168.947 84.2675,168.947 Z"
         transform="matrix(0.9978,0,0,0.9978,13.533,41.1728)"
         stroke-miterlimit="4"
         inkscape:connector-curvature="0"
         style="fill:none;stroke:#ffffff;stroke-width:4.8984375;stroke-miterlimit:4" />
    </g>
    <g
       id="g27"
       clip-path="url(#clip_2)">
      <path
         id="path25"
         d="m 14.049,18.878 27.4557,-7.3692 q 0.2425,-0.065 0.4872,-0.1071 0.2446,-0.042 0.4894,-0.0606 0.2448,-0.0186 0.4877,-0.0137 0.243,0.0049 0.4821,0.0334 0.2392,0.0284 0.4725,0.0802 0.2334,0.0517 0.4591,0.1263 0.2257,0.0746 0.4419,0.1714 0.2162,0.0969 0.4211,0.2152 0.2049,0.1183 0.3968,0.2571 0.192,0.1388 0.3694,0.2969 0.1775,0.1582 0.339,0.3344 0.1615,0.1763 0.3057,0.3691 0.1442,0.1929 0.2699,0.4009 0.1258,0.2079 0.232,0.4292 0.1063,0.2213 0.1922,0.4542 0.086,0.2329 0.1508,0.4754 l 0.7658,2.8625 q 0.0648,0.2426 0.1067,0.4873 0.0418,0.2447 0.0602,0.4896 0.0185,0.2448 0.0134,0.4879 -0.0052,0.2431 -0.0338,0.4823 -0.0286,0.2393 -0.0804,0.4728 -0.0519,0.2335 -0.1267,0.4593 -0.0747,0.2259 -0.1716,0.4422 -0.097,0.2164 -0.2154,0.4215 -0.1184,0.205 -0.2573,0.3972 -0.1389,0.1921 -0.2971,0.3698 -0.1582,0.1776 -0.3345,0.3393 -0.1763,0.1617 -0.3692,0.3061 -0.1929,0.1444 -0.4008,0.2703 -0.208,0.126 -0.4293,0.2325 -0.2213,0.1064 -0.4541,0.1926 -0.2328,0.0861 -0.4753,0.1512 l -27.4557,7.3691 q -0.2425,0.0651 -0.4871,0.1071 -0.2447,0.042 -0.4895,0.0607 -0.2448,0.0186 -0.4877,0.0136 -0.243,-0.0049 -0.4821,-0.0333 -0.2391,-0.0285 -0.4725,-0.0802 -0.2334,-0.0517 -0.4591,-0.1263 -0.2257,-0.0746 -0.4419,-0.1715 -0.2161,-0.0968 -0.4211,-0.2151 -0.2049,-0.1183 -0.3968,-0.2571 -0.192,-0.1388 -0.3694,-0.297 -0.1775,-0.1581 -0.339,-0.3344 -0.1614,-0.1762 -0.3056,-0.3691 -0.1442,-0.1929 -0.27,-0.4008 -0.1257,-0.208 -0.232,-0.4293 -0.1063,-0.2213 -0.1922,-0.4541 -0.0859,-0.2329 -0.1508,-0.4755 l -0.7657,-2.8625 q -0.0649,-0.2425 -0.1067,-0.4872 -0.0419,-0.2447 -0.0603,-0.4896 -0.0184,-0.2449 -0.0133,-0.4879 0.0051,-0.2431 0.0337,-0.4824 0.0286,-0.2392 0.0805,-0.4727 0.0519,-0.2335 0.1266,-0.4594 0.0747,-0.2258 0.1717,-0.4422 0.0969,-0.2163 0.2153,-0.4214 0.1184,-0.2051 0.2573,-0.3972 0.1389,-0.1922 0.2971,-0.3698 0.1582,-0.1776 0.3345,-0.3393 0.1763,-0.1617 0.3692,-0.3061 0.1929,-0.1444 0.4008,-0.2704 0.208,-0.1259 0.4293,-0.2324 0.2213,-0.1065 0.4541,-0.1926 0.2329,-0.0861 0.4753,-0.1512 z"
         transform="matrix(0.997648,0.017414,-0.017414,0.997648,67.4893,98.616)"
         inkscape:connector-curvature="0"
         style="fill:#6f82f8;stroke:none" />
    </g>
    <g
       id="g36"
       clip-path="url(#clip_3)">
      <path
         id="path34"
         d="M 43.12,64.8957 C 54.6128,58.5162 62.72,43.6205 62.72,30.1977 62.72,12.5335 61.7811,0.954493 31.36,0.043794 0.938893,-0.866905 0,12.5335 0,30.1977 0,43.6205 8.10723,58.5162 19.6,64.8957 v 11.843 c 0,0 3.5749,6.0045 3.5749,7.3262 0,1.3217 -1.0883,4.8082 -1.0883,4.8082 0,0 4.2709,4.2718 4.2709,6.402 0,2.1301 -4.2709,6.0519 -4.2709,6.0519 0,0 4.2709,3.895 4.2709,5.83 0,1.935 -2.5524,5.553 -2.5524,5.553 0,0 2.5524,4.116 2.5524,6.434 v 12.294 q 0,0.205 0.0093,0.409 0.0094,0.203 0.028,0.405 0.0186,0.202 0.0465,0.401 0.0279,0.2 0.065,0.397 0.0372,0.197 0.0834,0.391 0.0463,0.194 0.1016,0.384 0.0552,0.191 0.1195,0.377 0.0642,0.187 0.1372,0.37 0.073,0.182 0.1547,0.36 0.0817,0.178 0.1718,0.351 0.0902,0.173 0.1886,0.341 0.0985,0.168 0.205,0.33 0.1066,0.162 0.221,0.319 0.1144,0.156 0.2365,0.306 0.1221,0.15 0.2515,0.294 0.1295,0.143 0.2661,0.28 0.1366,0.136 0.2801,0.266 0.1435,0.129 0.2935,0.251 0.15,0.122 0.3063,0.237 0.1563,0.114 0.3185,0.221 0.1622,0.106 0.33,0.205 0.1679,0.098 0.341,0.188 0.173,0.09 0.351,0.172 0.178,0.082 0.3606,0.155 0.1825,0.073 0.3693,0.137 0.1867,0.064 0.3772,0.12 0.1905,0.055 0.3845,0.101 0.1939,0.046 0.3908,0.083 0.1969,0.038 0.3965,0.065 0.1995,0.028 0.4013,0.047 0.2017,0.019 0.4053,0.028 0.2035,0.009 0.4084,0.009 H 35.12 q 0.2049,0 0.4085,-0.009 0.2035,-0.009 0.4052,-0.028 0.2018,-0.019 0.4013,-0.047 0.1996,-0.027 0.3965,-0.065 0.1969,-0.037 0.3909,-0.083 0.1939,-0.046 0.3844,-0.101 0.1905,-0.056 0.3773,-0.12 0.1867,-0.064 0.3692,-0.137 0.1826,-0.073 0.3606,-0.155 0.178,-0.082 0.3511,-0.172 0.1731,-0.09 0.3409,-0.188 0.1678,-0.099 0.33,-0.205 0.1622,-0.107 0.3185,-0.221 0.1563,-0.115 0.3063,-0.237 0.1501,-0.122 0.2935,-0.251 0.1435,-0.13 0.2801,-0.266 0.1366,-0.137 0.2661,-0.28 0.1294,-0.144 0.2515,-0.294 0.1221,-0.15 0.2365,-0.306 0.1145,-0.157 0.221,-0.319 0.1066,-0.162 0.205,-0.33 0.0985,-0.168 0.1886,-0.341 0.0902,-0.173 0.1718,-0.351 0.0817,-0.178 0.1547,-0.36 0.073,-0.183 0.1373,-0.37 0.0642,-0.186 0.1195,-0.377 0.0553,-0.19 0.1015,-0.384 0.0463,-0.194 0.0834,-0.391 0.0371,-0.197 0.065,-0.397 0.0279,-0.199 0.0465,-0.401 0.0187,-0.202 0.028,-0.405 0.0093,-0.204 0.0093,-0.409 z"
         transform="matrix(0.968161,-0.24139,0.24139,0.968161,62.2686,108.728)"
         inkscape:connector-curvature="0"
         style="fill:#d1d7fa;fill-rule:evenodd;stroke:none" />
    </g>
    <g
       id="g45"
       clip-path="url(#clip_4)">
      <path
         id="path43"
         d="m 14.9928,24.4172 c -3.6938,4.7282 -0.8156,-3.7605 7.0445,-9.017 7.8601,-5.2564 16.5558,-5.3986 16.5558,-5.3986 l 3.7927,5.4256 q 0.0881,0.126 0.1698,0.2551 0.0817,0.1292 0.157,0.2612 0.0752,0.132 0.1438,0.2667 0.0686,0.1347 0.1305,0.2717 0.0618,0.1371 0.1167,0.2762 0.055,0.1391 0.1029,0.28 0.0479,0.141 0.0887,0.2834 0.0408,0.1424 0.0744,0.2861 0.0336,0.1437 0.06,0.2883 0.0263,0.1445 0.0453,0.2898 0.019,0.1452 0.0307,0.2908 0.0117,0.1455 0.0159,0.2911 0.0043,0.1456 0.0012,0.291 -0.0031,0.1453 -0.0136,0.2901 -0.0105,0.1448 -0.0283,0.2888 -0.0179,0.1439 -0.0431,0.2867 -0.0251,0.1428 -0.0576,0.2842 -0.0325,0.1414 -0.0721,0.281 -0.0397,0.1397 -0.0865,0.2773 -0.0468,0.1377 -0.1006,0.273 -0.0538,0.1354 -0.1145,0.2682 -0.0608,0.1328 -0.1283,0.2627 -0.0676,0.13 -0.1418,0.2568 -0.0742,0.1269 -0.1549,0.2504 -0.0807,0.1235 -0.1678,0.2434 -0.087,0.1199 -0.1803,0.2359 -0.0932,0.1161 -0.1924,0.228 -0.0992,0.112 -0.2042,0.2196 -0.1049,0.1076 -0.2155,0.2107 -0.1105,0.1031 -0.2264,0.2014 -0.1158,0.0984 -0.2368,0.1918 -0.121,0.0934 -0.2468,0.1816 L 23.4414,36.0433 q -0.1258,0.0882 -0.2548,0.1702 -0.129,0.0819 -0.2609,0.1573 -0.1318,0.0755 -0.2663,0.1442 -0.1346,0.0688 -0.2714,0.1308 -0.1369,0.062 -0.2759,0.1171 -0.1389,0.0551 -0.2796,0.1032 -0.1408,0.048 -0.283,0.089 -0.1423,0.0409 -0.2857,0.0746 -0.1435,0.0338 -0.2879,0.0602 -0.1444,0.0265 -0.2894,0.0456 -0.145,0.0191 -0.2904,0.0309 -0.1453,0.0118 -0.2907,0.0161 Q 19.96,37.1869 19.8149,37.1839 19.6697,37.1808 19.5252,37.1704 19.3806,37.16 19.2369,37.1422 19.0931,37.1244 18.9506,37.0992 18.808,37.0741 18.6668,37.0416 18.5257,37.0092 18.3863,36.9696 18.2468,36.9299 18.1094,36.8831 17.972,36.8363 17.8369,36.7825 17.7018,36.7287 17.5692,36.6679 17.4366,36.6072 17.3069,36.5396 17.1772,36.472 17.0505,36.3978 16.9239,36.3235 16.8006,36.2428 16.6773,36.162 16.5577,36.0749 16.438,35.9878 16.3222,35.8944 16.2064,35.8012 16.0946,35.7019 15.9829,35.6026 15.8755,35.4975 15.7681,35.3924 15.6652,35.2818 15.5623,35.1711 15.4642,35.0551 15.3661,34.9392 15.2729,34.8181 15.1797,34.697 15.0917,34.571 l -0.3552,-0.508 q -0.088,-0.126 -0.1712,-0.2566 -0.0831,-0.1306 -0.1612,-0.2656 -0.0781,-0.1351 -0.1509,-0.2742 -0.0729,-0.1392 -0.1404,-0.2822 -0.0675,-0.143 -0.1295,-0.2895 -0.0619,-0.1465 -0.1183,-0.2963 -0.0563,-0.1498 -0.1069,-0.3026 -0.0506,-0.1527 -0.0953,-0.3081 -0.0447,-0.1553 -0.0835,-0.313 -0.0388,-0.1577 -0.0715,-0.3174 -0.0328,-0.1597 -0.0594,-0.321 -0.0267,-0.1614 -0.0472,-0.3241 -0.0205,-0.1626 -0.0348,-0.3263 -0.0143,-0.1637 -0.0224,-0.3281 -0.0081,-0.1644 -0.01,-0.3291 -0.0019,-0.1647 0.0025,-0.3294 0.0044,-0.1647 0.015,-0.3291 0.0106,-0.1644 0.0274,-0.3281 0.0168,-0.1637 0.0398,-0.3264 0.023,-0.1627 0.0521,-0.3241 0.0292,-0.1613 0.0643,-0.321 0.0352,-0.1597 0.0764,-0.3175 0.0412,-0.1577 0.0883,-0.3131 0.0471,-0.1554 0.1,-0.3082 0.0529,-0.1527 0.1115,-0.3026 0.0587,-0.1498 0.1229,-0.2964 0.0642,-0.1466 0.1338,-0.2896 0.0697,-0.1431 0.1447,-0.2823 0.075,-0.1392 0.1551,-0.2743 0.0802,-0.1351 0.1653,-0.2658 0.0852,-0.1306 0.1751,-0.2567 0.09,-0.126 0.1846,-0.2471 z"
         transform="matrix(0.9978,0,0,0.9978,75.8755,93.7175)"
         inkscape:connector-curvature="0"
         style="fill:#f9faff;stroke:none" />
    </g>
    <g
       id="g54"
       clip-path="url(#clip_5)">
      <path
         id="path52"
         d="m 14.9928,24.4172 c -3.6938,4.7282 -0.8156,-3.7605 7.0445,-9.017 7.8601,-5.2564 16.5558,-5.3986 16.5558,-5.3986 l 3.7927,5.4256 q 0.0881,0.126 0.1698,0.2551 0.0817,0.1292 0.157,0.2612 0.0752,0.132 0.1438,0.2667 0.0686,0.1347 0.1305,0.2717 0.0618,0.1371 0.1167,0.2762 0.055,0.1391 0.1029,0.28 0.0479,0.141 0.0887,0.2834 0.0408,0.1424 0.0744,0.2861 0.0336,0.1437 0.06,0.2883 0.0263,0.1445 0.0453,0.2898 0.019,0.1452 0.0307,0.2908 0.0117,0.1455 0.0159,0.2911 0.0043,0.1456 0.0012,0.291 -0.0031,0.1453 -0.0136,0.2901 -0.0105,0.1448 -0.0283,0.2888 -0.0179,0.1439 -0.0431,0.2867 -0.0251,0.1428 -0.0576,0.2842 -0.0325,0.1414 -0.0721,0.281 -0.0397,0.1397 -0.0865,0.2773 -0.0468,0.1377 -0.1006,0.273 -0.0538,0.1354 -0.1145,0.2682 -0.0608,0.1328 -0.1283,0.2627 -0.0676,0.13 -0.1418,0.2568 -0.0742,0.1269 -0.1549,0.2504 -0.0807,0.1235 -0.1678,0.2434 -0.087,0.1199 -0.1803,0.2359 -0.0932,0.1161 -0.1924,0.228 -0.0992,0.112 -0.2042,0.2196 -0.1049,0.1076 -0.2155,0.2107 -0.1105,0.1031 -0.2264,0.2014 -0.1158,0.0984 -0.2368,0.1918 -0.121,0.0934 -0.2468,0.1816 L 23.4414,36.0433 q -0.1258,0.0882 -0.2548,0.1702 -0.129,0.0819 -0.2609,0.1573 -0.1318,0.0755 -0.2663,0.1442 -0.1346,0.0688 -0.2714,0.1308 -0.1369,0.062 -0.2759,0.1171 -0.1389,0.0551 -0.2796,0.1032 -0.1408,0.048 -0.283,0.089 -0.1423,0.0409 -0.2857,0.0746 -0.1435,0.0338 -0.2879,0.0602 -0.1444,0.0265 -0.2894,0.0456 -0.145,0.0191 -0.2904,0.0309 -0.1453,0.0118 -0.2907,0.0161 Q 19.96,37.1869 19.8149,37.1839 19.6697,37.1808 19.5252,37.1704 19.3806,37.16 19.2369,37.1422 19.0931,37.1244 18.9506,37.0992 18.808,37.0741 18.6668,37.0416 18.5257,37.0092 18.3863,36.9696 18.2468,36.9299 18.1094,36.8831 17.972,36.8363 17.8369,36.7825 17.7018,36.7287 17.5692,36.6679 17.4366,36.6072 17.3069,36.5396 17.1772,36.472 17.0505,36.3978 16.9239,36.3235 16.8006,36.2428 16.6773,36.162 16.5577,36.0749 16.438,35.9878 16.3222,35.8944 16.2064,35.8012 16.0946,35.7019 15.9829,35.6026 15.8755,35.4975 15.7681,35.3924 15.6652,35.2818 15.5623,35.1711 15.4642,35.0551 15.3661,34.9392 15.2729,34.8181 15.1797,34.697 15.0917,34.571 l -0.3552,-0.508 q -0.088,-0.126 -0.1712,-0.2566 -0.0831,-0.1306 -0.1612,-0.2656 -0.0781,-0.1351 -0.1509,-0.2742 -0.0729,-0.1392 -0.1404,-0.2822 -0.0675,-0.143 -0.1295,-0.2895 -0.0619,-0.1465 -0.1183,-0.2963 -0.0563,-0.1498 -0.1069,-0.3026 -0.0506,-0.1527 -0.0953,-0.3081 -0.0447,-0.1553 -0.0835,-0.313 -0.0388,-0.1577 -0.0715,-0.3174 -0.0328,-0.1597 -0.0594,-0.321 -0.0267,-0.1614 -0.0472,-0.3241 -0.0205,-0.1626 -0.0348,-0.3263 -0.0143,-0.1637 -0.0224,-0.3281 -0.0081,-0.1644 -0.01,-0.3291 -0.0019,-0.1647 0.0025,-0.3294 0.0044,-0.1647 0.015,-0.3291 0.0106,-0.1644 0.0274,-0.3281 0.0168,-0.1637 0.0398,-0.3264 0.023,-0.1627 0.0521,-0.3241 0.0292,-0.1613 0.0643,-0.321 0.0352,-0.1597 0.0764,-0.3175 0.0412,-0.1577 0.0883,-0.3131 0.0471,-0.1554 0.1,-0.3082 0.0529,-0.1527 0.1115,-0.3026 0.0587,-0.1498 0.1229,-0.2964 0.0642,-0.1466 0.1338,-0.2896 0.0697,-0.1431 0.1447,-0.2823 0.075,-0.1392 0.1551,-0.2743 0.0802,-0.1351 0.1653,-0.2658 0.0852,-0.1306 0.1751,-0.2567 0.09,-0.126 0.1846,-0.2471 z"
         transform="matrix(0.9978,0,0,0.9978,75.8755,93.7175)"
         stroke-miterlimit="4"
         inkscape:connector-curvature="0"
         style="fill:none;stroke:#6f82f8;stroke-width:7.8375001;stroke-miterlimit:4" />
    </g>
    <g
       id="g63"
       clip-path="url(#clip_6)">
      <path
         id="path61"
         d="M 43.12,51.7515 C 54.6128,46.6606 62.72,34.7739 62.72,24.0627 62.72,9.96673 48.6796,0 31.36,0 14.0404,0 0,9.96673 0,24.0627 0,34.7739 8.10723,46.6606 19.6,51.7515 v 11.2003 c 0,0 3.5749,6.0045 3.5749,7.3262 0,1.3217 -1.0883,4.8082 -1.0883,4.8082 0,0 4.2709,4.2718 4.2709,6.4019 0,2.1302 -4.2709,6.0519 -4.2709,6.0519 0,0 4.2709,3.8952 4.2709,5.8303 0,1.935 -2.5524,5.5526 -2.5524,5.5526 0,0 2.5524,4.1161 2.5524,6.4341 v 12.294 q 0,0.205 0.0093,0.409 0.0094,0.203 0.028,0.405 0.0186,0.202 0.0465,0.401 0.0279,0.2 0.065,0.397 0.0372,0.197 0.0834,0.391 0.0463,0.194 0.1016,0.384 0.0552,0.191 0.1195,0.377 0.0642,0.187 0.1372,0.37 0.073,0.182 0.1547,0.36 0.0817,0.178 0.1718,0.351 0.0902,0.173 0.1886,0.341 0.0985,0.168 0.205,0.33 0.1066,0.163 0.221,0.319 0.1144,0.156 0.2365,0.306 0.1221,0.15 0.2515,0.294 0.1295,0.143 0.2661,0.28 0.1366,0.136 0.2801,0.266 0.1435,0.129 0.2935,0.251 0.15,0.122 0.3063,0.237 0.1563,0.114 0.3185,0.221 0.1622,0.106 0.33,0.205 0.1679,0.098 0.341,0.188 0.173,0.091 0.351,0.172 0.178,0.082 0.3606,0.155 0.1825,0.073 0.3693,0.137 0.1867,0.064 0.3772,0.12 0.1905,0.055 0.3845,0.101 0.1939,0.046 0.3908,0.084 0.1969,0.037 0.3965,0.065 0.1995,0.027 0.4013,0.046 0.2017,0.019 0.4053,0.028 0.2035,0.009 0.4084,0.009 H 35.12 q 0.2049,0 0.4085,-0.009 0.2035,-0.009 0.4052,-0.028 0.2018,-0.019 0.4013,-0.046 0.1996,-0.028 0.3965,-0.065 0.1969,-0.038 0.3909,-0.084 0.1939,-0.046 0.3844,-0.101 0.1905,-0.056 0.3773,-0.12 0.1867,-0.064 0.3692,-0.137 0.1826,-0.073 0.3606,-0.155 0.178,-0.081 0.3511,-0.172 0.1731,-0.09 0.3409,-0.188 0.1678,-0.099 0.33,-0.205 0.1622,-0.107 0.3185,-0.221 0.1563,-0.115 0.3063,-0.237 0.1501,-0.122 0.2935,-0.251 0.1435,-0.13 0.2801,-0.266 0.1366,-0.137 0.2661,-0.28 0.1294,-0.144 0.2515,-0.294 0.1221,-0.15 0.2365,-0.306 0.1145,-0.156 0.221,-0.319 0.1066,-0.162 0.205,-0.33 0.0985,-0.168 0.1886,-0.341 0.0902,-0.173 0.1718,-0.351 0.0817,-0.178 0.1547,-0.36 0.073,-0.183 0.1373,-0.37 0.0642,-0.186 0.1195,-0.377 0.0553,-0.19 0.1015,-0.384 0.0463,-0.194 0.0834,-0.391 0.0371,-0.197 0.065,-0.397 0.0279,-0.199 0.0465,-0.401 0.0187,-0.202 0.028,-0.405 0.0093,-0.204 0.0093,-0.409 z"
         transform="matrix(0.807237,-0.586492,0.586492,0.807237,65.5959,119.695)"
         inkscape:connector-curvature="0"
         style="fill:#d1d7fa;fill-rule:evenodd;stroke:none" />
    </g>
    <g
       id="g72"
       clip-path="url(#clip_7)">
      <path
         id="path70"
         d="M 0.155518,-0.11299 58.2434,44.1255 q 0.163,0.1241 0.3174,0.2529 0.1544,0.1288 0.2998,0.262 0.1455,0.1332 0.2816,0.2705 0.1362,0.1374 0.2629,0.2785 0.1267,0.1412 0.2435,0.2859 0.1169,0.1447 0.2238,0.2927 0.1069,0.1479 0.2035,0.2989 0.0966,0.1509 0.1828,0.3044 0.0862,0.1536 0.1618,0.3095 0.0755,0.1559 0.1403,0.3138 0.0649,0.158 0.1188,0.3176 0.0539,0.1596 0.0968,0.3206 0.0429,0.161 0.0747,0.323 0.0318,0.162 0.0525,0.3247 0.0206,0.1627 0.0301,0.3259 0.0094,0.1631 0.0076,0.3262 -0.0017,0.1632 -0.0147,0.326 -0.013,0.1629 -0.0372,0.3251 -0.0242,0.1623 -0.0595,0.3236 -0.0353,0.1613 -0.0817,0.3213 -0.0464,0.16 -0.1038,0.3184 -0.0574,0.1584 -0.1256,0.3149 -0.0682,0.1564 -0.1472,0.3107 -0.0789,0.1542 -0.1685,0.3058 -0.0895,0.1517 -0.1893,0.3005 -0.0999,0.1488 -0.21,0.2944 -0.11,0.1456 -0.23,0.2877 -0.12,0.1422 -0.2498,0.2805 -0.1297,0.1384 -0.2688,0.2727 -0.1391,0.1343 -0.2874,0.2643 -0.1483,0.13 -0.3055,0.2555 -0.1571,0.1254 -0.3228,0.246 l -0.6244,0.4544 q -0.1657,0.1206 -0.3357,0.2328 -0.1701,0.1122 -0.3441,0.2158 -0.1741,0.1037 -0.3518,0.1985 -0.1777,0.0948 -0.3588,0.1807 -0.181,0.0858 -0.3649,0.1625 -0.184,0.0767 -0.3705,0.144 -0.1865,0.0674 -0.3752,0.1252 -0.1887,0.0579 -0.3792,0.1062 -0.1904,0.0484 -0.3823,0.087 -0.1919,0.0386 -0.3848,0.0675 -0.1928,0.0289 -0.3863,0.0479 -0.1935,0.0191 -0.3873,0.0283 -0.1937,0.0092 -0.3872,0.0085 -0.1936,-6e-4 -0.3865,-0.0112 -0.193,-0.0105 -0.385,-0.0309 -0.192,-0.0204 -0.3827,-0.0506 -0.1907,-0.0302 -0.3796,-0.0701 -0.1889,-0.04 -0.3757,-0.0896 Q 50.6107,55.4373 50.4264,55.3781 50.2422,55.319 50.0608,55.2503 49.8794,55.1817 49.7012,55.1038 49.5231,55.0259 49.3486,54.9388 49.1741,54.8517 49.0035,54.7557 48.833,54.6597 48.6667,54.5549 48.5005,54.4501 48.339,54.3367 48.1774,54.2233 48.0208,54.1017 47.8643,53.98 47.713,53.8502 47.5618,53.7204 47.4161,53.5829 47.2705,53.4453 47.1308,53.3002 46.991,53.1551 46.8575,53.0027 46.724,52.8504 46.597,52.6911 46.4699,52.5318 46.3496,52.3659 c 4.6971,6.4759 -5.8515,-8.0674 -7.2116,-9.9427 -1.3602,-1.8752 -5.8404,-3.7024 -5.8404,-3.7024 0,0 -0.0578,-4.4294 -1.1933,-5.9949 -1.1355,-1.5655 -6.8765,-2.2022 -6.8765,-2.2022 0,0 1.1541,-5.6873 -0.0959,-7.4107 -1.25,-1.7233 -7.2119,-2.6647 -7.2119,-2.6647 0,0 -1.1654,-3.4613 -1.941,-4.5306 -0.7756,-1.0693 -7.19112,-3.8222 -7.19112,-3.8222 z"
         transform="matrix(0.9978,0,0,0.9978,109.113,147.418)"
         inkscape:connector-curvature="0"
         style="fill:#d1d7fa;stroke:none" />
    </g>
    <g
       id="g81"
       clip-path="url(#clip_8)">
      <path
         id="path79"
         d="M 17.4912,3.5909e-6 C 5.93524,10.0059 1.76206,24.4348 9.12408,34.9665 16.4895,45.5031 34.4024,50.7111 48.2604,43.9805 47.8113,44.5325 47.2826,45.0272 46.6693,45.4573 32.4819,55.4082 11.7435,50.2607 3.67206,38.714 -4.39943,27.1673 1.39468,10.9363 15.5821,0.985395 16.1892,0.559614 16.8272,0.233471 17.4912,1.16235e-6 Z"
         transform="matrix(0.9978,0,0,0.9978,74.8977,100.574)"
         inkscape:connector-curvature="0"
         style="fill:#d1d7fa;fill-rule:evenodd;stroke:none" />
    </g>
    <g
       id="g90"
       clip-path="url(#clip_9)">
      <path
         id="path88"
         d="M 16.2127,0.21591 C 8.05884,2.10878 0,18.7102 0,49.1827 0,59.3584 2.0723,69.0675 6.21691,78.3099 6.76386,77.6162 8.30225,76.4763 10.8321,74.8903 8.35502,67.3512 6.86,57.5767 6.86,46.897 6.86,27.8585 11.4024,11.9043 17.9562,6.1963 18.692,5.55546 19.1374,5.3609 20.1069,5.3609 c 0.9695,0 1.768,0.76015 1.9254,0.89413 C 27.9486,11.29 33.32,27.6073 33.32,48.8604 c 0,20.7215 -4.9981,38.1832 -11.8113,43.4964 0.7354,0.4467 1.6397,0.6779 2.744,0.6779 9.8789,0 17.8873,-20.8763 17.8873,-46.6285 0,-25.7522 -10.9374,-46.19029 -18.5502,-46.3313966 0,0 -5.8996,-0.2018894 -7.3771,0.1411066 z"
         transform="matrix(0.992334,-0.104299,0.104299,0.992334,65.428,27.4671)"
         inkscape:connector-curvature="0"
         style="fill:#f9faff;stroke:none" />
    </g>
    <g
       id="g99"
       clip-path="url(#clip_10)">
      <path
         id="path97"
         d="M 16.2127,0.21591 C 8.05884,2.10878 0,18.7102 0,49.1827 0,59.3584 2.0723,69.0675 6.21691,78.3099 6.76386,77.6162 8.30225,76.4763 10.8321,74.8903 8.35502,67.3512 6.86,57.5767 6.86,46.897 6.86,27.8585 11.4024,11.9043 17.9562,6.1963 18.692,5.55546 19.1374,5.3609 20.1069,5.3609 c 0.9695,0 1.768,0.76015 1.9254,0.89413 C 27.9486,11.29 33.32,27.6073 33.32,48.8604 c 0,20.7215 -4.9981,38.1832 -11.8113,43.4964 0.7354,0.4467 1.6397,0.6779 2.744,0.6779 9.8789,0 17.8873,-20.8763 17.8873,-46.6285 0,-25.7522 -10.9374,-46.19029 -18.5502,-46.3313966 0,0 -5.8996,-0.2018894 -7.3771,0.1411066 z"
         transform="matrix(0.992334,-0.104299,0.104299,0.992334,65.428,27.4671)"
         stroke-miterlimit="4"
         inkscape:connector-curvature="0"
         style="fill:none;stroke:#6f82f8;stroke-width:7.8375001;stroke-miterlimit:4" />
    </g>
    <g
       id="g108"
       clip-path="url(#clip_11)">
      <path
         id="path106"
         d="M 11.299,-1.60172e-6 C 8.61262,7.66898 6.97553,17.8533 6.97553,29.0289 c 0,12.7168 2.11977,24.1501 5.49317,32.0543 -0.4746,0.2951 -0.8725,0.5695 -1.1768,0.8314 -1.99902,1.7205 -3.57665,2.6956 -3.57665,2.6956 0,0 -2.92874,-4.785 -4.29852,-9.4961 C 1.27637,47.7526 0,37.6133 0,30.5385 0,18.2041 5.87151,7.36041 11.299,-1.60172e-6 Z"
         transform="matrix(0.995369,-0.069603,0.069603,0.995369,68.1245,40.9725)"
         inkscape:connector-curvature="0"
         style="fill:#d1d7fa;fill-rule:evenodd;stroke:none" />
    </g>
    <g
       id="g117"
       clip-path="url(#clip_12)">
      <path
         id="path115"
         d="M 8.84602,4.67139 C 10.4498,24.9007 15.8766,41.1208 22.9034,47.1281 21.8836,48.2493 20.2016,48.4217 19.0003,48.4007 7.35108,48.1971 0.733515,23.7746 0.0110831,4.62413 -0.243638,-2.1281 3.92789,-0.93968 8.84602,4.67138 Z"
         transform="matrix(-0.995369,0.069603,0.069603,0.995369,113.957,67.489)"
         inkscape:connector-curvature="0"
         style="fill:#d1d7fa;fill-rule:evenodd;stroke:none" />
    </g>
    <g
       id="g126"
       clip-path="url(#clip_13)">
      <path
         id="path124"
         d="M 8.84056,5.88991 V 1 q 0,-0.102717 -0.01861,-0.201437 Q 8.80335,0.699843 8.76675,0.608335 8.73014,0.516827 8.67673,0.43551 8.62332,0.354193 8.55485,0.285714 8.48637,0.217236 8.40505,0.163826 8.32373,0.110415 8.23223,0.0738122 8.14072,0.037209 8.042,0.0186045 7.94328,0 7.84056,0 H 6.89371 Q 6.79099,0 6.69227,0.0186045 6.59355,0.037209 6.50204,0.0738122 6.41053,0.110415 6.32922,0.163826 6.2479,0.217236 6.17942,0.285714 6.11094,0.354193 6.05753,0.43551 6.00412,0.516827 5.96752,0.608335 5.93092,0.699843 5.91231,0.798563 5.89371,0.897283 5.89371,1 V 5.88991 H 1 q -0.102717,0 -0.201437,0.0186 Q 0.699843,5.92712 0.608335,5.96372 0.516827,6.00032 0.43551,6.05373 0.354193,6.10714 0.285714,6.17562 0.217236,6.2441 0.163826,6.32542 0.110415,6.40674 0.0738122,6.49824 0.037209,6.58975 0.0186045,6.68847 0,6.78719 0,6.88991 V 7.83486 Q 0,7.93758 0.0186045,8.0363 0.037209,8.13502 0.0738122,8.22653 0.110415,8.31804 0.163826,8.39935 0.217236,8.48067 0.285714,8.54915 0.354193,8.61763 0.43551,8.67104 0.516827,8.72445 0.608335,8.76105 0.699843,8.79765 0.798563,8.81626 0.897283,8.83486 1,8.83486 h 4.89371 v 4.88994 q 0,0.1027 0.0186,0.2014 0.01861,0.0987 0.05521,0.1902 0.0366,0.0915 0.09001,0.1729 0.05341,0.0813 0.12189,0.1498 0.06848,0.0684 0.1498,0.1218 0.08131,0.0535 0.17282,0.0901 0.09151,0.0366 0.19023,0.0552 0.09872,0.0186 0.20144,0.0186 h 0.94685 q 0.10272,0 0.20144,-0.0186 0.09872,-0.0186 0.19023,-0.0552 0.0915,-0.0366 0.17282,-0.0901 0.08132,-0.0534 0.1498,-0.1218 0.06847,-0.0685 0.12188,-0.1498 0.05341,-0.0814 0.09002,-0.1729 0.0366,-0.0915 0.0552,-0.1902 0.01861,-0.0987 0.01861,-0.2014 V 8.83486 h 4.89374 q 0.1027,0 0.2014,-0.0186 0.0987,-0.01861 0.1902,-0.05521 0.0915,-0.0366 0.1729,-0.09001 0.0813,-0.05341 0.1498,-0.12189 0.0684,-0.06848 0.1218,-0.1498 0.0535,-0.08131 0.0901,-0.17282 0.0366,-0.09151 0.0552,-0.19023 0.0186,-0.09872 0.0186,-0.20144 V 6.88991 q 0,-0.10272 -0.0186,-0.20144 Q 14.6971,6.58975 14.6605,6.49824 14.6239,6.40674 14.5704,6.32542 14.517,6.2441 14.4486,6.17562 14.3801,6.10714 14.2988,6.05373 14.2174,6.00032 14.1259,5.96372 14.0344,5.92712 13.9357,5.90851 13.837,5.88991 13.7343,5.88991 Z"
         transform="matrix(0.982641,0.173266,-0.173266,0.982641,4.1084,107.433)"
         inkscape:connector-curvature="0"
         style="fill:#d1d7fa;fill-rule:evenodd;stroke:none" />
    </g>
    <g
       id="g135"
       clip-path="url(#clip_14)">
      <path
         id="path133"
         d="M 8.84056,5.88991 V 1 q 0,-0.102717 -0.01861,-0.201437 Q 8.80335,0.699843 8.76675,0.608335 8.73014,0.516827 8.67673,0.43551 8.62332,0.354193 8.55485,0.285714 8.48637,0.217236 8.40505,0.163826 8.32373,0.110415 8.23223,0.0738122 8.14072,0.037209 8.042,0.0186045 7.94328,0 7.84056,0 H 6.89371 Q 6.79099,0 6.69227,0.0186045 6.59355,0.037209 6.50204,0.0738122 6.41053,0.110415 6.32922,0.163826 6.2479,0.217236 6.17942,0.285714 6.11094,0.354193 6.05753,0.43551 6.00412,0.516827 5.96752,0.608335 5.93092,0.699843 5.91231,0.798563 5.89371,0.897283 5.89371,1 V 5.88991 H 1 q -0.102717,0 -0.201437,0.0186 Q 0.699843,5.92712 0.608335,5.96372 0.516827,6.00032 0.43551,6.05373 0.354193,6.10714 0.285714,6.17562 0.217236,6.2441 0.163826,6.32542 0.110415,6.40674 0.0738122,6.49824 0.037209,6.58975 0.0186045,6.68847 0,6.78719 0,6.88991 V 7.83486 Q 0,7.93758 0.0186045,8.0363 0.037209,8.13502 0.0738122,8.22653 0.110415,8.31804 0.163826,8.39935 0.217236,8.48067 0.285714,8.54915 0.354193,8.61763 0.43551,8.67104 0.516827,8.72445 0.608335,8.76105 0.699843,8.79765 0.798563,8.81626 0.897283,8.83486 1,8.83486 h 4.89371 v 4.88994 q 0,0.1027 0.0186,0.2014 0.01861,0.0987 0.05521,0.1902 0.0366,0.0915 0.09001,0.1729 0.05341,0.0813 0.12189,0.1498 0.06848,0.0684 0.1498,0.1218 0.08131,0.0535 0.17282,0.0901 0.09151,0.0366 0.19023,0.0552 0.09872,0.0186 0.20144,0.0186 h 0.94685 q 0.10272,0 0.20144,-0.0186 0.09872,-0.0186 0.19023,-0.0552 0.0915,-0.0366 0.17282,-0.0901 0.08132,-0.0534 0.1498,-0.1218 0.06847,-0.0685 0.12188,-0.1498 0.05341,-0.0814 0.09002,-0.1729 0.0366,-0.0915 0.0552,-0.1902 0.01861,-0.0987 0.01861,-0.2014 V 8.83486 h 4.89374 q 0.1027,0 0.2014,-0.0186 0.0987,-0.01861 0.1902,-0.05521 0.0915,-0.0366 0.1729,-0.09001 0.0813,-0.05341 0.1498,-0.12189 0.0684,-0.06848 0.1218,-0.1498 0.0535,-0.08131 0.0901,-0.17282 0.0366,-0.09151 0.0552,-0.19023 0.0186,-0.09872 0.0186,-0.20144 V 6.88991 q 0,-0.10272 -0.0186,-0.20144 Q 14.6971,6.58975 14.6605,6.49824 14.6239,6.40674 14.5704,6.32542 14.517,6.2441 14.4486,6.17562 14.3801,6.10714 14.2988,6.05373 14.2174,6.00032 14.1259,5.96372 14.0344,5.92712 13.9357,5.90851 13.837,5.88991 13.7343,5.88991 Z"
         transform="matrix(0.982641,0.173266,-0.173266,0.982641,159.586,128.002)"
         inkscape:connector-curvature="0"
         style="fill:#d1d7fa;fill-rule:evenodd;stroke:none" />
    </g>
    <g
       id="g144"
       clip-path="url(#clip_15)">
      <path
         id="path142"
         d="m 4.42028,8.83486 c 2.44125,0 4.42028,-1.97775 4.42028,-4.41743 C 8.84056,1.97775 6.86153,0 4.42028,0 1.97903,0 0,1.97775 0,4.41743 0,6.85711 1.97903,8.83486 4.42028,8.83486 Z"
         transform="matrix(0.9978,0,0,0.9978,49.4739,127.02)"
         stroke-miterlimit="4"
         inkscape:connector-curvature="0"
         style="fill:none;stroke:#d1d7fa;stroke-width:2.9390626;stroke-miterlimit:4" />
    </g>
    <g
       id="g153"
       clip-path="url(#clip_16)">
      <path
         id="path151"
         d="m 4.42028,8.83487 c 2.44125,0 4.42028,-1.97775 4.42028,-4.41744 C 8.84056,1.97775 6.86153,0 4.42028,0 1.97903,0 0,1.97775 0,4.41743 0,6.85712 1.97903,8.83487 4.42028,8.83487 Z"
         transform="matrix(0.9978,0,0,0.9978,177.571,152.487)"
         stroke-miterlimit="4"
         inkscape:connector-curvature="0"
         style="fill:none;stroke:#d1d7fa;stroke-width:2.9390626;stroke-miterlimit:4" />
    </g>
    <g
       id="g162"
       clip-path="url(#clip_17)">
      <path
         id="path160"
         d="m 2.21014,4.41743 c 1.22063,0 2.21014,-0.98887 2.21014,-2.20871 C 4.42028,0.988876 3.43077,0 2.21014,0 0.989514,0 0,0.988876 0,2.20872 0,3.42856 0.989514,4.41743 2.21014,4.41743 Z"
         transform="matrix(0.9978,0,0,0.9978,53.385,98.615)"
         inkscape:connector-curvature="0"
         style="fill:#d1d7fa;stroke:none" />
    </g>
    <g
       id="g171"
       clip-path="url(#clip_18)">
      <path
         id="path169"
         d="m 2.21014,4.41743 c 1.22063,0 2.21014,-0.98887 2.21014,-2.20871 C 4.42028,0.988876 3.43077,0 2.21014,0 0.989514,0 0,0.988876 0,2.20872 0,3.42856 0.989514,4.41743 2.21014,4.41743 Z"
         transform="matrix(0.9978,0,0,0.9978,53.385,98.615)"
         stroke-miterlimit="4"
         inkscape:connector-curvature="0"
         style="fill:none;stroke:#d1d7fa;stroke-width:2.9390626;stroke-miterlimit:4" />
    </g>
    <g
       id="g180"
       clip-path="url(#clip_19)">
      <path
         id="path178"
         d="m 2.21014,4.41743 c 1.22063,0 2.21014,-0.98887 2.21014,-2.20871 C 4.42028,0.988876 3.43077,0 2.21014,0 0.989514,0 0,0.988876 0,2.20872 0,3.42856 0.989514,4.41743 2.21014,4.41743 Z"
         transform="matrix(0.9978,0,0,0.9978,24.0498,126.041)"
         inkscape:connector-curvature="0"
         style="fill:#d1d7fa;stroke:none" />
    </g>
    <g
       id="g189"
       clip-path="url(#clip_20)">
      <path
         id="path187"
         d="m 2.21014,4.41743 c 1.22063,0 2.21014,-0.98887 2.21014,-2.20871 C 4.42028,0.988876 3.43077,0 2.21014,0 0.989514,0 0,0.988876 0,2.20872 0,3.42856 0.989514,4.41743 2.21014,4.41743 Z"
         transform="matrix(0.9978,0,0,0.9978,24.0498,126.041)"
         stroke-miterlimit="4"
         inkscape:connector-curvature="0"
         style="fill:none;stroke:#d1d7fa;stroke-width:2.9390626;stroke-miterlimit:4" />
    </g>
    <g
       id="g198"
       clip-path="url(#clip_21)">
      <path
         id="path196"
         d="m 2.21014,4.41743 c 1.22062,0 2.21013,-0.98887 2.21013,-2.20871 C 4.42027,0.988876 3.43076,0 2.21014,0 0.989512,0 0,0.988876 0,2.20872 0,3.42856 0.989512,4.41743 2.21014,4.41743 Z"
         transform="matrix(0.9978,0,0,0.9978,191.261,131.918)"
         inkscape:connector-curvature="0"
         style="fill:#d1d7fa;stroke:none" />
    </g>
    <g
       id="g207"
       clip-path="url(#clip_22)">
      <path
         id="path205"
         d="m 2.21014,4.41743 c 1.22062,0 2.21013,-0.98887 2.21013,-2.20871 C 4.42027,0.988876 3.43076,0 2.21014,0 0.989512,0 0,0.988876 0,2.20872 0,3.42856 0.989512,4.41743 2.21014,4.41743 Z"
         transform="matrix(0.9978,0,0,0.9978,191.261,131.918)"
         stroke-miterlimit="4"
         inkscape:connector-curvature="0"
         style="fill:none;stroke:#d1d7fa;stroke-width:2.9390626;stroke-miterlimit:4" />
    </g>
    <g
       id="g216"
       clip-path="url(#clip_23)">
      <path
         id="path214"
         d="m 3.99008,29.4956 c 0.81186,0 1.47,-0.6592 1.47,-1.4724 0,-0.8133 -0.65814,-1.4725 -1.47,-1.4725 -0.81186,0 -1.47,0.6592 -1.47,1.4725 0,0.8132 0.65814,1.4724 1.47,1.4724 z"
         transform="matrix(0.190389,-0.979468,0.979468,0.190389,7.39966,107.446)"
         inkscape:connector-curvature="0"
         style="fill:#d1d7fa;stroke:none" />
    </g>
    <g
       id="g225"
       clip-path="url(#clip_24)">
      <path
         id="path223"
         d="m 3.99008,29.4956 c 0.81186,0 1.47,-0.6592 1.47,-1.4724 0,-0.8133 -0.65814,-1.4725 -1.47,-1.4725 -0.81186,0 -1.47,0.6592 -1.47,1.4725 0,0.8132 0.65814,1.4724 1.47,1.4724 z"
         transform="matrix(0.190389,-0.979468,0.979468,0.190389,7.39966,107.446)"
         stroke-miterlimit="4"
         inkscape:connector-curvature="0"
         style="fill:none;stroke:#ffffff;stroke-width:3.91875005;stroke-miterlimit:4" />
    </g>
    <g
       id="g234"
       clip-path="url(#clip_25)">
      <path
         id="path232"
         d="m 10.7788,16.6881 h 0.0025 q 0.2008,0 0.3986,0.0182 0.1977,0.0183 0.3907,0.0547 0.1931,0.0364 0.3798,0.0906 0.1868,0.0542 0.3657,0.1257 0.1789,0.0716 0.3486,0.16 0.1696,0.0883 0.3286,0.1928 0.1591,0.1044 0.3061,0.2241 0.1471,0.1196 0.281,0.2535 0.1339,0.1339 0.2535,0.281 0.1197,0.147 0.2241,0.306 0.1044,0.159 0.1928,0.3287 0.0884,0.1697 0.16,0.3486 0.0715,0.1789 0.1257,0.3657 0.0542,0.1867 0.0906,0.3797 0.0364,0.1931 0.0546,0.3908 Q 14.7,20.406 14.7,20.6068 v 18.6671 q 0,0.2009 -0.0183,0.3986 -0.0182,0.1978 -0.0546,0.3908 -0.0364,0.193 -0.0906,0.3798 -0.0542,0.1867 -0.1257,0.3657 -0.0716,0.1789 -0.16,0.3485 -0.0884,0.1697 -0.1928,0.3287 -0.1044,0.159 -0.2241,0.3061 -0.1196,0.147 -0.2535,0.2809 -0.1339,0.1339 -0.281,0.2536 -0.147,0.1196 -0.3061,0.2241 -0.159,0.1044 -0.3286,0.1928 -0.1697,0.0883 -0.3486,0.1599 -0.1789,0.0716 -0.3657,0.1258 -0.1867,0.0542 -0.3798,0.0906 -0.193,0.0363 -0.3907,0.0546 -0.1978,0.0183 -0.3986,0.0183 h -0.0025 q -0.2009,0 -0.3986,-0.0183 Q 10.1824,43.1561 9.98937,43.1198 9.79634,43.0834 9.60959,43.0292 9.42284,42.975 9.24391,42.9034 9.06498,42.8318 8.89532,42.7435 8.72566,42.6551 8.56666,42.5507 8.40765,42.4462 8.2606,42.3266 8.11354,42.2069 7.97964,42.073 7.84574,41.9391 7.72609,41.7921 7.60643,41.645 7.50199,41.486 7.39756,41.327 7.30919,41.1573 7.22083,40.9877 7.14925,40.8088 7.07768,40.6298 7.02348,40.4431 6.96929,40.2563 6.93291,40.0633 6.89653,39.8703 6.87826,39.6725 6.86,39.4748 6.86,39.2739 V 20.6068 q 0,-0.2008 0.01826,-0.3986 0.01827,-0.1977 0.05465,-0.3908 0.03638,-0.193 0.09057,-0.3797 0.0542,-0.1868 0.12577,-0.3657 0.07158,-0.1789 0.15994,-0.3486 0.08837,-0.1697 0.1928,-0.3287 0.10444,-0.159 0.2241,-0.306 0.11965,-0.1471 0.25355,-0.281 0.1339,-0.1339 0.28096,-0.2535 0.14705,-0.1197 0.30605,-0.2241 0.15901,-0.1045 0.32867,-0.1928 0.16966,-0.0884 0.34859,-0.16 0.17893,-0.0715 0.36568,-0.1257 0.18675,-0.0542 0.37978,-0.0906 0.19303,-0.0364 0.39083,-0.0547 0.1977,-0.0182 0.3986,-0.0182 z"
         transform="matrix(0.896817,-0.437407,0.437407,0.896817,9.09033,78.5325)"
         inkscape:connector-curvature="0"
         style="fill:#d1d7fa;stroke:none" />
    </g>
    <g
       id="g243"
       clip-path="url(#clip_26)">
      <path
         id="path241"
         d="m 10.7788,16.6881 h 0.0025 q 0.2008,0 0.3986,0.0182 0.1977,0.0183 0.3907,0.0547 0.1931,0.0364 0.3798,0.0906 0.1868,0.0542 0.3657,0.1257 0.1789,0.0716 0.3486,0.16 0.1696,0.0883 0.3286,0.1928 0.1591,0.1044 0.3061,0.2241 0.1471,0.1196 0.281,0.2535 0.1339,0.1339 0.2535,0.281 0.1197,0.147 0.2241,0.306 0.1044,0.159 0.1928,0.3287 0.0884,0.1697 0.16,0.3486 0.0715,0.1789 0.1257,0.3657 0.0542,0.1867 0.0906,0.3797 0.0364,0.1931 0.0546,0.3908 Q 14.7,20.406 14.7,20.6068 v 18.6671 q 0,0.2009 -0.0183,0.3986 -0.0182,0.1978 -0.0546,0.3908 -0.0364,0.193 -0.0906,0.3798 -0.0542,0.1867 -0.1257,0.3657 -0.0716,0.1789 -0.16,0.3485 -0.0884,0.1697 -0.1928,0.3287 -0.1044,0.159 -0.2241,0.3061 -0.1196,0.147 -0.2535,0.2809 -0.1339,0.1339 -0.281,0.2536 -0.147,0.1196 -0.3061,0.2241 -0.159,0.1044 -0.3286,0.1928 -0.1697,0.0883 -0.3486,0.1599 -0.1789,0.0716 -0.3657,0.1258 -0.1867,0.0542 -0.3798,0.0906 -0.193,0.0363 -0.3907,0.0546 -0.1978,0.0183 -0.3986,0.0183 h -0.0025 q -0.2009,0 -0.3986,-0.0183 Q 10.1824,43.1561 9.98937,43.1198 9.79634,43.0834 9.60959,43.0292 9.42284,42.975 9.24391,42.9034 9.06498,42.8318 8.89532,42.7435 8.72566,42.6551 8.56666,42.5507 8.40765,42.4462 8.2606,42.3266 8.11354,42.2069 7.97964,42.073 7.84574,41.9391 7.72609,41.7921 7.60643,41.645 7.50199,41.486 7.39756,41.327 7.30919,41.1573 7.22083,40.9877 7.14925,40.8088 7.07768,40.6298 7.02348,40.4431 6.96929,40.2563 6.93291,40.0633 6.89653,39.8703 6.87826,39.6725 6.86,39.4748 6.86,39.2739 V 20.6068 q 0,-0.2008 0.01826,-0.3986 0.01827,-0.1977 0.05465,-0.3908 0.03638,-0.193 0.09057,-0.3797 0.0542,-0.1868 0.12577,-0.3657 0.07158,-0.1789 0.15994,-0.3486 0.08837,-0.1697 0.1928,-0.3287 0.10444,-0.159 0.2241,-0.306 0.11965,-0.1471 0.25355,-0.281 0.1339,-0.1339 0.28096,-0.2535 0.14705,-0.1197 0.30605,-0.2241 0.15901,-0.1045 0.32867,-0.1928 0.16966,-0.0884 0.34859,-0.16 0.17893,-0.0715 0.36568,-0.1257 0.18675,-0.0542 0.37978,-0.0906 0.19303,-0.0364 0.39083,-0.0547 0.1977,-0.0182 0.3986,-0.0182 z"
         transform="matrix(0.896817,-0.437407,0.437407,0.896817,9.09033,78.5325)"
         stroke-miterlimit="4"
         inkscape:connector-curvature="0"
         style="fill:none;stroke:#ffffff;stroke-width:3.91875005;stroke-miterlimit:4" />
    </g>
    <g
       id="g252"
       clip-path="url(#clip_27)">
      <path
         id="path250"
         d="M 6.86,-1.06858e-7 C 2.84459,1.57078 0,5.48366 0,10.062 c 0,5.9637 4.82637,10.7982 10.78,10.7982 5.9536,0 10.78,-4.8345 10.78,-10.7982 C 21.56,5.48366 18.7154,1.57078 14.7,4.5274e-7 V 9.08825 q 0,0.20085 -0.0183,0.3986 -0.0182,0.19775 -0.0546,0.39078 -0.0364,0.19307 -0.0906,0.37977 -0.0542,0.1868 -0.1257,0.3657 -0.0716,0.1789 -0.16,0.3486 -0.0884,0.1696 -0.1928,0.3286 -0.1044,0.1591 -0.2241,0.3061 -0.1196,0.1471 -0.2535,0.281 -0.1339,0.1339 -0.281,0.2535 -0.147,0.1197 -0.3061,0.2241 -0.159,0.1044 -0.3286,0.1928 -0.1697,0.0884 -0.3486,0.1599 -0.1789,0.0716 -0.3657,0.1258 -0.1867,0.0542 -0.3798,0.0906 -0.193,0.0364 -0.3907,0.0546 -0.1978,0.0183 -0.3986,0.0183 h -0.0025 q -0.2009,0 -0.3986,-0.0183 Q 10.1824,12.9705 9.98937,12.9341 9.79634,12.8977 9.60959,12.8435 9.42284,12.7893 9.24391,12.7177 9.06498,12.6462 8.89532,12.5578 8.72566,12.4694 8.56666,12.365 8.40765,12.2606 8.2606,12.1409 8.11354,12.0213 7.97964,11.8874 7.84574,11.7535 7.72609,11.6064 7.60643,11.4594 7.50199,11.3003 7.39756,11.1413 7.30919,10.9717 7.22083,10.802 7.14925,10.6231 7.07768,10.4442 7.02348,10.2574 6.96929,10.0707 6.93291,9.87763 6.89653,9.6846 6.87826,9.48685 6.86,9.2891 6.86,9.08825 Z"
         transform="matrix(0.896817,-0.437407,0.437407,0.896817,9.09033,78.5325)"
         inkscape:connector-curvature="0"
         style="fill:#d8d8d8;fill-rule:evenodd;stroke:none" />
    </g>
    <g
       id="g261"
       clip-path="url(#clip_28)">
      <path
         id="path259"
         d="M 6.86,-1.06858e-7 C 2.84459,1.57078 0,5.48366 0,10.062 c 0,5.9637 4.82637,10.7982 10.78,10.7982 5.9536,0 10.78,-4.8345 10.78,-10.7982 C 21.56,5.48366 18.7154,1.57078 14.7,4.5274e-7 V 9.08825 q 0,0.20085 -0.0183,0.3986 -0.0182,0.19775 -0.0546,0.39078 -0.0364,0.19307 -0.0906,0.37977 -0.0542,0.1868 -0.1257,0.3657 -0.0716,0.1789 -0.16,0.3486 -0.0884,0.1696 -0.1928,0.3286 -0.1044,0.1591 -0.2241,0.3061 -0.1196,0.1471 -0.2535,0.281 -0.1339,0.1339 -0.281,0.2535 -0.147,0.1197 -0.3061,0.2241 -0.159,0.1044 -0.3286,0.1928 -0.1697,0.0884 -0.3486,0.1599 -0.1789,0.0716 -0.3657,0.1258 -0.1867,0.0542 -0.3798,0.0906 -0.193,0.0364 -0.3907,0.0546 -0.1978,0.0183 -0.3986,0.0183 h -0.0025 q -0.2009,0 -0.3986,-0.0183 Q 10.1824,12.9705 9.98937,12.9341 9.79634,12.8977 9.60959,12.8435 9.42284,12.7893 9.24391,12.7177 9.06498,12.6462 8.89532,12.5578 8.72566,12.4694 8.56666,12.365 8.40765,12.2606 8.2606,12.1409 8.11354,12.0213 7.97964,11.8874 7.84574,11.7535 7.72609,11.6064 7.60643,11.4594 7.50199,11.3003 7.39756,11.1413 7.30919,10.9717 7.22083,10.802 7.14925,10.6231 7.07768,10.4442 7.02348,10.2574 6.96929,10.0707 6.93291,9.87763 6.89653,9.6846 6.87826,9.48685 6.86,9.2891 6.86,9.08825 Z"
         transform="matrix(0.896817,-0.437407,0.437407,0.896817,9.09033,78.5325)"
         stroke-miterlimit="4"
         inkscape:connector-curvature="0"
         style="fill:none;fill-rule:evenodd;stroke:#979797;stroke-width:0.97968751;stroke-miterlimit:4" />
    </g>
    <g
       id="g270"
       clip-path="url(#clip_29)">
      <path
         id="path268"
         d="m 16,19 c 0,1.6569 -1.3431,3 -3,3 -1.6569,0 -3,-1.3431 -3,-3 0,-1.6569 1.3431,-3 3,-3 1.6569,0 3,1.3431 3,3 z"
         transform="matrix(0.959147,-0.275031,0.275031,0.959147,151.542,96.0234)"
         inkscape:connector-curvature="0"
         style="fill:#d1d7fa;fill-rule:evenodd;stroke:none" />
    </g>
    <g
       id="g279"
       clip-path="url(#clip_30)">
      <path
         id="path277"
         d="m 16,19 c 0,1.6569 -1.3431,3 -3,3 -1.6569,0 -3,-1.3431 -3,-3 0,-1.6569 1.3431,-3 3,-3 1.6569,0 3,1.3431 3,3 z"
         transform="matrix(0.959147,-0.275031,0.275031,0.959147,151.542,96.0234)"
         stroke-miterlimit="4"
         inkscape:connector-curvature="0"
         style="fill:none;fill-rule:evenodd;stroke:#ffffff;stroke-width:8;stroke-miterlimit:4" />
    </g>
    <g
       id="g288"
       clip-path="url(#clip_31)">
      <path
         id="path286"
         d="m 11.9924,8.61464 c -1,0 7.6497,0 9.4306,0 1.7809,0 0.6041,-6.07007 -2.1692,-6.07007 -1.7147,0 -3.1091,1.02341 -4.0758,1.94049 -0.9668,0.91708 -4.1856,4.12958 -4.1856,4.12958 z"
         transform="matrix(0.959147,-0.275031,0.275031,0.959147,151.542,96.0234)"
         inkscape:connector-curvature="0"
         style="fill:#d1d7fa;stroke:none" />
    </g>
    <g
       id="g297"
       clip-path="url(#clip_32)">
      <path
         id="path295"
         d="m 11.9924,8.61464 c -1,0 7.6497,0 9.4306,0 1.7809,0 0.6041,-6.07007 -2.1692,-6.07007 -1.7147,0 -3.1091,1.02341 -4.0758,1.94049 -0.9668,0.91708 -4.1856,4.12958 -4.1856,4.12958 z"
         transform="matrix(0.959147,-0.275031,0.275031,0.959147,151.542,96.0234)"
         stroke-miterlimit="4"
         inkscape:connector-curvature="0"
         style="fill:none;stroke:#ffffff;stroke-width:8;stroke-miterlimit:4" />
    </g>
    <g
       id="g306"
       clip-path="url(#clip_33)">
      <path
         id="path304"
         d="M 24,0 H 23 Q 22.6412,0 22.265,0.0231709 21.8888,0.0463419 21.4983,0.0924948 21.1077,0.138648 20.706,0.207406 20.3042,0.276164 19.8946,0.366968 19.485,0.457771 19.0708,0.569878 18.6566,0.681985 18.2413,0.814482 17.8259,0.946979 17.4128,1.09879 16.9996,1.25059 16.5921,1.42047 16.1845,1.59035 15.7859,1.77691 15.3872,1.96347 15.0007,2.1652 14.6142,2.36692 14.243,2.58217 13.8718,2.79741 13.519,3.02442 13.1661,3.25143 12.8345,3.48835 12.5028,3.72527 12.1951,3.97017 11.8874,4.21506 11.6061,4.46594 11.3248,4.71682 11.0722,4.97164 L 7.86244,8.21002 Q 7.64976,8.25274 7.43997,8.30403 7.23019,8.35533 7.02362,8.41511 6.81706,8.4749 6.61403,8.54309 6.41101,8.61127 6.21183,8.68776 6.01265,8.76425 5.81763,8.84891 5.6226,8.93358 5.43203,9.0263 5.24146,9.11901 5.05564,9.21964 4.86981,9.32026 4.68902,9.42864 4.50823,9.53702 4.33274,9.65299 4.15726,9.76895 3.98735,9.89233 3.81744,10.0157 3.65337,10.1463 3.4893,10.2769 3.33132,10.4145 3.17335,10.5521 3.0217,10.6966 2.87005,10.841 2.72497,10.992 2.57989,11.143 2.44159,11.3004 2.3033,11.4577 2.17201,11.6212 q -0.1313,0.1635 -0.25539,0.3328 -0.12409,0.1694 -0.2408,0.3443 -0.1167,0.175 -0.22583,0.3553 -0.10913,0.1803 -0.21052,0.3656 -0.1014,0.1853 -0.1949,0.3755 Q 0.951075,13.5848 0.865612,13.7794 0.78015,13.974 0.702855,14.1728 0.625561,14.3715 0.556553,14.5742 0.487545,14.7769 0.42693,14.9831 0.366315,15.1893 0.314185,15.3988 0.262056,15.6083 0.218492,15.8207 0.174928,16.0331 0.139996,16.2481 0.105064,16.4632 0.0788181,16.6805 0.0525723,16.8977 0.0350527,17.117 0.0175331,17.3362 0.00876654,17.5571 0,17.7779 0,18 v 2 h 42 q 0.1025,0 0.2034,-0.0093 0.101,-0.0093 0.1995,-0.0279 0.0985,-0.0186 0.1938,-0.0462 0.0953,-0.0277 0.1866,-0.0642 0.0914,-0.0366 0.1779,-0.0816 0.0866,-0.0451 0.1678,-0.0985 0.0811,-0.0533 0.1562,-0.1143 0.075,-0.0611 0.1434,-0.1294 0.0683,-0.0684 0.1294,-0.1434 0.061,-0.0751 0.1144,-0.1562 0.0533,-0.0812 0.0984,-0.1678 0.0451,-0.0865 0.0816,-0.1779 0.0365,-0.0913 0.0642,-0.1866 0.0276,-0.0953 0.0462,-0.1938 0.0186,-0.0985 0.0279,-0.1995 Q 44,18.1025 44,18 V 8 H 38.9513 L 35.9346,4.96484 Q 35.6817,4.71037 35.4001,4.45984 35.1184,4.2093 34.8104,3.96474 34.5023,3.72017 34.1703,3.48358 33.8384,3.24698 33.4852,3.02029 33.132,2.79359 32.7606,2.57864 32.3891,2.36369 32.0023,2.16224 31.6155,1.96079 31.2166,1.77448 30.8177,1.58817 30.4099,1.41853 30.0021,1.24888 29.5887,1.09728 29.1754,0.945684 28.7598,0.813368 28.3443,0.681053 27.93,0.569099 27.5156,0.457145 27.1059,0.366466 26.6961,0.275787 26.2943,0.207122 25.8925,0.138458 25.5019,0.0923683 25.1112,0.0462785 24.735,0.0231393 24.3588,0 24,0 Z"
         transform="matrix(0.959147,-0.275031,0.275031,0.959147,151.542,96.0234)"
         inkscape:connector-curvature="0"
         style="fill:#d1d7fa;fill-rule:evenodd;stroke:none" />
    </g>
    <g
       id="g315"
       clip-path="url(#clip_34)">
      <path
         id="path313"
         d="M 24,0 H 23 Q 22.6412,0 22.265,0.0231709 21.8888,0.0463419 21.4983,0.0924948 21.1077,0.138648 20.706,0.207406 20.3042,0.276164 19.8946,0.366968 19.485,0.457771 19.0708,0.569878 18.6566,0.681985 18.2413,0.814482 17.8259,0.946979 17.4128,1.09879 16.9996,1.25059 16.5921,1.42047 16.1845,1.59035 15.7859,1.77691 15.3872,1.96347 15.0007,2.1652 14.6142,2.36692 14.243,2.58217 13.8718,2.79741 13.519,3.02442 13.1661,3.25143 12.8345,3.48835 12.5028,3.72527 12.1951,3.97017 11.8874,4.21506 11.6061,4.46594 11.3248,4.71682 11.0722,4.97164 L 7.86244,8.21002 Q 7.64976,8.25274 7.43997,8.30403 7.23019,8.35533 7.02362,8.41511 6.81706,8.4749 6.61403,8.54309 6.41101,8.61127 6.21183,8.68776 6.01265,8.76425 5.81763,8.84891 5.6226,8.93358 5.43203,9.0263 5.24146,9.11901 5.05564,9.21964 4.86981,9.32026 4.68902,9.42864 4.50823,9.53702 4.33274,9.65299 4.15726,9.76895 3.98735,9.89233 3.81744,10.0157 3.65337,10.1463 3.4893,10.2769 3.33132,10.4145 3.17335,10.5521 3.0217,10.6966 2.87005,10.841 2.72497,10.992 2.57989,11.143 2.44159,11.3004 2.3033,11.4577 2.17201,11.6212 q -0.1313,0.1635 -0.25539,0.3328 -0.12409,0.1694 -0.2408,0.3443 -0.1167,0.175 -0.22583,0.3553 -0.10913,0.1803 -0.21052,0.3656 -0.1014,0.1853 -0.1949,0.3755 Q 0.951075,13.5848 0.865612,13.7794 0.78015,13.974 0.702855,14.1728 0.625561,14.3715 0.556553,14.5742 0.487545,14.7769 0.42693,14.9831 0.366315,15.1893 0.314185,15.3988 0.262056,15.6083 0.218492,15.8207 0.174928,16.0331 0.139996,16.2481 0.105064,16.4632 0.0788181,16.6805 0.0525723,16.8977 0.0350527,17.117 0.0175331,17.3362 0.00876654,17.5571 0,17.7779 0,18 v 2 h 42 q 0.1025,0 0.2034,-0.0093 0.101,-0.0093 0.1995,-0.0279 0.0985,-0.0186 0.1938,-0.0462 0.0953,-0.0277 0.1866,-0.0642 0.0914,-0.0366 0.1779,-0.0816 0.0866,-0.0451 0.1678,-0.0985 0.0811,-0.0533 0.1562,-0.1143 0.075,-0.0611 0.1434,-0.1294 0.0683,-0.0684 0.1294,-0.1434 0.061,-0.0751 0.1144,-0.1562 0.0533,-0.0812 0.0984,-0.1678 0.0451,-0.0865 0.0816,-0.1779 0.0365,-0.0913 0.0642,-0.1866 0.0276,-0.0953 0.0462,-0.1938 0.0186,-0.0985 0.0279,-0.1995 Q 44,18.1025 44,18 V 8 H 38.9513 L 35.9346,4.96484 Q 35.6817,4.71037 35.4001,4.45984 35.1184,4.2093 34.8104,3.96474 34.5023,3.72017 34.1703,3.48358 33.8384,3.24698 33.4852,3.02029 33.132,2.79359 32.7606,2.57864 32.3891,2.36369 32.0023,2.16224 31.6155,1.96079 31.2166,1.77448 30.8177,1.58817 30.4099,1.41853 30.0021,1.24888 29.5887,1.09728 29.1754,0.945684 28.7598,0.813368 28.3443,0.681053 27.93,0.569099 27.5156,0.457145 27.1059,0.366466 26.6961,0.275787 26.2943,0.207122 25.8925,0.138458 25.5019,0.0923683 25.1112,0.0462785 24.735,0.0231393 24.3588,0 24,0 Z"
         transform="matrix(0.959147,-0.275031,0.275031,0.959147,151.542,96.0234)"
         stroke-miterlimit="4"
         inkscape:connector-curvature="0"
         style="fill:none;fill-rule:evenodd;stroke:#d1d7fa;stroke-width:6;stroke-miterlimit:4" />
    </g>
    <g
       id="g324"
       clip-path="url(#clip_35)">
      <path
         id="path322"
         d="m 0,6 c 0,3.31371 2.68629,6 6,6 3.31371,0 6,-2.68629 6,-6 C 12,2.68629 9.31371,0 6,0 2.68629,0 0,2.68629 0,6 Z M 8.8,6 C 8.8,7.5464 7.5464,8.8 6,8.8 4.4536,8.8 3.2,7.5464 3.2,6 3.2,4.4536 4.4536,3.2 6,3.2 7.5464,3.2 8.8,4.4536 8.8,6 Z"
         transform="matrix(0.959147,-0.275031,0.275031,0.959147,161.831,106.567)"
         inkscape:connector-curvature="0"
         style="fill:#d1d7fa;fill-rule:evenodd;stroke:none" />
    </g>
    <g
       id="g333"
       clip-path="url(#clip_36)">
      <path
         id="path331"
         d="m 0,6 c 0,3.31371 2.68629,6 6,6 3.31371,0 6,-2.68629 6,-6 C 12,2.68629 9.31371,0 6,0 2.68629,0 0,2.68629 0,6 Z M 8.8,6 C 8.8,7.5464 7.5464,8.8 6,8.8 4.4536,8.8 3.2,7.5464 3.2,6 3.2,4.4536 4.4536,3.2 6,3.2 7.5464,3.2 8.8,4.4536 8.8,6 Z"
         transform="matrix(0.959147,-0.275031,0.275031,0.959147,180.055,101.342)"
         inkscape:connector-curvature="0"
         style="fill:#d1d7fa;fill-rule:evenodd;stroke:none" />
    </g>
  </g>
</svg>
