<?xml version="1.0" encoding="UTF-8" standalone="no"?>
<svg
   xmlns:dc="http://purl.org/dc/elements/1.1/"
   xmlns:cc="http://creativecommons.org/ns#"
   xmlns:rdf="http://www.w3.org/1999/02/22-rdf-syntax-ns#"
   xmlns:svg="http://www.w3.org/2000/svg"
   xmlns="http://www.w3.org/2000/svg"
   xmlns:sodipodi="http://sodipodi.sourceforge.net/DTD/sodipodi-0.dtd"
   xmlns:inkscape="http://www.inkscape.org/namespaces/inkscape"
   width="100"
   height="100"
   version="1.1"
   id="svg11"
   sodipodi:docname="question-mark.svg"
   inkscape:version="0.92.3 (2405546, 2018-03-11)">
  <metadata
     id="metadata15">
    <rdf:RDF>
      <cc:Work
         rdf:about="">
        <dc:format>image/svg+xml</dc:format>
        <dc:type
           rdf:resource="http://purl.org/dc/dcmitype/StillImage" />
        <dc:title></dc:title>
      </cc:Work>
    </rdf:RDF>
  </metadata>
  <sodipodi:namedview
     pagecolor="#ffffff"
     bordercolor="#666666"
     borderopacity="1"
     objecttolerance="10"
     gridtolerance="10"
     guidetolerance="10"
     inkscape:pageopacity="0"
     inkscape:pageshadow="2"
     inkscape:window-width="2400"
     inkscape:window-height="1321"
     id="namedview13"
     showgrid="false"
     fit-margin-top="0"
     fit-margin-left="0"
     fit-margin-right="0"
     fit-margin-bottom="0"
     inkscape:zoom="8.7407407"
     inkscape:cx="13.5"
     inkscape:cy="13.5"
     inkscape:window-x="-9"
     inkscape:window-y="-5"
     inkscape:window-maximized="1"
     inkscape:current-layer="svg11" />
  <defs
     id="defs5">
    <clipPath
       id="clip_0">
      <rect
         x="-17"
         y="-330"
         width="375"
         height="667"
         id="rect2"
         style="clip-rule:evenodd" />
    </clipPath>
  </defs>
  <g
     id="g19"
     transform="scale(3.7037037)">
    <g
       id="g9"
       clip-path="url(#clip_0)">
      <path
         id="path7"
         d="M 0,13.5 C 0,6.075 6.075,0 13.5,0 20.925,0 27,6.075 27,13.5 27,20.925 20.925,27 13.5,27 6.075,27 0,20.925 0,13.5 Z m 1.03846,0 c 0,6.8538 5.60769,12.4615 12.46154,12.4615 6.8538,0 12.4615,-5.6077 12.4615,-12.4615 C 25.9615,6.64615 20.3538,1.03846 13.5,1.03846 6.64615,1.03846 1.03846,6.64615 1.03846,13.5 Z M 15.9923,7.425 C 15.6288,7.06154 15.2135,6.80192 14.7462,6.59423 14.2788,6.38654 13.7077,6.28269 13.1365,6.28269 q -0.9346,0 -1.7134,0.31154 c -0.5193,0.20769 -0.9866,0.51923 -1.35,0.88269 l 0.9346,0.98654 C 11.1635,8.30769 11.3192,8.20385 11.4231,8.1 l 0.4673,-0.31154 c 0.1558,-0.10384 0.3115,-0.15577 0.5192,-0.20769 0.2077,-0.05192 0.4154,-0.05192 0.6231,-0.05192 0.3635,0 0.7269,0.05192 1.0385,0.20769 0.3115,0.10384 0.5711,0.31154 0.8307,0.51923 0.2077,0.25961 0.4154,0.51923 0.5193,0.88269 0.1038,0.36346 0.2076,0.77885 0.2076,1.19424 0,0.3635 -0.0519,0.675 -0.1557,0.9865 -0.1039,0.2596 -0.2596,0.5193 -0.4154,0.727 -0.1558,0.2076 -0.3635,0.4153 -0.6231,0.5711 -0.2077,0.1558 -0.4673,0.3115 -0.675,0.5192 -0.2077,0.1558 -0.4673,0.3635 -0.675,0.5712 -0.2077,0.2077 -0.4154,0.4154 -0.6231,0.675 -0.1557,0.2596 -0.3115,0.5711 -0.4153,0.9346 -0.1039,0.3635 -0.1558,0.7789 -0.1558,1.2981 v 0.6231 h 1.4019 v -0.9347 c 0,-0.2596 0.0519,-0.5192 0.1039,-0.7269 0.1038,-0.3634 0.3115,-0.675 0.5192,-0.8827 0.2077,-0.2596 0.4673,-0.4673 0.7788,-0.675 0.2596,-0.2077 0.5712,-0.4154 0.8308,-0.623 0.2596,-0.2077 0.5192,-0.4674 0.7788,-0.7789 0.2077,-0.3115 0.4154,-0.6231 0.5712,-1.0385 0.1558,-0.4153 0.2077,-0.9346 0.2077,-1.5576 0,-0.51928 -0.1039,-0.98658 -0.2596,-1.45389 C 16.5635,8.15192 16.3038,7.73654 15.9923,7.425 Z m -3.0115,11.3192 c 0.1038,0.1039 0.2077,0.1558 0.3115,0.2596 0.1039,0.1039 0.1558,0.2077 0.2077,0.3116 0.0519,0.1038 0.0519,0.2596 0.0519,0.3634 0,0.1558 0,0.3116 -0.0519,0.4154 -0.0519,0.1039 -0.1038,0.2077 -0.2077,0.3116 -0.1038,0.1038 -0.2077,0.2077 -0.3115,0.2596 -0.1039,0.0519 -0.2077,0.1038 -0.3635,0.1038 -0.1558,0 -0.2596,0 -0.4154,-0.1038 -0.1038,-0.0519 -0.2077,-0.1039 -0.3115,-0.2077 -0.1039,-0.0519 -0.1558,-0.2077 -0.2077,-0.3115 -0.0519,-0.1558 -0.1039,-0.2597 -0.1039,-0.4154 0,-0.1558 0,-0.3116 0.052,-0.4154 0.0519,-0.1039 0.1038,-0.2077 0.2077,-0.3116 0.1038,-0.1038 0.2077,-0.2076 0.3115,-0.2596 0.1558,-0.0519 0.2596,-0.1038 0.4154,-0.1038 0.1558,0 0.3115,0.0519 0.4154,0.1038 z"
         inkscape:connector-curvature="0"
         style="fill:#979797;fill-rule:evenodd;stroke:none" />
    </g>
  </g>
</svg>
