<?xml version="1.0" encoding="UTF-8" standalone="no"?>
<svg
   xmlns:dc="http://purl.org/dc/elements/1.1/"
   xmlns:cc="http://creativecommons.org/ns#"
   xmlns:rdf="http://www.w3.org/1999/02/22-rdf-syntax-ns#"
   xmlns:svg="http://www.w3.org/2000/svg"
   xmlns="http://www.w3.org/2000/svg"
   xmlns:sodipodi="http://sodipodi.sourceforge.net/DTD/sodipodi-0.dtd"
   xmlns:inkscape="http://www.inkscape.org/namespaces/inkscape"
   width="100.00002"
   height="75.292953"
   version="1.1"
   id="svg425"
   sodipodi:docname="review.svg"
   inkscape:version="0.92.3 (2405546, 2018-03-11)">
  <metadata
     id="metadata429">
    <rdf:RDF>
      <cc:Work
         rdf:about="">
        <dc:format>image/svg+xml</dc:format>
        <dc:type
           rdf:resource="http://purl.org/dc/dcmitype/StillImage" />
        <dc:title></dc:title>
      </cc:Work>
    </rdf:RDF>
  </metadata>
  <sodipodi:namedview
     pagecolor="#ffffff"
     bordercolor="#666666"
     borderopacity="1"
     objecttolerance="10"
     gridtolerance="10"
     guidetolerance="10"
     inkscape:pageopacity="0"
     inkscape:pageshadow="2"
     inkscape:window-width="2400"
     inkscape:window-height="1321"
     id="namedview427"
     showgrid="false"
     fit-margin-top="0"
     fit-margin-left="0"
     fit-margin-right="0"
     fit-margin-bottom="0"
     inkscape:zoom="1.3258427"
     inkscape:cx="120.73746"
     inkscape:cy="88.500001"
     inkscape:window-x="-9"
     inkscape:window-y="-5"
     inkscape:window-maximized="1"
     inkscape:current-layer="svg425" />
  <defs
     id="defs5">
    <clipPath
       id="clip_0">
      <rect
         x="-73"
         y="-157"
         width="375"
         height="668"
         id="rect2"
         style="clip-rule:evenodd" />
    </clipPath>
  </defs>
  <defs
     id="defs14">
    <clipPath
       id="clip_1">
      <rect
         x="-73"
         y="-157"
         width="375"
         height="668"
         id="rect11"
         style="clip-rule:evenodd" />
    </clipPath>
  </defs>
  <defs
     id="defs23">
    <clipPath
       id="clip_2">
      <rect
         x="-73"
         y="-157"
         width="375"
         height="668"
         id="rect20"
         style="clip-rule:evenodd" />
    </clipPath>
  </defs>
  <defs
     id="defs32">
    <clipPath
       id="clip_3">
      <path
         d="M 152.245,32 H 71 q -0.3074,0 -0.6127,0.014 -0.3053,0.014 -0.6079,0.0419 -0.3026,0.028 -0.6019,0.0698 -0.2993,0.0419 -0.5947,0.0976 -0.2954,0.0556 -0.5863,0.125 -0.2909,0.0694 -0.5767,0.1523 -0.2858,0.083 -0.5659,0.1793 -0.2801,0.0963 -0.5539,0.2058 -0.2738,0.1096 -0.5408,0.2321 -0.267,0.1225 -0.5266,0.2577 -0.2597,0.1352 -0.5114,0.2829 -0.2517,0.1477 -0.4951,0.3075 -0.2433,0.1598 -0.4777,0.3315 -0.2344,0.1716 -0.4595,0.3547 -0.225,0.1832 -0.4402,0.3774 -0.2152,0.1942 -0.4201,0.3991 -0.2049,0.2049 -0.3991,0.4201 -0.1943,0.2152 -0.3774,0.4402 -0.1831,0.2251 -0.3547,0.4595 -0.1717,0.2344 -0.3315,0.4777 -0.1598,0.2433 -0.3075,0.4951 -0.1477,0.2517 -0.2829,0.5114 -0.1352,0.2596 -0.2577,0.5266 -0.1225,0.267 -0.232,0.5408 -0.1096,0.2738 -0.2059,0.5539 -0.0963,0.2801 -0.1793,0.5659 -0.0829,0.2858 -0.1523,0.5767 -0.0694,0.2909 -0.125,0.5863 -0.0557,0.2954 -0.0976,0.5947 -0.0418,0.2993 -0.0698,0.6019 Q 59.028,43.082 59.014,43.3873 59,43.6926 59,44 v 121.5 q 0,0.307 0.014,0.613 0.014,0.305 0.0419,0.608 0.028,0.302 0.0698,0.602 0.0419,0.299 0.0976,0.594 0.0556,0.296 0.125,0.587 0.0694,0.29 0.1523,0.576 0.083,0.286 0.1793,0.566 0.0963,0.28 0.2059,0.554 0.1095,0.274 0.232,0.541 0.1225,0.267 0.2577,0.526 0.1352,0.26 0.2829,0.512 0.1477,0.252 0.3075,0.495 0.1598,0.243 0.3315,0.478 0.1716,0.234 0.3547,0.459 0.1831,0.225 0.3774,0.44 0.1942,0.216 0.3991,0.42 0.2049,0.205 0.4201,0.4 0.2152,0.194 0.4402,0.377 0.2251,0.183 0.4595,0.355 0.2344,0.171 0.4777,0.331 0.2434,0.16 0.4951,0.308 0.2517,0.147 0.5114,0.283 0.2596,0.135 0.5266,0.257 0.267,0.123 0.5408,0.232 0.2738,0.11 0.5539,0.206 0.2801,0.096 0.5659,0.179 0.2858,0.083 0.5767,0.153 0.2909,0.069 0.5863,0.125 0.2954,0.055 0.5947,0.097 0.2993,0.042 0.6019,0.07 0.3026,0.028 0.6079,0.042 Q 70.6926,177.5 71,177.5 h 81.245 q 0.307,0 0.612,-0.014 0.306,-0.014 0.608,-0.042 0.303,-0.028 0.602,-0.07 0.3,-0.042 0.595,-0.097 0.295,-0.056 0.586,-0.125 0.291,-0.07 0.577,-0.153 0.286,-0.083 0.566,-0.179 0.28,-0.096 0.554,-0.206 0.274,-0.109 0.541,-0.232 0.267,-0.122 0.526,-0.257 0.26,-0.136 0.512,-0.283 0.251,-0.148 0.495,-0.308 0.243,-0.16 0.477,-0.331 0.235,-0.172 0.46,-0.355 0.225,-0.183 0.44,-0.377 0.215,-0.195 0.42,-0.4 0.205,-0.204 0.399,-0.42 0.195,-0.215 0.378,-0.44 0.183,-0.225 0.354,-0.459 0.172,-0.235 0.332,-0.478 0.16,-0.243 0.307,-0.495 0.148,-0.252 0.283,-0.512 0.136,-0.259 0.258,-0.526 0.122,-0.267 0.232,-0.541 0.11,-0.274 0.206,-0.554 0.096,-0.28 0.179,-0.566 0.083,-0.286 0.152,-0.576 0.07,-0.291 0.126,-0.587 0.055,-0.295 0.097,-0.594 0.042,-0.3 0.07,-0.602 0.028,-0.303 0.042,-0.608 0.014,-0.306 0.014,-0.613 V 44 q 0,-0.3074 -0.014,-0.6127 -0.014,-0.3053 -0.042,-0.6079 -0.028,-0.3026 -0.07,-0.6019 -0.042,-0.2993 -0.097,-0.5947 -0.056,-0.2954 -0.126,-0.5863 -0.069,-0.2909 -0.152,-0.5767 -0.083,-0.2858 -0.179,-0.5659 -0.096,-0.2801 -0.206,-0.5539 -0.11,-0.2738 -0.232,-0.5408 -0.122,-0.267 -0.258,-0.5266 -0.135,-0.2597 -0.283,-0.5114 -0.147,-0.2518 -0.307,-0.4951 -0.16,-0.2433 -0.332,-0.4777 -0.171,-0.2344 -0.354,-0.4595 -0.183,-0.225 -0.378,-0.4402 -0.194,-0.2152 -0.399,-0.4201 -0.205,-0.2049 -0.42,-0.3991 -0.215,-0.1942 -0.44,-0.3774 -0.225,-0.1831 -0.46,-0.3547 -0.234,-0.1717 -0.477,-0.3315 -0.244,-0.1598 -0.495,-0.3075 -0.252,-0.1477 -0.512,-0.2829 -0.259,-0.1352 -0.526,-0.2577 -0.267,-0.1225 -0.541,-0.2321 -0.274,-0.1095 -0.554,-0.2058 -0.28,-0.0963 -0.566,-0.1793 -0.286,-0.0829 -0.577,-0.1523 -0.291,-0.0694 -0.586,-0.125 -0.295,-0.0557 -0.595,-0.0976 -0.299,-0.0418 -0.602,-0.0698 Q 153.163,32.028 152.857,32.014 152.552,32 152.245,32 Z"
         id="path29"
         inkscape:connector-curvature="0"
         style="clip-rule:evenodd" />
    </clipPath>
  </defs>
  <defs
     id="defs41">
    <clipPath
       id="clip_4">
      <rect
         x="-73"
         y="-157"
         width="375"
         height="668"
         id="rect38"
         style="clip-rule:evenodd" />
    </clipPath>
  </defs>
  <defs
     id="defs50">
    <clipPath
       id="clip_5">
      <rect
         x="-73"
         y="-157"
         width="375"
         height="668"
         id="rect47"
         style="clip-rule:evenodd" />
    </clipPath>
  </defs>
  <defs
     id="defs59">
    <clipPath
       id="clip_6">
      <rect
         x="-73"
         y="-157"
         width="375"
         height="668"
         id="rect56"
         style="clip-rule:evenodd" />
    </clipPath>
  </defs>
  <defs
     id="defs68">
    <clipPath
       id="clip_7">
      <rect
         x="-73"
         y="-157"
         width="375"
         height="668"
         id="rect65"
         style="clip-rule:evenodd" />
    </clipPath>
  </defs>
  <defs
     id="defs77">
    <clipPath
       id="clip_8">
      <rect
         x="-73"
         y="-157"
         width="375"
         height="668"
         id="rect74"
         style="clip-rule:evenodd" />
    </clipPath>
  </defs>
  <defs
     id="defs86">
    <clipPath
       id="clip_9">
      <rect
         x="-73"
         y="-157"
         width="375"
         height="668"
         id="rect83"
         style="clip-rule:evenodd" />
    </clipPath>
  </defs>
  <defs
     id="defs95">
    <clipPath
       id="clip_10">
      <rect
         x="-73"
         y="-157"
         width="375"
         height="668"
         id="rect92"
         style="clip-rule:evenodd" />
    </clipPath>
  </defs>
  <defs
     id="defs104">
    <clipPath
       id="clip_11">
      <rect
         x="-73"
         y="-157"
         width="375"
         height="668"
         id="rect101"
         style="clip-rule:evenodd" />
    </clipPath>
  </defs>
  <defs
     id="defs113">
    <clipPath
       id="clip_12">
      <rect
         x="-73"
         y="-157"
         width="375"
         height="668"
         id="rect110"
         style="clip-rule:evenodd" />
    </clipPath>
  </defs>
  <defs
     id="defs122">
    <clipPath
       id="clip_13">
      <path
         d="m 201.711,130.005 -29.032,-42.3891 -16.748,12.7511 28.97,42.305 c 3.49,4.631 10.082,5.55 14.724,2.052 4.642,-3.498 5.576,-10.088 2.086,-14.719 z"
         id="path119"
         inkscape:connector-curvature="0"
         style="clip-rule:evenodd" />
    </clipPath>
  </defs>
  <defs
     id="defs131">
    <clipPath
       id="clip_14">
      <rect
         x="-73"
         y="-157"
         width="375"
         height="668"
         id="rect128"
         style="clip-rule:evenodd" />
    </clipPath>
  </defs>
  <defs
     id="defs140">
    <clipPath
       id="clip_15">
      <rect
         x="-73"
         y="-157"
         width="375"
         height="668"
         id="rect137"
         style="clip-rule:evenodd" />
    </clipPath>
  </defs>
  <defs
     id="defs149">
    <clipPath
       id="clip_16">
      <rect
         x="-73"
         y="-157"
         width="375"
         height="668"
         id="rect146"
         style="clip-rule:evenodd" />
    </clipPath>
  </defs>
  <defs
     id="defs158">
    <clipPath
       id="clip_17">
      <rect
         x="-73"
         y="-157"
         width="375"
         height="668"
         id="rect155"
         style="clip-rule:evenodd" />
    </clipPath>
  </defs>
  <defs
     id="defs167">
    <clipPath
       id="clip_18">
      <rect
         x="-73"
         y="-157"
         width="375"
         height="668"
         id="rect164"
         style="clip-rule:evenodd" />
    </clipPath>
  </defs>
  <defs
     id="defs176">
    <clipPath
       id="clip_19">
      <rect
         x="-73"
         y="-157"
         width="375"
         height="668"
         id="rect173"
         style="clip-rule:evenodd" />
    </clipPath>
  </defs>
  <defs
     id="defs185">
    <clipPath
       id="clip_20">
      <rect
         x="-73"
         y="-157"
         width="375"
         height="668"
         id="rect182"
         style="clip-rule:evenodd" />
    </clipPath>
  </defs>
  <defs
     id="defs194">
    <clipPath
       id="clip_21">
      <rect
         x="-73"
         y="-157"
         width="375"
         height="668"
         id="rect191"
         style="clip-rule:evenodd" />
    </clipPath>
  </defs>
  <defs
     id="defs203">
    <clipPath
       id="clip_22">
      <rect
         x="-73"
         y="-157"
         width="375"
         height="668"
         id="rect200"
         style="clip-rule:evenodd" />
    </clipPath>
  </defs>
  <defs
     id="defs212">
    <clipPath
       id="clip_23">
      <rect
         x="-73"
         y="-157"
         width="375"
         height="668"
         id="rect209"
         style="clip-rule:evenodd" />
    </clipPath>
  </defs>
  <defs
     id="defs221">
    <clipPath
       id="clip_24">
      <rect
         x="-73"
         y="-157"
         width="375"
         height="668"
         id="rect218"
         style="clip-rule:evenodd" />
    </clipPath>
  </defs>
  <defs
     id="defs230">
    <clipPath
       id="clip_25">
      <rect
         x="-73"
         y="-157"
         width="375"
         height="668"
         id="rect227"
         style="clip-rule:evenodd" />
    </clipPath>
  </defs>
  <defs
     id="defs239">
    <clipPath
       id="clip_26">
      <rect
         x="-73"
         y="-157"
         width="375"
         height="668"
         id="rect236"
         style="clip-rule:evenodd" />
    </clipPath>
  </defs>
  <defs
     id="defs248">
    <clipPath
       id="clip_27">
      <rect
         x="-73"
         y="-157"
         width="375"
         height="668"
         id="rect245"
         style="clip-rule:evenodd" />
    </clipPath>
  </defs>
  <defs
     id="defs257">
    <clipPath
       id="clip_28">
      <path
         d="M -73,-157 H 302 V 511 H -73 Z M 204.602,91.479 c 0.467,1.0011 0.03,2.193 -0.976,2.6623 -1.007,0.4692 -2.201,0.0381 -2.668,-0.963 -0.467,-1.0011 -0.029,-2.193 0.977,-2.6623 1.006,-0.4692 2.201,-0.0381 2.667,0.963 z"
         id="path254"
         inkscape:connector-curvature="0"
         style="clip-rule:evenodd" />
    </clipPath>
  </defs>
  <defs
     id="defs266">
    <clipPath
       id="clip_29">
      <rect
         x="-73"
         y="-157"
         width="375"
         height="668"
         id="rect263"
         style="clip-rule:evenodd" />
    </clipPath>
  </defs>
  <defs
     id="defs275">
    <clipPath
       id="clip_30">
      <rect
         x="-73"
         y="-157"
         width="375"
         height="668"
         id="rect272"
         style="clip-rule:evenodd" />
    </clipPath>
  </defs>
  <defs
     id="defs284">
    <clipPath
       id="clip_31">
      <path
         d="M -73,-157 H 302 V 511 H -73 Z M 218.156,94.1734 c 0.916,0.6177 1.155,1.8646 0.534,2.7852 -0.621,0.9205 -1.867,1.166 -2.782,0.5484 -0.916,-0.6177 -1.155,-1.8647 -0.534,-2.7852 0.621,-0.9205 1.866,-1.1661 2.782,-0.5484 z"
         id="path281"
         inkscape:connector-curvature="0"
         style="clip-rule:evenodd" />
    </clipPath>
  </defs>
  <defs
     id="defs293">
    <clipPath
       id="clip_32">
      <rect
         x="-73"
         y="-157"
         width="375"
         height="668"
         id="rect290"
         style="clip-rule:evenodd" />
    </clipPath>
  </defs>
  <defs
     id="defs302">
    <clipPath
       id="clip_33">
      <rect
         x="-73"
         y="-157"
         width="375"
         height="668"
         id="rect299"
         style="clip-rule:evenodd" />
    </clipPath>
  </defs>
  <defs
     id="defs311">
    <clipPath
       id="clip_34">
      <path
         d="M -73,-157 H 302 V 511 H -73 Z M 21.5672,93.4056 c 0.256,0.7879 -0.1752,1.6341 -0.963,1.8901 -0.7879,0.256 -1.6342,-0.1751 -1.8902,-0.963 -0.256,-0.7879 0.1752,-1.6341 0.9631,-1.8901 0.7879,-0.256 1.6341,0.1751 1.8901,0.963 z"
         id="path308"
         inkscape:connector-curvature="0"
         style="clip-rule:evenodd" />
    </clipPath>
  </defs>
  <defs
     id="defs320">
    <clipPath
       id="clip_35">
      <rect
         x="-73"
         y="-157"
         width="375"
         height="668"
         id="rect317"
         style="clip-rule:evenodd" />
    </clipPath>
  </defs>
  <defs
     id="defs329">
    <clipPath
       id="clip_36">
      <path
         d="M -73,-157 H 302 V 511 H -73 Z M 35.0605,77.9658 q -0.0673,-0.3815 -0.2112,-0.7431 -0.1439,-0.3616 -0.3597,-0.6915 -0.2159,-0.3298 -0.4967,-0.6173 -0.2807,-0.2875 -0.6173,-0.5231 -0.3366,-0.2357 -0.7027,-0.4012 -0.3662,-0.1655 -0.75,-0.2556 -0.3838,-0.09 -0.7728,-0.1015 -0.389,-0.0116 -0.7705,0.0557 -0.3814,0.0672 -0.743,0.2111 -0.3616,0.1439 -0.6915,0.3598 -0.3298,0.2159 -0.6173,0.4966 -0.2875,0.2808 -0.5231,0.6174 L 16.9067,91.937 q -0.1176,0.1679 -0.2181,0.344 -0.1005,0.176 -0.1831,0.3587 -0.0826,0.1827 -0.1466,0.3706 -0.064,0.1879 -0.1089,0.3794 -0.0449,0.1915 -0.0704,0.3851 -0.0254,0.1936 -0.0312,0.3877 -0.0058,0.1941 0.0082,0.3871 0.0139,0.193 0.0475,0.3833 0.0336,0.1904 0.0865,0.3765 0.0529,0.1862 0.1247,0.3666 0.0718,0.1804 0.1619,0.3536 0.0901,0.1733 0.1978,0.3378 0.1078,0.1647 0.2322,0.3193 0.1244,0.1546 0.2645,0.2981 0.1401,0.1434 0.2947,0.2745 0.1547,0.131 0.3226,0.2486 0.3366,0.2357 0.7027,0.4012 0.3662,0.1655 0.75,0.2555 0.3838,0.09 0.7728,0.1016 0.389,0.0116 0.7705,-0.0557 0.3815,-0.0673 0.743,-0.2112 0.3616,-0.1439 0.6915,-0.3597 0.3299,-0.2159 0.6173,-0.4967 0.2875,-0.2807 0.5231,-0.6173 l 10.898,-15.5639 q 0.2357,-0.3366 0.4012,-0.7027 0.1655,-0.3662 0.2555,-0.75 0.0901,-0.3838 0.1016,-0.7728 0.0116,-0.389 -0.0557,-0.7704 z"
         id="path326"
         inkscape:connector-curvature="0"
         style="clip-rule:evenodd" />
    </clipPath>
  </defs>
  <defs
     id="defs338">
    <clipPath
       id="clip_37">
      <rect
         x="-73"
         y="-157"
         width="375"
         height="668"
         id="rect335"
         style="clip-rule:evenodd" />
    </clipPath>
  </defs>
  <defs
     id="defs347">
    <clipPath
       id="clip_38">
      <rect
         x="-73"
         y="-157"
         width="375"
         height="668"
         id="rect344"
         style="clip-rule:evenodd" />
    </clipPath>
  </defs>
  <defs
     id="defs356">
    <clipPath
       id="clip_39">
      <rect
         x="-73"
         y="-157"
         width="375"
         height="668"
         id="rect353"
         style="clip-rule:evenodd" />
    </clipPath>
  </defs>
  <defs
     id="defs365">
    <clipPath
       id="clip_40">
      <rect
         x="-73"
         y="-157"
         width="375"
         height="668"
         id="rect362"
         style="clip-rule:evenodd" />
    </clipPath>
  </defs>
  <defs
     id="defs374">
    <clipPath
       id="clip_41">
      <rect
         x="-73"
         y="-157"
         width="375"
         height="668"
         id="rect371"
         style="clip-rule:evenodd" />
    </clipPath>
  </defs>
  <defs
     id="defs383">
    <clipPath
       id="clip_42">
      <path
         d="m 116,137 h 1 q 0.359,0 0.735,0.023 0.376,0.023 0.767,0.069 0.391,0.046 0.792,0.115 0.402,0.069 0.812,0.159 0.41,0.091 0.824,0.203 0.414,0.112 0.83,0.244 0.415,0.133 0.829,0.284 0.413,0.152 0.821,0.322 0.408,0.169 0.807,0.355 0.399,0.187 0.785,0.388 0.387,0.202 0.759,0.417 0.371,0.215 0.724,0.441 0.353,0.227 0.685,0.464 0.332,0.236 0.64,0.481 0.308,0.244 0.59,0.495 0.282,0.25 0.535,0.505 L 131.951,145 H 137 v 10 q 0,0.103 -0.009,0.203 -0.01,0.101 -0.028,0.2 -0.019,0.098 -0.046,0.194 -0.028,0.095 -0.065,0.186 -0.036,0.092 -0.081,0.178 -0.045,0.087 -0.099,0.168 -0.053,0.081 -0.114,0.156 -0.061,0.075 -0.129,0.144 -0.069,0.068 -0.144,0.129 -0.075,0.061 -0.156,0.114 -0.081,0.054 -0.168,0.099 -0.086,0.045 -0.178,0.081 -0.091,0.037 -0.186,0.065 -0.096,0.027 -0.194,0.046 -0.099,0.018 -0.2,0.028 Q 135.103,157 135,157 H 93 v -2 q 0,-0.222 0.0088,-0.443 0.0087,-0.221 0.0262,-0.44 0.0176,-0.219 0.0438,-0.437 0.0263,-0.217 0.0612,-0.432 0.0349,-0.215 0.0785,-0.427 0.0436,-0.213 0.0957,-0.422 0.0521,-0.21 0.1127,-0.416 0.0606,-0.206 0.1296,-0.409 0.069,-0.202 0.1464,-0.401 0.0773,-0.199 0.1627,-0.394 0.0855,-0.194 0.179,-0.384 0.0935,-0.19 0.1949,-0.376 0.1014,-0.185 0.2105,-0.365 0.1091,-0.181 0.2258,-0.356 0.1167,-0.175 0.2408,-0.344 0.1241,-0.169 0.2554,-0.333 0.1313,-0.163 0.2696,-0.321 0.1383,-0.157 0.2834,-0.308 0.1451,-0.151 0.2967,-0.295 0.1517,-0.145 0.3096,-0.282 0.158,-0.138 0.3221,-0.269 0.164,-0.13 0.334,-0.254 0.1698,-0.123 0.3453,-0.239 0.1755,-0.116 0.3563,-0.224 0.1808,-0.109 0.3666,-0.209 0.1859,-0.101 0.3764,-0.194 0.1906,-0.092 0.3856,-0.177 0.1951,-0.085 0.3942,-0.161 0.1992,-0.077 0.4022,-0.145 0.2031,-0.068 0.41,-0.128 0.206,-0.06 0.416,-0.111 0.21,-0.051 0.422,-0.094 l 3.21,-3.238 q 0.253,-0.255 0.534,-0.506 0.281,-0.251 0.589,-0.496 0.308,-0.245 0.639,-0.482 0.332,-0.237 0.685,-0.464 0.353,-0.227 0.724,-0.442 0.371,-0.215 0.758,-0.417 0.386,-0.202 0.785,-0.388 0.399,-0.187 0.806,-0.357 0.408,-0.169 0.821,-0.321 0.413,-0.152 0.828,-0.285 0.416,-0.132 0.83,-0.244 0.414,-0.112 0.824,-0.203 0.409,-0.091 0.811,-0.16 0.402,-0.068 0.792,-0.115 0.391,-0.046 0.767,-0.069 Q 115.641,137 116,137 Z"
         id="path380"
         inkscape:connector-curvature="0"
         style="clip-rule:evenodd" />
    </clipPath>
  </defs>
  <defs
     id="defs392">
    <clipPath
       id="clip_43">
      <rect
         x="-73"
         y="-157"
         width="375"
         height="668"
         id="rect389"
         style="clip-rule:evenodd" />
    </clipPath>
  </defs>
  <defs
     id="defs401">
    <clipPath
       id="clip_44">
      <path
         d="m 112,156 c 0,3.314 -2.686,6 -6,6 -3.314,0 -6,-2.686 -6,-6 0,-3.314 2.686,-6 6,-6 3.314,0 6,2.686 6,6 z"
         id="path398"
         inkscape:connector-curvature="0"
         style="clip-rule:evenodd" />
    </clipPath>
  </defs>
  <defs
     id="defs410">
    <clipPath
       id="clip_45">
      <rect
         x="-73"
         y="-157"
         width="375"
         height="668"
         id="rect407"
         style="clip-rule:evenodd" />
    </clipPath>
  </defs>
  <defs
     id="defs419">
    <clipPath
       id="clip_46">
      <path
         d="m 131,156 c 0,3.314 -2.686,6 -6,6 -3.314,0 -6,-2.686 -6,-6 0,-3.314 2.686,-6 6,-6 3.314,0 6,2.686 6,6 z"
         id="path416"
         inkscape:connector-curvature="0"
         style="clip-rule:evenodd" />
    </clipPath>
  </defs>
  <g
     id="g525"
     transform="matrix(0.4182942,0,0,0.4182942,-0.52809686,1.0457355)">
    <g
       id="g9"
       clip-path="url(#clip_0)">
      <path
         id="path7"
         d="m 84.4615,169.225 c 46.6465,0 84.4615,-37.882 84.4615,-84.6123 C 168.923,37.8824 131.108,0 84.4615,0 37.8147,0 0,37.8824 0,84.6127 0,131.343 37.8147,169.225 84.4615,169.225 Z"
         transform="translate(30)"
         inkscape:connector-curvature="0"
         style="fill:#eff2ff;stroke:none" />
    </g>
    <g
       id="g18"
       clip-path="url(#clip_1)">
      <path
         id="path16"
         d="m 84.4615,169.225 c 46.6465,0 84.4615,-37.882 84.4615,-84.6123 C 168.923,37.8824 131.108,0 84.4615,0 37.8147,0 0,37.8824 0,84.6127 0,131.343 37.8147,169.225 84.4615,169.225 Z"
         transform="translate(30)"
         stroke-miterlimit="4"
         inkscape:connector-curvature="0"
         style="fill:none;stroke:#ffffff;stroke-width:5;stroke-miterlimit:4" />
    </g>
    <g
       id="g27"
       clip-path="url(#clip_2)">
      <path
         id="path25"
         d="m 12,0 h 81.2448 q 0.3073,0 0.6126,0.013989 0.3053,0.013989 0.608,0.0419385 0.3026,0.0279494 0.6019,0.0698025 0.2993,0.041853 0.5947,0.097524 0.2954,0.055671 0.5863,0.125046 0.2909,0.069376 0.5767,0.152314 0.2857,0.082938 0.5658,0.179271 0.2801,0.096332 0.5539,0.205861 0.2739,0.10953 0.5409,0.232034 0.267,0.1225 0.5266,0.25773 0.2596,0.13523 0.5114,0.2829 0.2517,0.14768 0.4954,0.3075 0.243,0.15982 0.477,0.33146 0.235,0.17165 0.46,0.35476 0.225,0.18311 0.44,0.37732 0.215,0.19421 0.42,0.39912 0.205,0.20491 0.399,0.42011 0.195,0.21519 0.378,0.44023 0.183,0.22503 0.354,0.45946 0.172,0.23442 0.332,0.47775 0.16,0.24332 0.307,0.49506 0.148,0.25174 0.283,0.51138 0.135,0.25963 0.258,0.52663 0.122,0.267 0.232,0.54083 0.11,0.27382 0.206,0.55391 0.096,0.28008 0.179,0.56586 0.083,0.28578 0.152,0.57667 0.07,0.29089 0.125,0.58629 0.056,0.29541 0.098,0.59475 0.042,0.2993 0.07,0.6019 0.028,0.3026 0.042,0.6079 0.014,0.3053 0.014,0.6127 v 121.5 q 0,0.307 -0.014,0.613 -0.014,0.305 -0.042,0.608 -0.028,0.302 -0.07,0.602 -0.042,0.299 -0.098,0.594 -0.055,0.296 -0.125,0.587 -0.069,0.29 -0.152,0.576 -0.083,0.286 -0.179,0.566 -0.096,0.28 -0.206,0.554 -0.11,0.274 -0.232,0.541 -0.123,0.267 -0.258,0.526 -0.135,0.26 -0.283,0.512 -0.147,0.252 -0.307,0.495 -0.16,0.243 -0.332,0.478 -0.171,0.234 -0.354,0.459 -0.183,0.225 -0.378,0.44 -0.194,0.216 -0.399,0.42 -0.205,0.205 -0.42,0.4 -0.215,0.194 -0.44,0.377 -0.225,0.183 -0.46,0.355 -0.234,0.171 -0.477,0.331 -0.2437,0.16 -0.4954,0.308 -0.2518,0.147 -0.5114,0.283 -0.2596,0.135 -0.5266,0.257 -0.267,0.123 -0.5409,0.232 -0.2738,0.11 -0.5539,0.206 -0.2801,0.096 -0.5658,0.179 -0.2858,0.083 -0.5767,0.153 -0.2909,0.069 -0.5863,0.125 -0.2954,0.055 -0.5947,0.097 -0.2993,0.042 -0.6019,0.07 -0.3027,0.028 -0.608,0.042 -0.3053,0.014 -0.6126,0.014 H 12 q -0.3074,0 -0.6127,-0.014 -0.3053,-0.014 -0.6079,-0.042 -0.3026,-0.028 -0.6019,-0.07 -0.29934,-0.042 -0.59475,-0.097 -0.2954,-0.056 -0.58629,-0.125 -0.29089,-0.07 -0.57667,-0.153 -0.28578,-0.083 -0.56586,-0.179 -0.28009,-0.096 -0.55391,-0.206 -0.27383,-0.109 -0.54083,-0.232 -0.267,-0.122 -0.52663,-0.257 -0.25964,-0.136 -0.51138,-0.283 -0.25174,-0.148 -0.49506,-0.308 -0.24333,-0.16 -0.47775,-0.331 -0.23443,-0.172 -0.45946,-0.355 -0.22504,-0.183 -0.44023,-0.377 -0.2152,-0.195 -0.42011,-0.4 -0.20491,-0.204 -0.39912,-0.42 -0.19421,-0.215 -0.37732,-0.44 -0.18311,-0.225 -0.35476,-0.459 -0.17164,-0.235 -0.33146,-0.478 -0.15982,-0.243 -0.3075,-0.495 -0.14767,-0.252 -0.2829,-0.512 Q 1.24028,139.008 1.11778,138.741 0.995276,138.474 0.885746,138.2 0.776217,137.926 0.679885,137.646 0.583552,137.366 0.500614,137.08 0.417676,136.794 0.3483,136.504 0.278925,136.213 0.223254,135.917 0.167583,135.622 0.12573,135.323 0.0838769,135.023 0.0559275,134.721 0.027978,134.418 0.013989,134.113 0,133.807 0,133.5 V 12 Q 0,11.6926 0.013989,11.3873 0.027978,11.082 0.0559275,10.7794 0.0838769,10.4768 0.12573,10.1775 0.167583,9.87816 0.223254,9.58275 0.278925,9.28735 0.3483,8.99646 0.417676,8.70557 0.500614,8.41979 0.583552,8.13401 0.679885,7.85393 0.776217,7.57384 0.885746,7.30002 0.995276,7.02619 1.11778,6.75919 1.24028,6.49219 1.37551,6.23256 1.51074,5.97292 1.65841,5.72118 1.80609,5.46944 1.96591,5.22612 2.12573,4.98279 2.29737,4.74837 2.46902,4.51394 2.65213,4.28891 2.83524,4.06387 3.02945,3.84868 3.22366,3.63348 3.42857,3.42857 3.63348,3.22366 3.84868,3.02945 4.06387,2.83524 4.28891,2.65213 4.51394,2.46902 4.74837,2.29737 4.98279,2.12573 5.22612,1.96591 5.46944,1.80609 5.72118,1.65841 5.97292,1.51074 6.23256,1.37551 6.49219,1.24028 6.75919,1.11778 7.02619,0.995276 7.30002,0.885746 7.57384,0.776217 7.85393,0.679885 8.13401,0.583552 8.41979,0.500614 8.70557,0.417676 8.99646,0.3483 9.28735,0.278925 9.58275,0.223254 9.87816,0.167583 10.1775,0.12573 10.4768,0.0838769 10.7794,0.0559275 11.082,0.027978 11.3873,0.013989 11.6926,0 12,0 Z"
         transform="translate(59,32)"
         inkscape:connector-curvature="0"
         style="fill:#f9faff;stroke:none" />
    </g>
    <g
       id="g36"
       clip-path="url(#clip_3)">
      <path
         id="path34"
         d="m 12,0 h 81.2448 q 0.3073,0 0.6126,0.013989 0.3053,0.013989 0.608,0.0419385 0.3026,0.0279494 0.6019,0.0698025 0.2993,0.041853 0.5947,0.097524 0.2954,0.055671 0.5863,0.125046 0.2909,0.069376 0.5767,0.152314 0.2857,0.082938 0.5658,0.179271 0.2801,0.096332 0.5539,0.205861 0.2739,0.10953 0.5409,0.232034 0.267,0.1225 0.5266,0.25773 0.2596,0.13523 0.5114,0.2829 0.2517,0.14768 0.4954,0.3075 0.243,0.15982 0.477,0.33146 0.235,0.17165 0.46,0.35476 0.225,0.18311 0.44,0.37732 0.215,0.19421 0.42,0.39912 0.205,0.20491 0.399,0.42011 0.195,0.21519 0.378,0.44023 0.183,0.22503 0.354,0.45946 0.172,0.23442 0.332,0.47775 0.16,0.24332 0.307,0.49506 0.148,0.25174 0.283,0.51138 0.135,0.25963 0.258,0.52663 0.122,0.267 0.232,0.54083 0.11,0.27382 0.206,0.55391 0.096,0.28008 0.179,0.56586 0.083,0.28578 0.152,0.57667 0.07,0.29089 0.125,0.58629 0.056,0.29541 0.098,0.59475 0.042,0.2993 0.07,0.6019 0.028,0.3026 0.042,0.6079 0.014,0.3053 0.014,0.6127 v 121.5 q 0,0.307 -0.014,0.613 -0.014,0.305 -0.042,0.608 -0.028,0.302 -0.07,0.602 -0.042,0.299 -0.098,0.594 -0.055,0.296 -0.125,0.587 -0.069,0.29 -0.152,0.576 -0.083,0.286 -0.179,0.566 -0.096,0.28 -0.206,0.554 -0.11,0.274 -0.232,0.541 -0.123,0.267 -0.258,0.526 -0.135,0.26 -0.283,0.512 -0.147,0.252 -0.307,0.495 -0.16,0.243 -0.332,0.478 -0.171,0.234 -0.354,0.459 -0.183,0.225 -0.378,0.44 -0.194,0.216 -0.399,0.42 -0.205,0.205 -0.42,0.4 -0.215,0.194 -0.44,0.377 -0.225,0.183 -0.46,0.355 -0.234,0.171 -0.477,0.331 -0.2437,0.16 -0.4954,0.308 -0.2518,0.147 -0.5114,0.283 -0.2596,0.135 -0.5266,0.257 -0.267,0.123 -0.5409,0.232 -0.2738,0.11 -0.5539,0.206 -0.2801,0.096 -0.5658,0.179 -0.2858,0.083 -0.5767,0.153 -0.2909,0.069 -0.5863,0.125 -0.2954,0.055 -0.5947,0.097 -0.2993,0.042 -0.6019,0.07 -0.3027,0.028 -0.608,0.042 -0.3053,0.014 -0.6126,0.014 H 12 q -0.3074,0 -0.6127,-0.014 -0.3053,-0.014 -0.6079,-0.042 -0.3026,-0.028 -0.6019,-0.07 -0.29934,-0.042 -0.59475,-0.097 -0.2954,-0.056 -0.58629,-0.125 -0.29089,-0.07 -0.57667,-0.153 -0.28578,-0.083 -0.56586,-0.179 -0.28009,-0.096 -0.55391,-0.206 -0.27383,-0.109 -0.54083,-0.232 -0.267,-0.122 -0.52663,-0.257 -0.25964,-0.136 -0.51138,-0.283 -0.25174,-0.148 -0.49506,-0.308 -0.24333,-0.16 -0.47775,-0.331 -0.23443,-0.172 -0.45946,-0.355 -0.22504,-0.183 -0.44023,-0.377 -0.2152,-0.195 -0.42011,-0.4 -0.20491,-0.204 -0.39912,-0.42 -0.19421,-0.215 -0.37732,-0.44 -0.18311,-0.225 -0.35476,-0.459 -0.17164,-0.235 -0.33146,-0.478 -0.15982,-0.243 -0.3075,-0.495 -0.14767,-0.252 -0.2829,-0.512 Q 1.24028,139.008 1.11778,138.741 0.995276,138.474 0.885746,138.2 0.776217,137.926 0.679885,137.646 0.583552,137.366 0.500614,137.08 0.417676,136.794 0.3483,136.504 0.278925,136.213 0.223254,135.917 0.167583,135.622 0.12573,135.323 0.0838769,135.023 0.0559275,134.721 0.027978,134.418 0.013989,134.113 0,133.807 0,133.5 V 12 Q 0,11.6926 0.013989,11.3873 0.027978,11.082 0.0559275,10.7794 0.0838769,10.4768 0.12573,10.1775 0.167583,9.87816 0.223254,9.58275 0.278925,9.28735 0.3483,8.99646 0.417676,8.70557 0.500614,8.41979 0.583552,8.13401 0.679885,7.85393 0.776217,7.57384 0.885746,7.30002 0.995276,7.02619 1.11778,6.75919 1.24028,6.49219 1.37551,6.23256 1.51074,5.97292 1.65841,5.72118 1.80609,5.46944 1.96591,5.22612 2.12573,4.98279 2.29737,4.74837 2.46902,4.51394 2.65213,4.28891 2.83524,4.06387 3.02945,3.84868 3.22366,3.63348 3.42857,3.42857 3.63348,3.22366 3.84868,3.02945 4.06387,2.83524 4.28891,2.65213 4.51394,2.46902 4.74837,2.29737 4.98279,2.12573 5.22612,1.96591 5.46944,1.80609 5.72118,1.65841 5.97292,1.51074 6.23256,1.37551 6.49219,1.24028 6.75919,1.11778 7.02619,0.995276 7.30002,0.885746 7.57384,0.776217 7.85393,0.679885 8.13401,0.583552 8.41979,0.500614 8.70557,0.417676 8.99646,0.3483 9.28735,0.278925 9.58275,0.223254 9.87816,0.167583 10.1775,0.12573 10.4768,0.0838769 10.7794,0.0559275 11.082,0.027978 11.3873,0.013989 11.6926,0 12,0 Z"
         transform="translate(59,32)"
         stroke-miterlimit="4"
         inkscape:connector-curvature="0"
         style="fill:none;stroke:#6f82f8;stroke-width:9;stroke-miterlimit:4" />
    </g>
    <g
       id="g45"
       clip-path="url(#clip_4)">
      <path
         id="path43"
         d="m 3.75,0 h 30.0874 q 0.1922,0 0.3815,0.0174773 0.1892,0.0174774 0.3739,0.0522895 0.1847,0.0348122 0.3634,0.0866752 0.1787,0.051863 0.35,0.120354 0.1712,0.068491 0.3336,0.153051 0.1623,0.08456 0.3145,0.184499 0.1521,0.09994 0.2928,0.214444 0.1408,0.114504 0.2689,0.24264 0.1281,0.12813 0.2426,0.26885 0.1145,0.14072 0.2145,0.29288 0.0999,0.15216 0.1845,0.31451 0.0845,0.16236 0.153,0.33359 0.0685,0.17122 0.1204,0.34993 0.0518,0.1787 0.0867,0.36342 0.0348,0.18472 0.0522,0.37395 0.0175,0.18924 0.0175,0.38144 v 0 q 0,0.1922 -0.0175,0.38144 -0.0174,0.18923 -0.0522,0.37395 -0.0349,0.18472 -0.0867,0.36343 -0.0519,0.1787 -0.1204,0.34993 -0.0685,0.17122 -0.153,0.33358 -0.0846,0.16235 -0.1845,0.31451 -0.1,0.15216 -0.2145,0.29288 -0.1145,0.14072 -0.2426,0.26885 -0.1281,0.12814 -0.2689,0.24264 -0.1407,0.1145 -0.2928,0.21444 -0.1522,0.09994 -0.3145,0.1845 -0.1624,0.08456 -0.3336,0.15305 -0.1713,0.0685 -0.35,0.12036 Q 34.7775,7.39542 34.5928,7.43023 34.4081,7.46505 34.2189,7.48252 34.0296,7.5 33.8374,7.5 H 3.75 Q 3.5578,7.5 3.36856,7.48252 3.17933,7.46505 2.99461,7.43023 2.80989,7.39542 2.63119,7.34356 2.45248,7.2917 2.28126,7.2232 2.11003,7.15471 1.94767,7.07015 1.78532,6.98559 1.63316,6.88565 1.481,6.78571 1.34028,6.67121 1.19956,6.55671 1.07143,6.42857 0.943294,6.30044 0.82879,6.15972 0.714286,6.019 0.614346,5.86684 0.514407,5.71468 0.429847,5.55233 0.345287,5.38997 0.276796,5.21875 0.208305,5.04752 0.156442,4.86881 0.104579,4.69011 0.0697668,4.50539 0.0349547,4.32067 0.0174773,4.13144 0,3.9422 0,3.75 v 0 Q 0,3.5578 0.0174773,3.36856 0.0349547,3.17933 0.0697668,2.99461 0.104579,2.80989 0.156442,2.63119 0.208305,2.45248 0.276796,2.28126 0.345287,2.11003 0.429847,1.94767 0.514407,1.78532 0.614346,1.63316 0.714286,1.481 0.82879,1.34028 0.943294,1.19956 1.07143,1.07143 1.19956,0.943294 1.34028,0.82879 1.481,0.714286 1.63316,0.614346 1.78532,0.514407 1.94767,0.429847 2.11003,0.345287 2.28126,0.276796 2.45248,0.208305 2.63119,0.156442 2.80989,0.104579 2.99461,0.0697668 3.17933,0.0349547 3.36856,0.0174773 3.5578,0 3.75,0 Z"
         transform="translate(87.6573,54)"
         inkscape:connector-curvature="0"
         style="fill:#6f82f8;stroke:none" />
    </g>
    <g
       id="g54"
       clip-path="url(#clip_5)">
      <path
         id="path52"
         d="M 3.75,0 H 3.76748 Q 3.95968,0 4.14892,0.0174773 4.33815,0.0349547 4.52287,0.0697668 4.70759,0.104579 4.8863,0.156442 5.065,0.208305 5.23623,0.276796 5.40745,0.345287 5.56981,0.429847 5.73216,0.514407 5.88432,0.614346 6.03648,0.714286 6.1772,0.82879 6.31792,0.943294 6.44605,1.07143 6.57419,1.19956 6.68869,1.34028 6.8032,1.481 6.90314,1.63316 7.00308,1.78532 7.08764,1.94767 7.1722,2.11003 7.24069,2.28126 7.30918,2.45248 7.36104,2.63119 7.4129,2.80989 7.44772,2.99461 7.48253,3.17933 7.50001,3.36856 7.51748,3.5578 7.51748,3.75 v 0 q 0,0.1922 -0.01747,0.38144 Q 7.48253,4.32067 7.44772,4.50539 7.4129,4.69011 7.36104,4.86882 7.30918,5.04752 7.24069,5.21875 7.1722,5.38997 7.08764,5.55233 7.00308,5.71468 6.90314,5.86684 6.8032,6.019 6.68869,6.15972 6.57419,6.30044 6.44605,6.42857 6.31792,6.55671 6.1772,6.67121 6.03648,6.78571 5.88432,6.88565 5.73216,6.98559 5.56981,7.07015 5.40745,7.15471 5.23623,7.2232 5.065,7.2917 4.8863,7.34356 4.70759,7.39542 4.52287,7.43023 4.33815,7.46505 4.14892,7.48252 3.95968,7.5 3.76748,7.5 H 3.75 Q 3.5578,7.5 3.36856,7.48252 3.17933,7.46505 2.99461,7.43023 2.80989,7.39542 2.63119,7.34356 2.45248,7.2917 2.28126,7.2232 2.11003,7.15471 1.94767,7.07015 1.78532,6.98559 1.63316,6.88565 1.481,6.78571 1.34028,6.67121 1.19956,6.55671 1.07143,6.42857 0.943294,6.30044 0.82879,6.15972 0.714286,6.019 0.614346,5.86684 0.514407,5.71468 0.429847,5.55233 0.345287,5.38997 0.276796,5.21875 0.208305,5.04752 0.156442,4.86881 0.104579,4.69011 0.0697668,4.50539 0.0349547,4.32067 0.0174773,4.13144 0,3.9422 0,3.75 v 0 Q 0,3.5578 0.0174773,3.36856 0.0349547,3.17933 0.0697668,2.99461 0.104579,2.80989 0.156442,2.63119 0.208305,2.45248 0.276796,2.28126 0.345287,2.11003 0.429847,1.94767 0.514407,1.78532 0.614346,1.63316 0.714286,1.481 0.82879,1.34028 0.943294,1.19956 1.07143,1.07143 1.19956,0.943294 1.34028,0.82879 1.481,0.714286 1.63316,0.614346 1.78532,0.514407 1.94767,0.429847 2.11003,0.345287 2.28126,0.276796 2.45248,0.208305 2.63119,0.156442 2.80989,0.104579 2.99461,0.0697668 3.17933,0.0349547 3.36856,0.0174773 3.5578,0 3.75,0 Z"
         transform="translate(71.1189,54)"
         inkscape:connector-curvature="0"
         style="fill:#6f82f8;stroke:none" />
    </g>
    <g
       id="g63"
       clip-path="url(#clip_6)">
      <path
         id="path61"
         d="m 3.75,0 h 30.0874 q 0.1922,0 0.3815,0.0174773 0.1892,0.0174774 0.3739,0.0522895 0.1847,0.0348122 0.3634,0.0866752 0.1787,0.051863 0.35,0.120354 0.1712,0.068491 0.3336,0.153051 0.1623,0.08456 0.3145,0.184499 0.1521,0.09994 0.2928,0.214444 0.1408,0.114504 0.2689,0.24264 0.1281,0.12813 0.2426,0.26885 0.1145,0.14072 0.2145,0.29288 0.0999,0.15216 0.1845,0.31451 0.0845,0.16236 0.153,0.33359 0.0685,0.17122 0.1204,0.34993 0.0518,0.1787 0.0867,0.36342 0.0348,0.18472 0.0522,0.37395 0.0175,0.18924 0.0175,0.38144 v 0 q 0,0.1922 -0.0175,0.38144 -0.0174,0.18923 -0.0522,0.37395 -0.0349,0.18472 -0.0867,0.36343 -0.0519,0.1787 -0.1204,0.34993 -0.0685,0.17122 -0.153,0.33358 -0.0846,0.16235 -0.1845,0.31451 -0.1,0.15216 -0.2145,0.29288 -0.1145,0.14072 -0.2426,0.26885 -0.1281,0.12814 -0.2689,0.24264 -0.1407,0.1145 -0.2928,0.21444 -0.1522,0.09994 -0.3145,0.1845 -0.1624,0.08456 -0.3336,0.15305 -0.1713,0.0685 -0.35,0.12036 Q 34.7775,7.39542 34.5928,7.43023 34.4081,7.46505 34.2189,7.48252 34.0296,7.5 33.8374,7.5 H 3.75 Q 3.5578,7.5 3.36856,7.48252 3.17933,7.46505 2.99461,7.43023 2.80989,7.39542 2.63119,7.34356 2.45248,7.2917 2.28126,7.2232 2.11003,7.15471 1.94767,7.07015 1.78532,6.98559 1.63316,6.88565 1.481,6.78571 1.34028,6.67121 1.19956,6.55671 1.07143,6.42857 0.943294,6.30044 0.82879,6.15972 0.714286,6.019 0.614346,5.86684 0.514407,5.71468 0.429847,5.55233 0.345287,5.38997 0.276796,5.21875 0.208305,5.04752 0.156442,4.86881 0.104579,4.69011 0.0697668,4.50539 0.0349547,4.32067 0.0174773,4.13144 0,3.9422 0,3.75 v 0 Q 0,3.5578 0.0174773,3.36856 0.0349547,3.17933 0.0697668,2.99461 0.104579,2.80989 0.156442,2.63119 0.208305,2.45248 0.276796,2.28126 0.345287,2.11003 0.429847,1.94767 0.514407,1.78532 0.614346,1.63316 0.714286,1.481 0.82879,1.34028 0.943294,1.19956 1.07143,1.07143 1.19956,0.943294 1.34028,0.82879 1.481,0.714286 1.63316,0.614346 1.78532,0.514407 1.94767,0.429847 2.11003,0.345287 2.28126,0.276796 2.45248,0.208305 2.63119,0.156442 2.80989,0.104579 2.99461,0.0697668 3.17933,0.0349547 3.36856,0.0174773 3.5578,0 3.75,0 Z"
         transform="translate(87.6573,73.5)"
         inkscape:connector-curvature="0"
         style="fill:#6f82f8;stroke:none" />
    </g>
    <g
       id="g72"
       clip-path="url(#clip_7)">
      <path
         id="path70"
         d="M 3.75,0 H 3.76748 Q 3.95968,0 4.14892,0.0174773 4.33815,0.0349547 4.52287,0.0697668 4.70759,0.104579 4.8863,0.156442 5.065,0.208305 5.23623,0.276796 5.40745,0.345287 5.56981,0.429847 5.73216,0.514407 5.88432,0.614346 6.03648,0.714286 6.1772,0.82879 6.31792,0.943294 6.44605,1.07143 6.57419,1.19956 6.68869,1.34028 6.8032,1.481 6.90314,1.63316 7.00308,1.78532 7.08764,1.94767 7.1722,2.11003 7.24069,2.28126 7.30918,2.45248 7.36104,2.63119 7.4129,2.80989 7.44772,2.99461 7.48253,3.17933 7.50001,3.36856 7.51748,3.5578 7.51748,3.75 v 0 q 0,0.1922 -0.01747,0.38144 Q 7.48253,4.32067 7.44772,4.50539 7.4129,4.69011 7.36104,4.86882 7.30918,5.04752 7.24069,5.21875 7.1722,5.38997 7.08764,5.55233 7.00308,5.71468 6.90314,5.86684 6.8032,6.019 6.68869,6.15972 6.57419,6.30044 6.44605,6.42857 6.31792,6.55671 6.1772,6.67121 6.03648,6.78571 5.88432,6.88565 5.73216,6.98559 5.56981,7.07015 5.40745,7.15471 5.23623,7.2232 5.065,7.2917 4.8863,7.34356 4.70759,7.39542 4.52287,7.43023 4.33815,7.46505 4.14892,7.48252 3.95968,7.5 3.76748,7.5 H 3.75 Q 3.5578,7.5 3.36856,7.48252 3.17933,7.46505 2.99461,7.43023 2.80989,7.39542 2.63119,7.34356 2.45248,7.2917 2.28126,7.2232 2.11003,7.15471 1.94767,7.07015 1.78532,6.98559 1.63316,6.88565 1.481,6.78571 1.34028,6.67121 1.19956,6.55671 1.07143,6.42857 0.943294,6.30044 0.82879,6.15972 0.714286,6.019 0.614346,5.86684 0.514407,5.71468 0.429847,5.55233 0.345287,5.38997 0.276796,5.21875 0.208305,5.04752 0.156442,4.86881 0.104579,4.69011 0.0697668,4.50539 0.0349547,4.32067 0.0174773,4.13144 0,3.9422 0,3.75 v 0 Q 0,3.5578 0.0174773,3.36856 0.0349547,3.17933 0.0697668,2.99461 0.104579,2.80989 0.156442,2.63119 0.208305,2.45248 0.276796,2.28126 0.345287,2.11003 0.429847,1.94767 0.514407,1.78532 0.614346,1.63316 0.714286,1.481 0.82879,1.34028 0.943294,1.19956 1.07143,1.07143 1.19956,0.943294 1.34028,0.82879 1.481,0.714286 1.63316,0.614346 1.78532,0.514407 1.94767,0.429847 2.11003,0.345287 2.28126,0.276796 2.45248,0.208305 2.63119,0.156442 2.80989,0.104579 2.99461,0.0697668 3.17933,0.0349547 3.36856,0.0174773 3.5578,0 3.75,0 Z"
         transform="translate(71.1189,73.5)"
         inkscape:connector-curvature="0"
         style="fill:#6f82f8;stroke:none" />
    </g>
    <g
       id="g81"
       clip-path="url(#clip_8)">
      <path
         id="path79"
         d="m 3.75,0 h 30.0874 q 0.1922,0 0.3815,0.0174773 0.1892,0.0174774 0.3739,0.0522895 0.1847,0.0348122 0.3634,0.0866752 0.1787,0.051863 0.35,0.120354 0.1712,0.068491 0.3336,0.153051 0.1623,0.08456 0.3145,0.184499 0.1521,0.09994 0.2928,0.214444 0.1408,0.114504 0.2689,0.24264 0.1281,0.12813 0.2426,0.26885 0.1145,0.14072 0.2145,0.29288 0.0999,0.15216 0.1845,0.31451 0.0845,0.16236 0.153,0.33359 0.0685,0.17122 0.1204,0.34993 0.0518,0.1787 0.0867,0.36342 0.0348,0.18472 0.0522,0.37395 0.0175,0.18924 0.0175,0.38144 v 0 q 0,0.1922 -0.0175,0.38144 -0.0174,0.18923 -0.0522,0.37395 -0.0349,0.18472 -0.0867,0.36343 -0.0519,0.1787 -0.1204,0.34993 -0.0685,0.17122 -0.153,0.33358 -0.0846,0.16235 -0.1845,0.31451 -0.1,0.15216 -0.2145,0.29288 -0.1145,0.14072 -0.2426,0.26885 -0.1281,0.12814 -0.2689,0.24264 -0.1407,0.1145 -0.2928,0.21444 -0.1522,0.09994 -0.3145,0.1845 -0.1624,0.08456 -0.3336,0.15305 -0.1713,0.0685 -0.35,0.12036 Q 34.7775,7.39542 34.5928,7.43023 34.4081,7.46505 34.2189,7.48252 34.0296,7.5 33.8374,7.5 H 3.75 Q 3.5578,7.5 3.36856,7.48252 3.17933,7.46505 2.99461,7.43023 2.80989,7.39542 2.63119,7.34356 2.45248,7.2917 2.28126,7.2232 2.11003,7.15471 1.94767,7.07015 1.78532,6.98559 1.63316,6.88565 1.481,6.78571 1.34028,6.67121 1.19956,6.55671 1.07143,6.42857 0.943294,6.30044 0.82879,6.15972 0.714286,6.019 0.614346,5.86684 0.514407,5.71468 0.429847,5.55233 0.345287,5.38997 0.276796,5.21875 0.208305,5.04752 0.156442,4.86881 0.104579,4.69011 0.0697668,4.50539 0.0349547,4.32067 0.0174773,4.13144 0,3.9422 0,3.75 v 0 Q 0,3.5578 0.0174773,3.36856 0.0349547,3.17933 0.0697668,2.99461 0.104579,2.80989 0.156442,2.63119 0.208305,2.45248 0.276796,2.28126 0.345287,2.11003 0.429847,1.94767 0.514407,1.78532 0.614346,1.63316 0.714286,1.481 0.82879,1.34028 0.943294,1.19956 1.07143,1.07143 1.19956,0.943294 1.34028,0.82879 1.481,0.714286 1.63316,0.614346 1.78532,0.514407 1.94767,0.429847 2.11003,0.345287 2.28126,0.276796 2.45248,0.208305 2.63119,0.156442 2.80989,0.104579 2.99461,0.0697668 3.17933,0.0349547 3.36856,0.0174773 3.5578,0 3.75,0 Z"
         transform="translate(87.6573,94.5)"
         inkscape:connector-curvature="0"
         style="fill:#6f82f8;stroke:none" />
    </g>
    <g
       id="g90"
       clip-path="url(#clip_9)">
      <path
         id="path88"
         d="M 3.75,0 H 3.76748 Q 3.95968,0 4.14892,0.0174773 4.33815,0.0349547 4.52287,0.0697668 4.70759,0.104579 4.8863,0.156442 5.065,0.208305 5.23623,0.276796 5.40745,0.345287 5.56981,0.429847 5.73216,0.514407 5.88432,0.614346 6.03648,0.714286 6.1772,0.82879 6.31792,0.943294 6.44605,1.07143 6.57419,1.19956 6.68869,1.34028 6.8032,1.481 6.90314,1.63316 7.00308,1.78532 7.08764,1.94767 7.1722,2.11003 7.24069,2.28126 7.30918,2.45248 7.36104,2.63119 7.4129,2.80989 7.44772,2.99461 7.48253,3.17933 7.50001,3.36856 7.51748,3.5578 7.51748,3.75 v 0 q 0,0.1922 -0.01747,0.38144 Q 7.48253,4.32067 7.44772,4.50539 7.4129,4.69011 7.36104,4.86882 7.30918,5.04752 7.24069,5.21875 7.1722,5.38997 7.08764,5.55233 7.00308,5.71468 6.90314,5.86684 6.8032,6.019 6.68869,6.15972 6.57419,6.30044 6.44605,6.42857 6.31792,6.55671 6.1772,6.67121 6.03648,6.78571 5.88432,6.88565 5.73216,6.98559 5.56981,7.07015 5.40745,7.15471 5.23623,7.2232 5.065,7.2917 4.8863,7.34356 4.70759,7.39542 4.52287,7.43023 4.33815,7.46505 4.14892,7.48252 3.95968,7.5 3.76748,7.5 H 3.75 Q 3.5578,7.5 3.36856,7.48252 3.17933,7.46505 2.99461,7.43023 2.80989,7.39542 2.63119,7.34356 2.45248,7.2917 2.28126,7.2232 2.11003,7.15471 1.94767,7.07015 1.78532,6.98559 1.63316,6.88565 1.481,6.78571 1.34028,6.67121 1.19956,6.55671 1.07143,6.42857 0.943294,6.30044 0.82879,6.15972 0.714286,6.019 0.614346,5.86684 0.514407,5.71468 0.429847,5.55233 0.345287,5.38997 0.276796,5.21875 0.208305,5.04752 0.156442,4.86881 0.104579,4.69011 0.0697668,4.50539 0.0349547,4.32067 0.0174773,4.13144 0,3.9422 0,3.75 v 0 Q 0,3.5578 0.0174773,3.36856 0.0349547,3.17933 0.0697668,2.99461 0.104579,2.80989 0.156442,2.63119 0.208305,2.45248 0.276796,2.28126 0.345287,2.11003 0.429847,1.94767 0.514407,1.78532 0.614346,1.63316 0.714286,1.481 0.82879,1.34028 0.943294,1.19956 1.07143,1.07143 1.19956,0.943294 1.34028,0.82879 1.481,0.714286 1.63316,0.614346 1.78532,0.514407 1.94767,0.429847 2.11003,0.345287 2.28126,0.276796 2.45248,0.208305 2.63119,0.156442 2.80989,0.104579 2.99461,0.0697668 3.17933,0.0349547 3.36856,0.0174773 3.5578,0 3.75,0 Z"
         transform="translate(71.1189,94.5)"
         inkscape:connector-curvature="0"
         style="fill:#6f82f8;stroke:none" />
    </g>
    <g
       id="g99"
       clip-path="url(#clip_10)">
      <path
         id="path97"
         d="m 3.75,0 h 30.0874 q 0.1922,0 0.3815,0.0174773 0.1892,0.0174774 0.3739,0.0522895 0.1847,0.0348122 0.3634,0.0866752 0.1787,0.051863 0.35,0.120354 0.1712,0.068491 0.3336,0.153051 0.1623,0.08456 0.3145,0.184499 0.1521,0.09994 0.2928,0.214444 0.1408,0.114504 0.2689,0.24264 0.1281,0.12813 0.2426,0.26885 0.1145,0.14072 0.2145,0.29288 0.0999,0.15216 0.1845,0.31451 0.0845,0.16236 0.153,0.33359 0.0685,0.17122 0.1204,0.34993 0.0518,0.1787 0.0867,0.36342 0.0348,0.18472 0.0522,0.37395 0.0175,0.18924 0.0175,0.38144 v 0 q 0,0.1922 -0.0175,0.38144 -0.0174,0.18923 -0.0522,0.37395 -0.0349,0.18472 -0.0867,0.36343 -0.0519,0.1787 -0.1204,0.34993 -0.0685,0.17122 -0.153,0.33358 -0.0846,0.16235 -0.1845,0.31451 -0.1,0.15216 -0.2145,0.29288 -0.1145,0.14072 -0.2426,0.26885 -0.1281,0.12814 -0.2689,0.24264 -0.1407,0.1145 -0.2928,0.21444 -0.1522,0.09994 -0.3145,0.1845 -0.1624,0.08456 -0.3336,0.15305 -0.1713,0.0685 -0.35,0.12036 Q 34.7775,7.39542 34.5928,7.43023 34.4081,7.46505 34.2189,7.48252 34.0296,7.5 33.8374,7.5 H 3.75 Q 3.5578,7.5 3.36856,7.48252 3.17933,7.46505 2.99461,7.43023 2.80989,7.39542 2.63119,7.34356 2.45248,7.2917 2.28126,7.2232 2.11003,7.15471 1.94767,7.07015 1.78532,6.98559 1.63316,6.88565 1.481,6.78571 1.34028,6.67121 1.19956,6.55671 1.07143,6.42857 0.943294,6.30044 0.82879,6.15972 0.714286,6.019 0.614346,5.86684 0.514407,5.71468 0.429847,5.55233 0.345287,5.38997 0.276796,5.21875 0.208305,5.04752 0.156442,4.86881 0.104579,4.69011 0.0697668,4.50539 0.0349547,4.32067 0.0174773,4.13144 0,3.9422 0,3.75 v 0 Q 0,3.5578 0.0174773,3.36856 0.0349547,3.17933 0.0697668,2.99461 0.104579,2.80989 0.156442,2.63119 0.208305,2.45248 0.276796,2.28126 0.345287,2.11003 0.429847,1.94767 0.514407,1.78532 0.614346,1.63316 0.714286,1.481 0.82879,1.34028 0.943294,1.19956 1.07143,1.07143 1.19956,0.943294 1.34028,0.82879 1.481,0.714286 1.63316,0.614346 1.78532,0.514407 1.94767,0.429847 2.11003,0.345287 2.28126,0.276796 2.45248,0.208305 2.63119,0.156442 2.80989,0.104579 2.99461,0.0697668 3.17933,0.0349547 3.36856,0.0174773 3.5578,0 3.75,0 Z"
         transform="translate(87.6573,114)"
         inkscape:connector-curvature="0"
         style="fill:#6f82f8;stroke:none" />
    </g>
    <g
       id="g108"
       clip-path="url(#clip_11)">
      <path
         id="path106"
         d="M 3.75,0 H 3.76748 Q 3.95968,0 4.14892,0.0174773 4.33815,0.0349547 4.52287,0.0697668 4.70759,0.104579 4.8863,0.156442 5.065,0.208305 5.23623,0.276796 5.40745,0.345287 5.56981,0.429847 5.73216,0.514407 5.88432,0.614346 6.03648,0.714286 6.1772,0.82879 6.31792,0.943294 6.44605,1.07143 6.57419,1.19956 6.68869,1.34028 6.8032,1.481 6.90314,1.63316 7.00308,1.78532 7.08764,1.94767 7.1722,2.11003 7.24069,2.28126 7.30918,2.45248 7.36104,2.63119 7.4129,2.80989 7.44772,2.99461 7.48253,3.17933 7.50001,3.36856 7.51748,3.5578 7.51748,3.75 v 0 q 0,0.1922 -0.01747,0.38144 Q 7.48253,4.32067 7.44772,4.50539 7.4129,4.69011 7.36104,4.86882 7.30918,5.04752 7.24069,5.21875 7.1722,5.38997 7.08764,5.55233 7.00308,5.71468 6.90314,5.86684 6.8032,6.019 6.68869,6.15972 6.57419,6.30044 6.44605,6.42857 6.31792,6.55671 6.1772,6.67121 6.03648,6.78571 5.88432,6.88565 5.73216,6.98559 5.56981,7.07015 5.40745,7.15471 5.23623,7.2232 5.065,7.2917 4.8863,7.34356 4.70759,7.39542 4.52287,7.43023 4.33815,7.46505 4.14892,7.48252 3.95968,7.5 3.76748,7.5 H 3.75 Q 3.5578,7.5 3.36856,7.48252 3.17933,7.46505 2.99461,7.43023 2.80989,7.39542 2.63119,7.34356 2.45248,7.2917 2.28126,7.2232 2.11003,7.15471 1.94767,7.07015 1.78532,6.98559 1.63316,6.88565 1.481,6.78571 1.34028,6.67121 1.19956,6.55671 1.07143,6.42857 0.943294,6.30044 0.82879,6.15972 0.714286,6.019 0.614346,5.86684 0.514407,5.71468 0.429847,5.55233 0.345287,5.38997 0.276796,5.21875 0.208305,5.04752 0.156442,4.86881 0.104579,4.69011 0.0697668,4.50539 0.0349547,4.32067 0.0174773,4.13144 0,3.9422 0,3.75 v 0 Q 0,3.5578 0.0174773,3.36856 0.0349547,3.17933 0.0697668,2.99461 0.104579,2.80989 0.156442,2.63119 0.208305,2.45248 0.276796,2.28126 0.345287,2.11003 0.429847,1.94767 0.514407,1.78532 0.614346,1.63316 0.714286,1.481 0.82879,1.34028 0.943294,1.19956 1.07143,1.07143 1.19956,0.943294 1.34028,0.82879 1.481,0.714286 1.63316,0.614346 1.78532,0.514407 1.94767,0.429847 2.11003,0.345287 2.28126,0.276796 2.45248,0.208305 2.63119,0.156442 2.80989,0.104579 2.99461,0.0697668 3.17933,0.0349547 3.36856,0.0174773 3.5578,0 3.75,0 Z"
         transform="translate(71.1189,114)"
         inkscape:connector-curvature="0"
         style="fill:#6f82f8;stroke:none" />
    </g>
    <g
       id="g117"
       clip-path="url(#clip_12)">
      <path
         id="path115"
         d="M 23.3728,0 21.049,51.3252 c 0,5.799 -4.712,10.5 -10.5245,10.5 C 4.71197,61.8252 0,57.1242 0,51.3252 L 2.32382,0.104353 Z"
         transform="rotate(-36.999982,228.95417,-179.30738)"
         inkscape:connector-curvature="0"
         style="fill:#6f82f8;stroke:none" />
    </g>
    <g
       id="g126"
       clip-path="url(#clip_13)">
      <path
         id="path124"
         d="M 23.3728,0 21.049,51.3252 c 0,5.799 -4.712,10.5 -10.5245,10.5 C 4.71197,61.8252 0,57.1242 0,51.3252 L 2.32382,0.104353 Z"
         transform="rotate(-36.999982,228.95417,-179.30738)"
         stroke-miterlimit="4"
         inkscape:connector-curvature="0"
         style="fill:none;stroke:#6f82f8;stroke-width:12;stroke-miterlimit:4" />
    </g>
    <g
       id="g135"
       clip-path="url(#clip_14)">
      <path
         id="path133"
         d="M 41.3462,82.5 C 64.181,82.5 82.6923,64.0317 82.6923,41.25 82.6923,18.4683 64.181,0 41.3462,0 18.5113,0 0,18.4683 0,41.25 0,64.0317 18.5113,82.5 41.3462,82.5 Z"
         transform="rotate(-36.999982,122.136,-94.963744)"
         inkscape:connector-curvature="0"
         style="fill:#fcfdff;stroke:none" />
    </g>
    <g
       id="g144"
       clip-path="url(#clip_15)">
      <path
         id="path142"
         d="M 41.3462,82.5 C 64.181,82.5 82.6923,64.0317 82.6923,41.25 82.6923,18.4683 64.181,0 41.3462,0 18.5113,0 0,18.4683 0,41.25 0,64.0317 18.5113,82.5 41.3462,82.5 Z"
         transform="rotate(-36.999982,122.136,-94.963744)"
         stroke-miterlimit="4"
         inkscape:connector-curvature="0"
         style="fill:none;stroke:#6f82f8;stroke-width:6;stroke-miterlimit:4" />
    </g>
    <g
       id="g153"
       clip-path="url(#clip_16)">
      <path
         id="path151"
         d="M 2.09116,0 C 6.2922,0 29.0282,0 37.4303,0 c 3.3214,0 6.014,2.68629 6.014,6 0,3.31371 -2.6926,6 -6.014,6 -9.3314,0 -32.76428,0 -37.429954552,0 0,0 0.089747352,-2.77842 0.473946552,-5.60748 C 0.858419,3.564 2.09116,0 2.09116,0 Z"
         transform="translate(107.203,48.1734)"
         inkscape:connector-curvature="0"
         style="fill:#6f82f8;stroke:none" />
    </g>
    <g
       id="g162"
       clip-path="url(#clip_17)">
      <path
         id="path160"
         d="m 0,0 c 0,0 26.6633,0 34.2218,0 3.3214,0 6.014,2.68629 6.014,6 0,3.31371 -2.6926,6 -6.014,6 -3.3401,0 -25.72291,0 -25.72291,0 0,0 -2.48734,-2.39547 -4.78476,-5.60865 C 1.41671,3.17817 0,0 0,0 Z"
         transform="translate(110.21,76.6734)"
         inkscape:connector-curvature="0"
         style="fill:#6f82f8;stroke:none" />
    </g>
    <g
       id="g171"
       clip-path="url(#clip_18)">
      <path
         id="path169"
         d="m 81.5145,87.0259 c -8.4237,0 -66.8771,-0.0071 -66.8771,-0.0071 -0.0809,0.0019 2.9095,0.0142 -0.2461,0.0071 -3.1555,-0.0071 -5.16819,-0.0071 -7.35043,-0.0071 -1.86333,0 -4.41796,-1.4528 -6.096963,-4.2519 -0.8963173,-1.4943 -0.9175093,-4.15 -0.9175093,-5.4444 V 0 c 0,0 -0.5904967,57.2538 12.0280023,72.0514 12.6184,14.7976 60.1977,13.9902 69.4601,14.9745 z"
         transform="translate(63,86)"
         inkscape:connector-curvature="0"
         style="fill:#d1d7fa;stroke:none" />
    </g>
    <g
       id="g180"
       clip-path="url(#clip_19)">
      <path
         id="path178"
         d="m 0,76.3755 c 0,0 7.86456,0.8607 18.4336,-4.8752 C 35.1327,62.4376 37.776,47.1868 37.776,38.2439 37.776,17.0969 20.752,0 0,0 l 14.5611,7.84802 q 0.3833,0.20659 0.7641,0.43161 0.3807,0.22503 0.7581,0.46802 0.3774,0.243 0.7506,0.50347 0.3733,0.26047 0.7417,0.53789 0.3684,0.27739 0.7311,0.57119 0.3628,0.2938 0.7192,0.6034 0.3564,0.3096 0.7057,0.6343 0.3492,0.3247 0.6907,0.6639 0.3415,0.3393 0.6745,0.6923 0.3329,0.353 0.6567,0.7191 0.3238,0.366 0.6377,0.7444 0.314,0.3784 0.6174,0.7684 0.3035,0.39 0.5958,0.7907 0.2923,0.4007 0.573,0.8114 0.2806,0.4107 0.549,0.8304 0.2683,0.4198 0.5239,0.8478 0.2555,0.428 0.4977,0.8634 0.2422,0.4354 0.4706,0.8773 0.2283,0.4419 0.4424,0.8893 0.214,0.4475 0.4133,0.8996 0.1993,0.4522 0.3835,0.9081 0.1842,0.4558 0.3528,0.9146 0.1686,0.4587 0.3214,0.9193 0.1528,0.4605 0.2894,0.9221 0.1365,0.4615 0.2567,0.923 0.1201,0.4616 0.2235,0.9222 0.1035,0.4606 0.19,0.9193 0.0865,0.4587 0.1559,0.9146 0.0695,0.4559 0.1217,0.9081 0.0521,0.4522 0.087,0.8997 0.0349,0.4475 0.0523,0.8894 0.0174,0.4419 0.0174,0.8773 v 12.7781 q 0,0.4098 -0.0167,0.8252 -0.0167,0.4154 -0.05,0.8355 -0.0334,0.4201 -0.0834,0.844 -0.0499,0.4239 -0.1164,0.8509 -0.0665,0.4269 -0.1493,0.8559 -0.0828,0.4291 -0.1818,0.8593 -0.099,0.4303 -0.214,0.861 -0.115,0.4306 -0.2458,0.8607 -0.1308,0.4302 -0.277,0.8589 -0.1463,0.4287 -0.3077,0.8552 -0.1614,0.4265 -0.3377,0.8498 -0.1764,0.4233 -0.3672,0.8427 -0.1908,0.4193 -0.3957,0.8338 -0.2049,0.4144 -0.4235,0.8232 -0.2186,0.4088 -0.4505,0.811 -0.2318,0.4022 -0.4765,0.7971 -0.2446,0.3949 -0.5015,0.7816 -0.2569,0.3867 -0.5256,0.7645 -0.2686,0.3777 -0.5485,0.7458 -0.2798,0.368 -0.5703,0.7256 -0.2905,0.3575 -0.5911,0.7039 -0.3005,0.3463 -0.6105,0.6808 -0.3099,0.3345 -0.6287,0.6563 -0.3188,0.3219 -0.6457,0.6305 -0.3269,0.3086 -0.6612,0.6033 -0.3344,0.2948 -0.6756,0.575 -0.3412,0.2803 -0.6885,0.5455 -0.3472,0.2652 -0.6999,0.5148 -0.3527,0.2496 -0.71,0.4832 -0.3573,0.2335 -0.7186,0.4504 -0.3613,0.217 -0.7258,0.4169 -0.3645,0.1999 -0.7314,0.3824 z"
         transform="translate(140.127,24.2044)"
         inkscape:connector-curvature="0"
         style="fill:#d1d7fa;stroke:none" />
    </g>
    <g
       id="g189"
       clip-path="url(#clip_20)">
      <path
         id="path187"
         d="M 9.02098,6 V 1.40625 q 0,-0.07208 -0.00655,-0.14304 Q 9.00787,1.19225 8.99482,1.12298 8.98176,1.05371 8.96231,0.986695 8.94287,0.919681 8.91718,0.855471 8.8915,0.791261 8.85979,0.730378 8.82808,0.669495 8.7906,0.612436 8.75312,0.555376 8.71018,0.502606 8.66724,0.449836 8.61919,0.401786 8.57114,0.353735 8.51837,0.310796 8.4656,0.267857 8.40854,0.23038 8.35149,0.192903 8.2906,0.161192 8.22972,0.129482 8.16551,0.103798 8.1013,0.0781143 8.03428,0.0586657 7.96727,0.0392171 7.898,0.0261625 7.82873,0.013108 7.75777,0.006554 7.68681,0 7.61473,0 H 7.42024 Q 7.34816,0 7.2772,0.006554 7.20624,0.013108 7.13697,0.0261625 7.06769,0.0392171 7.00068,0.0586657 6.93367,0.0781143 6.86946,0.103798 6.80525,0.129482 6.74437,0.161192 6.68348,0.192903 6.62642,0.23038 6.56936,0.267857 6.51659,0.310796 6.46382,0.353735 6.41577,0.401786 6.36772,0.449836 6.32478,0.502606 6.28184,0.555376 6.24437,0.612435 6.20689,0.669495 6.17518,0.730378 6.14347,0.791261 6.11778,0.855471 6.0921,0.919681 6.07265,0.986695 6.0532,1.05371 6.04015,1.12298 6.02709,1.19225 6.02054,1.26321 6.01399,1.33417 6.01399,1.40625 V 6 H 1.40625 Q 1.33417,6 1.26321,6.00655 1.19225,6.01311 1.12298,6.02616 1.05371,6.03922 0.986695,6.05867 0.919681,6.07812 0.855471,6.1038 0.791261,6.12948 0.730378,6.16119 0.669495,6.1929 0.612436,6.23038 0.555376,6.26786 0.502606,6.3108 0.449836,6.35374 0.401786,6.40179 0.353735,6.44984 0.310796,6.50261 0.267857,6.55538 0.23038,6.61244 0.192903,6.6695 0.161192,6.73038 0.129482,6.79126 0.103798,6.85547 0.0781143,6.91968 0.0586657,6.98669 0.0392171,7.05371 0.0261625,7.12298 0.013108,7.19225 0.006554,7.26321 0,7.33417 0,7.40625 v 0.1875 Q 0,7.66583 0.006554,7.73679 0.013108,7.80775 0.0261625,7.87702 0.0392171,7.94629 0.0586657,8.01331 0.0781143,8.08032 0.103798,8.14453 0.129482,8.20874 0.161192,8.26962 0.192903,8.33051 0.23038,8.38757 0.267857,8.44463 0.310796,8.4974 0.353735,8.55016 0.401786,8.59822 0.449836,8.64627 0.502606,8.68921 0.555376,8.73214 0.612435,8.76962 0.669495,8.8071 0.730378,8.83881 0.791261,8.87052 0.855471,8.8962 0.919681,8.92189 0.986695,8.94134 1.05371,8.96078 1.12298,8.97384 1.19225,8.98689 1.26321,8.99345 1.33417,9 1.40625,9 h 4.60774 v 4.5938 q 0,0.072 0.00655,0.143 0.00655,0.071 0.01961,0.1402 0.01305,0.0693 0.0325,0.1363 0.01945,0.067 0.04514,0.1312 0.02568,0.0642 0.05739,0.1251 0.03171,0.0609 0.06919,0.118 0.03747,0.057 0.08041,0.1098 0.04294,0.0528 0.09099,0.1008 0.04805,0.0481 0.10082,0.091 0.05277,0.0429 0.10983,0.0804 0.05706,0.0375 0.11795,0.0692 0.06088,0.0317 0.12509,0.0574 0.06421,0.0257 0.13122,0.0451 0.06702,0.0195 0.13629,0.0325 0.06927,0.0131 0.14023,0.0196 Q 7.34816,15 7.42024,15 H 7.61473 Q 7.68681,15 7.75777,14.9934 7.82873,14.9869 7.898,14.9738 7.96727,14.9608 8.03428,14.9413 8.1013,14.9219 8.16551,14.8962 8.22972,14.8705 8.2906,14.8388 8.35149,14.8071 8.40854,14.7696 8.4656,14.7321 8.51837,14.6892 q 0.05277,-0.0429 0.10082,-0.091 0.04805,-0.048 0.09099,-0.1008 0.04294,-0.0528 0.08042,-0.1098 0.03748,-0.0571 0.06919,-0.118 0.03171,-0.0609 0.05739,-0.1251 0.02569,-0.0642 0.04513,-0.1312 0.01945,-0.067 0.03251,-0.1363 0.01305,-0.0692 0.01961,-0.1402 0.00655,-0.071 0.00655,-0.143 V 9 H 13.6287 Q 13.7008,9 13.7718,8.99345 13.8427,8.98689 13.912,8.97384 13.9813,8.96078 14.0483,8.94134 14.1153,8.92189 14.1795,8.8962 14.2437,8.87052 14.3046,8.83881 14.3655,8.8071 14.4225,8.76962 14.4796,8.73214 14.5324,8.6892 14.5851,8.64627 14.6332,8.59822 14.6812,8.55016 14.7242,8.49739 14.7671,8.44462 14.8046,8.38756 14.8421,8.33051 14.8738,8.26962 14.9055,8.20874 14.9312,8.14453 14.9569,8.08032 14.9763,8.01331 14.9957,7.94629 15.0088,7.87702 15.0219,7.80775 15.0284,7.73679 15.035,7.66583 15.035,7.59375 v -0.1875 q 0,-0.07208 -0.0066,-0.14304 Q 15.0219,7.19225 15.0088,7.12298 14.9957,7.05371 14.9763,6.98669 14.9569,6.91968 14.9312,6.85547 14.9055,6.79126 14.8738,6.73038 14.8421,6.6695 14.8046,6.61244 14.7671,6.55538 14.7242,6.50261 14.6812,6.44984 14.6332,6.40179 14.5851,6.35374 14.5324,6.3108 14.4796,6.26786 14.4225,6.23038 14.3655,6.1929 14.3046,6.16119 14.2437,6.12948 14.1795,6.1038 14.1153,6.07812 14.0483,6.05867 13.9813,6.03922 13.912,6.02616 13.8427,6.01311 13.7718,6.00655 13.7008,6 13.6287,6 Z"
         transform="rotate(9.9999875,-341.59965,44.885756)"
         inkscape:connector-curvature="0"
         style="fill:#d1d7fa;fill-rule:evenodd;stroke:none" />
    </g>
    <g
       id="g198"
       clip-path="url(#clip_21)">
      <path
         id="path196"
         d="M 9.02098,6 V 1.40625 q 0,-0.07208 -0.00655,-0.14304 Q 9.00787,1.19225 8.99482,1.12298 8.98176,1.05371 8.96231,0.986695 8.94287,0.919681 8.91718,0.855471 8.8915,0.791261 8.85979,0.730378 8.82808,0.669495 8.7906,0.612436 8.75312,0.555376 8.71018,0.502606 8.66724,0.449836 8.61919,0.401786 8.57114,0.353735 8.51837,0.310796 8.4656,0.267857 8.40854,0.23038 8.35149,0.192903 8.2906,0.161192 8.22972,0.129482 8.16551,0.103798 8.1013,0.0781143 8.03428,0.0586657 7.96727,0.0392171 7.898,0.0261625 7.82873,0.013108 7.75777,0.006554 7.68681,0 7.61473,0 H 7.42024 Q 7.34816,0 7.2772,0.006554 7.20624,0.013108 7.13697,0.0261625 7.06769,0.0392171 7.00068,0.0586657 6.93367,0.0781143 6.86946,0.103798 6.80525,0.129482 6.74437,0.161192 6.68348,0.192903 6.62642,0.23038 6.56936,0.267857 6.51659,0.310796 6.46382,0.353735 6.41577,0.401786 6.36772,0.449836 6.32478,0.502606 6.28184,0.555376 6.24437,0.612435 6.20689,0.669495 6.17518,0.730378 6.14347,0.791261 6.11778,0.855471 6.0921,0.919681 6.07265,0.986695 6.0532,1.05371 6.04015,1.12298 6.02709,1.19225 6.02054,1.26321 6.01399,1.33417 6.01399,1.40625 V 6 H 1.40625 Q 1.33417,6 1.26321,6.00655 1.19225,6.01311 1.12298,6.02616 1.05371,6.03922 0.986695,6.05867 0.919681,6.07812 0.855471,6.1038 0.791261,6.12948 0.730378,6.16119 0.669495,6.1929 0.612436,6.23038 0.555376,6.26786 0.502606,6.3108 0.449836,6.35374 0.401786,6.40179 0.353735,6.44984 0.310796,6.50261 0.267857,6.55538 0.23038,6.61244 0.192903,6.6695 0.161192,6.73038 0.129482,6.79126 0.103798,6.85547 0.0781143,6.91968 0.0586657,6.98669 0.0392171,7.05371 0.0261625,7.12298 0.013108,7.19225 0.006554,7.26321 0,7.33417 0,7.40625 v 0.1875 Q 0,7.66583 0.006554,7.73679 0.013108,7.80775 0.0261625,7.87702 0.0392171,7.94629 0.0586657,8.01331 0.0781143,8.08032 0.103798,8.14453 0.129482,8.20874 0.161192,8.26962 0.192903,8.33051 0.23038,8.38757 0.267857,8.44463 0.310796,8.4974 0.353735,8.55016 0.401786,8.59822 0.449836,8.64627 0.502606,8.68921 0.555376,8.73214 0.612435,8.76962 0.669495,8.8071 0.730378,8.83881 0.791261,8.87052 0.855471,8.8962 0.919681,8.92189 0.986695,8.94134 1.05371,8.96078 1.12298,8.97384 1.19225,8.98689 1.26321,8.99345 1.33417,9 1.40625,9 h 4.60774 v 4.5938 q 0,0.072 0.00655,0.143 0.00655,0.071 0.01961,0.1402 0.01305,0.0693 0.0325,0.1363 0.01945,0.067 0.04514,0.1312 0.02568,0.0642 0.05739,0.1251 0.03171,0.0609 0.06919,0.118 0.03747,0.057 0.08041,0.1098 0.04294,0.0528 0.09099,0.1008 0.04805,0.0481 0.10082,0.091 0.05277,0.0429 0.10983,0.0804 0.05706,0.0375 0.11795,0.0692 0.06088,0.0317 0.12509,0.0574 0.06421,0.0257 0.13122,0.0451 0.06702,0.0195 0.13629,0.0325 0.06927,0.0131 0.14023,0.0196 Q 7.34816,15 7.42024,15 H 7.61473 Q 7.68681,15 7.75777,14.9934 7.82873,14.9869 7.898,14.9738 7.96727,14.9608 8.03428,14.9413 8.1013,14.9219 8.16551,14.8962 8.22972,14.8705 8.2906,14.8388 8.35149,14.8071 8.40854,14.7696 8.4656,14.7321 8.51837,14.6892 q 0.05277,-0.0429 0.10082,-0.091 0.04805,-0.048 0.09099,-0.1008 0.04294,-0.0528 0.08042,-0.1098 0.03748,-0.0571 0.06919,-0.118 0.03171,-0.0609 0.05739,-0.1251 0.02569,-0.0642 0.04513,-0.1312 0.01945,-0.067 0.03251,-0.1363 0.01305,-0.0692 0.01961,-0.1402 0.00655,-0.071 0.00655,-0.143 V 9 H 13.6287 Q 13.7008,9 13.7718,8.99345 13.8427,8.98689 13.912,8.97384 13.9813,8.96078 14.0483,8.94134 14.1153,8.92189 14.1795,8.8962 14.2437,8.87052 14.3046,8.83881 14.3655,8.8071 14.4225,8.76962 14.4796,8.73214 14.5324,8.6892 14.5851,8.64627 14.6332,8.59822 14.6812,8.55016 14.7242,8.49739 14.7671,8.44462 14.8046,8.38756 14.8421,8.33051 14.8738,8.26962 14.9055,8.20874 14.9312,8.14453 14.9569,8.08032 14.9763,8.01331 14.9957,7.94629 15.0088,7.87702 15.0219,7.80775 15.0284,7.73679 15.035,7.66583 15.035,7.59375 v -0.1875 q 0,-0.07208 -0.0066,-0.14304 Q 15.0219,7.19225 15.0088,7.12298 14.9957,7.05371 14.9763,6.98669 14.9569,6.91968 14.9312,6.85547 14.9055,6.79126 14.8738,6.73038 14.8421,6.6695 14.8046,6.61244 14.7671,6.55538 14.7242,6.50261 14.6812,6.44984 14.6332,6.40179 14.5851,6.35374 14.5324,6.3108 14.4796,6.26786 14.4225,6.23038 14.3655,6.1929 14.3046,6.16119 14.2437,6.12948 14.1795,6.1038 14.1153,6.07812 14.0483,6.05867 13.9813,6.03922 13.912,6.02616 13.8427,6.01311 13.7718,6.00655 13.7008,6 13.6287,6 Z"
         transform="rotate(9.9999875,-186.95055,1154.3188)"
         inkscape:connector-curvature="0"
         style="fill:#d1d7fa;fill-rule:evenodd;stroke:none" />
    </g>
    <g
       id="g207"
       clip-path="url(#clip_22)">
      <path
         id="path205"
         d="M 4.51049,9 C 7.00157,9 9.02098,6.98528 9.02098,4.5 9.02098,2.01472 7.00157,0 4.51049,0 2.01942,0 0,2.01472 0,4.5 0,6.98528 2.01942,9 4.51049,9 Z"
         transform="translate(40,100)"
         stroke-miterlimit="4"
         inkscape:connector-curvature="0"
         style="fill:none;stroke:#d1d7fa;stroke-width:3;stroke-miterlimit:4" />
    </g>
    <g
       id="g216"
       clip-path="url(#clip_23)">
      <path
         id="path214"
         d="M 2.25525,4.5 C 3.50078,4.5 4.51049,3.49264 4.51049,2.25 4.51049,1.00736 3.50078,0 2.25525,0 1.00971,0 0,1.00736 0,2.25 0,3.49264 1.00971,4.5 2.25525,4.5 Z"
         transform="translate(15,47)"
         inkscape:connector-curvature="0"
         style="fill:#d1d7fa;stroke:none" />
    </g>
    <g
       id="g225"
       clip-path="url(#clip_24)">
      <path
         id="path223"
         d="M 2.25525,4.5 C 3.50078,4.5 4.51049,3.49264 4.51049,2.25 4.51049,1.00736 3.50078,0 2.25525,0 1.00971,0 0,1.00736 0,2.25 0,3.49264 1.00971,4.5 2.25525,4.5 Z"
         transform="translate(15,47)"
         stroke-miterlimit="4"
         inkscape:connector-curvature="0"
         style="fill:none;stroke:#d1d7fa;stroke-width:3;stroke-miterlimit:4" />
    </g>
    <g
       id="g234"
       clip-path="url(#clip_25)">
      <path
         id="path232"
         d="M 2.25524,4.5 C 3.50078,4.5 4.51048,3.49264 4.51048,2.25 4.51048,1.00736 3.50078,0 2.25524,0 1.00971,0 0,1.00736 0,2.25 0,3.49264 1.00971,4.5 2.25524,4.5 Z"
         transform="translate(223,70)"
         inkscape:connector-curvature="0"
         style="fill:#d1d7fa;stroke:none" />
    </g>
    <g
       id="g243"
       clip-path="url(#clip_26)">
      <path
         id="path241"
         d="M 2.25524,4.5 C 3.50078,4.5 4.51048,3.49264 4.51048,2.25 4.51048,1.00736 3.50078,0 2.25524,0 1.00971,0 0,1.00736 0,2.25 0,3.49264 1.00971,4.5 2.25524,4.5 Z"
         transform="translate(223,70)"
         stroke-miterlimit="4"
         inkscape:connector-curvature="0"
         style="fill:none;stroke:#d1d7fa;stroke-width:3;stroke-miterlimit:4" />
    </g>
    <g
       id="g252"
       clip-path="url(#clip_27)">
      <path
         id="path250"
         d="M 8.01049,7 C 9.12085,7 10.021,6.10457 10.021,5 10.021,3.89543 9.12085,3 8.01049,3 6.90013,3 6,3.89543 6,5 6,6.10457 6.90013,7 8.01049,7 Z"
         transform="rotate(-24.999981,302.35241,-390.61043)"
         inkscape:connector-curvature="0"
         style="fill:#d1d7fa;stroke:none" />
    </g>
    <g
       id="g261"
       clip-path="url(#clip_28)">
      <path
         id="path259"
         d="M 8.01049,7 C 9.12085,7 10.021,6.10457 10.021,5 10.021,3.89543 9.12085,3 8.01049,3 6.90013,3 6,3.89543 6,5 6,6.10457 6.90013,7 8.01049,7 Z"
         transform="rotate(-24.999981,302.35241,-390.61043)"
         stroke-miterlimit="4"
         inkscape:connector-curvature="0"
         style="fill:none;stroke:#ffffff;stroke-width:4;stroke-miterlimit:4" />
    </g>
    <g
       id="g270"
       clip-path="url(#clip_29)">
      <path
         id="path268"
         d="M 11,13.1797 C 13.9318,11.8832 16,8.85598 16,6.12811 16,2.53826 12.4183,0 8,0 3.58172,0 0,2.53826 0,6.12811 0,8.85598 2.06817,11.8832 5,13.1797 v 2.8524 c 0,0 0.91196,1.5292 0.91196,1.8658 0,0.3366 -0.27763,1.2245 -0.27763,1.2245 0,0 1.08952,1.0879 1.08952,1.6304 0,0.5425 -1.08952,1.5413 -1.08952,1.5413 0,0 1.08952,0.992 1.08952,1.4848 0,0.4928 -0.65111,1.4141 -0.65111,1.4141 0,0 0.65111,1.0482 0.65111,1.6385 V 30 q 0,0.1025 0.00933,0.2034 0.00932,0.101 0.02788,0.1995 0.01857,0.0985 0.04623,0.1938 0.02766,0.0953 0.06419,0.1866 0.03653,0.0914 0.08163,0.1779 0.0451,0.0866 0.0984,0.1678 0.0533,0.0811 0.11437,0.1562 0.06106,0.075 0.1294,0.1434 0.06834,0.0683 0.14339,0.1294 0.07505,0.0611 0.1562,0.1144 0.08115,0.0533 0.16774,0.0984 0.08659,0.045 0.17791,0.0816 0.09133,0.0365 0.18663,0.0642 0.09531,0.0276 0.19383,0.0462 0.09852,0.0186 0.19944,0.0279 Q 8.62135,32 8.72385,32 H 9 q 0.10251,0 0.20343,-0.0093 0.10093,-0.0093 0.19944,-0.0279 0.09852,-0.0186 0.19383,-0.0462 0.09531,-0.0277 0.18663,-0.0642 0.09132,-0.0366 0.17791,-0.0816 0.08656,-0.0451 0.16776,-0.0985 0.0811,-0.0532 0.1562,-0.1143 0.075,-0.0611 0.1434,-0.1294 0.0683,-0.0684 0.1294,-0.1434 0.061,-0.0751 0.1143,-0.1562 0.0534,-0.0812 0.0984,-0.1678 0.0451,-0.0865 0.0817,-0.1779 0.0365,-0.0913 0.0642,-0.1866 0.0276,-0.0953 0.0462,-0.1938 0.0186,-0.0985 0.0279,-0.1995 Q 11,30.1025 11,30 Z"
         transform="rotate(-24.999981,302.35241,-390.61043)"
         inkscape:connector-curvature="0"
         style="fill:#d1d7fa;fill-rule:evenodd;stroke:none" />
    </g>
    <g
       id="g279"
       clip-path="url(#clip_30)">
      <path
         id="path277"
         d="M 8.01049,7 C 9.12085,7 10.021,6.10457 10.021,5 10.021,3.89543 9.12085,3 8.01049,3 6.90013,3 6,3.89543 6,5 6,6.10457 6.90013,7 8.01049,7 Z"
         transform="rotate(-56.000009,197.94368,-146.13569)"
         inkscape:connector-curvature="0"
         style="fill:#d1d7fa;stroke:none" />
    </g>
    <g
       id="g288"
       clip-path="url(#clip_31)">
      <path
         id="path286"
         d="M 8.01049,7 C 9.12085,7 10.021,6.10457 10.021,5 10.021,3.89543 9.12085,3 8.01049,3 6.90013,3 6,3.89543 6,5 6,6.10457 6.90013,7 8.01049,7 Z"
         transform="rotate(-56.000009,197.94368,-146.13569)"
         stroke-miterlimit="4"
         inkscape:connector-curvature="0"
         style="fill:none;stroke:#ffffff;stroke-width:4;stroke-miterlimit:4" />
    </g>
    <g
       id="g297"
       clip-path="url(#clip_32)">
      <path
         id="path295"
         d="M 11,13.1797 C 13.9318,11.8832 16,8.85598 16,6.12811 16,2.53826 12.4183,0 8,0 3.58172,0 0,2.53826 0,6.12811 0,8.85598 2.06817,11.8832 5,13.1797 v 2.8524 c 0,0 0.91196,1.5292 0.91196,1.8658 0,0.3366 -0.27763,1.2245 -0.27763,1.2245 0,0 1.08952,1.0879 1.08952,1.6304 0,0.5425 -1.08952,1.5413 -1.08952,1.5413 0,0 1.08952,0.992 1.08952,1.4848 0,0.4928 -0.65111,1.4141 -0.65111,1.4141 0,0 0.65111,1.0482 0.65111,1.6385 V 30 q 0,0.1025 0.00933,0.2034 0.00932,0.101 0.02788,0.1995 0.01857,0.0985 0.04623,0.1938 0.02766,0.0953 0.06419,0.1866 0.03653,0.0914 0.08163,0.1779 0.0451,0.0866 0.0984,0.1678 0.0533,0.0811 0.11437,0.1562 0.06106,0.075 0.1294,0.1434 0.06834,0.0683 0.14339,0.1294 0.07505,0.0611 0.1562,0.1144 0.08115,0.0533 0.16774,0.0984 0.08659,0.045 0.17791,0.0816 0.09133,0.0365 0.18663,0.0642 0.09531,0.0276 0.19383,0.0462 0.09852,0.0186 0.19944,0.0279 Q 8.62135,32 8.72385,32 H 9 q 0.10251,0 0.20343,-0.0093 0.10093,-0.0093 0.19944,-0.0279 0.09852,-0.0186 0.19383,-0.0462 0.09531,-0.0277 0.18663,-0.0642 0.09132,-0.0366 0.17791,-0.0816 0.08656,-0.0451 0.16776,-0.0985 0.0811,-0.0532 0.1562,-0.1143 0.075,-0.0611 0.1434,-0.1294 0.0683,-0.0684 0.1294,-0.1434 0.061,-0.0751 0.1143,-0.1562 0.0534,-0.0812 0.0984,-0.1678 0.0451,-0.0865 0.0817,-0.1779 0.0365,-0.0913 0.0642,-0.1866 0.0276,-0.0953 0.0462,-0.1938 0.0186,-0.0985 0.0279,-0.1995 Q 11,30.1025 11,30 Z"
         transform="rotate(-56.000009,197.94368,-146.13569)"
         inkscape:connector-curvature="0"
         style="fill:#d1d7fa;fill-rule:evenodd;stroke:none" />
    </g>
    <g
       id="g306"
       clip-path="url(#clip_33)">
      <path
         id="path304"
         d="m 4.07151,30.047 c 0.82843,0 1.5,-0.6716 1.5,-1.5 0,-0.8285 -0.67157,-1.5 -1.5,-1.5 -0.82843,0 -1.5,0.6715 -1.5,1.5 0,0.8284 0.67157,1.5 1.5,1.5 z"
         transform="rotate(-17.999992,218.32004,10.47948)"
         inkscape:connector-curvature="0"
         style="fill:#d1d7fa;stroke:none" />
    </g>
    <g
       id="g315"
       clip-path="url(#clip_34)">
      <path
         id="path313"
         d="m 4.07151,30.047 c 0.82843,0 1.5,-0.6716 1.5,-1.5 0,-0.8285 -0.67157,-1.5 -1.5,-1.5 -0.82843,0 -1.5,0.6715 -1.5,1.5 0,0.8284 0.67157,1.5 1.5,1.5 z"
         transform="rotate(-17.999992,218.32004,10.47948)"
         stroke-miterlimit="4"
         inkscape:connector-curvature="0"
         style="fill:none;stroke:#ffffff;stroke-width:4;stroke-miterlimit:4" />
    </g>
    <g
       id="g324"
       clip-path="url(#clip_35)">
      <path
         id="path322"
         d="m 11,17 v 0 q 0.205,0 0.4069,0.0186 0.2018,0.0187 0.3988,0.0558 0.1971,0.0372 0.3877,0.0925 0.1906,0.0553 0.3733,0.1283 0.1826,0.0731 0.3558,0.1633 0.1732,0.0902 0.3355,0.1968 0.1623,0.1066 0.3124,0.2287 0.1501,0.1222 0.2867,0.2589 0.1367,0.1366 0.2589,0.2867 0.1221,0.1501 0.2287,0.3124 0.1066,0.1623 0.1968,0.3355 0.0902,0.1732 0.1633,0.3558 0.073,0.1827 0.1283,0.3733 0.0554,0.1906 0.0925,0.3877 0.0371,0.197 0.0558,0.3988 Q 15,20.795 15,21 v 19 q 0,0.205 -0.0186,0.4069 -0.0187,0.2018 -0.0558,0.3989 -0.0372,0.197 -0.0925,0.3876 -0.0553,0.1906 -0.1283,0.3733 -0.0731,0.1826 -0.1633,0.3558 -0.0902,0.1732 -0.1968,0.3355 -0.1066,0.1623 -0.2287,0.3124 -0.1222,0.1501 -0.2589,0.2867 -0.1366,0.1367 -0.2867,0.2589 -0.1501,0.1221 -0.3124,0.2287 -0.1623,0.1066 -0.3355,0.1968 -0.1732,0.0902 -0.3558,0.1633 -0.1827,0.073 -0.3733,0.1283 -0.1906,0.0554 -0.3877,0.0925 -0.197,0.0371 -0.3988,0.0558 Q 11.205,44 11,44 v 0 Q 10.795,44 10.5931,43.9814 10.3913,43.9627 10.1943,43.9256 9.99721,43.8885 9.8066,43.8331 9.61598,43.7778 9.43334,43.7048 9.2507,43.6317 9.07752,43.5415 8.90434,43.4513 8.74204,43.3447 8.57974,43.2381 8.42964,43.116 8.27953,42.9938 8.14286,42.8571 8.00618,42.7205 7.88404,42.5704 7.76191,42.4203 7.6553,42.258 7.5487,42.0957 7.4585,41.9225 7.36831,41.7493 7.29525,41.5667 7.22219,41.384 7.16687,41.1934 7.11155,41.0028 7.07442,40.8058 7.03729,40.6087 7.01864,40.4069 7,40.205 7,40 V 21 Q 7,20.795 7.01864,20.5931 7.03729,20.3913 7.07442,20.1943 7.11155,19.9972 7.16687,19.8066 7.22219,19.616 7.29525,19.4333 7.36831,19.2507 7.4585,19.0775 7.5487,18.9043 7.6553,18.742 7.76191,18.5797 7.88404,18.4296 8.00618,18.2795 8.14286,18.1429 8.27953,18.0062 8.42964,17.884 q 0.1501,-0.1221 0.3124,-0.2287 0.1623,-0.1066 0.33548,-0.1968 0.17318,-0.0902 0.35582,-0.1633 0.18264,-0.073 0.37326,-0.1283 0.19061,-0.0553 0.3877,-0.0925 0.197,-0.0371 0.3988,-0.0558 Q 10.795,17 11,17 Z"
         transform="rotate(34.999981,-70.408256,81.678613)"
         inkscape:connector-curvature="0"
         style="fill:#d1d7fa;stroke:none" />
    </g>
    <g
       id="g333"
       clip-path="url(#clip_36)">
      <path
         id="path331"
         d="m 11,17 v 0 q 0.205,0 0.4069,0.0186 0.2018,0.0187 0.3988,0.0558 0.1971,0.0372 0.3877,0.0925 0.1906,0.0553 0.3733,0.1283 0.1826,0.0731 0.3558,0.1633 0.1732,0.0902 0.3355,0.1968 0.1623,0.1066 0.3124,0.2287 0.1501,0.1222 0.2867,0.2589 0.1367,0.1366 0.2589,0.2867 0.1221,0.1501 0.2287,0.3124 0.1066,0.1623 0.1968,0.3355 0.0902,0.1732 0.1633,0.3558 0.073,0.1827 0.1283,0.3733 0.0554,0.1906 0.0925,0.3877 0.0371,0.197 0.0558,0.3988 Q 15,20.795 15,21 v 19 q 0,0.205 -0.0186,0.4069 -0.0187,0.2018 -0.0558,0.3989 -0.0372,0.197 -0.0925,0.3876 -0.0553,0.1906 -0.1283,0.3733 -0.0731,0.1826 -0.1633,0.3558 -0.0902,0.1732 -0.1968,0.3355 -0.1066,0.1623 -0.2287,0.3124 -0.1222,0.1501 -0.2589,0.2867 -0.1366,0.1367 -0.2867,0.2589 -0.1501,0.1221 -0.3124,0.2287 -0.1623,0.1066 -0.3355,0.1968 -0.1732,0.0902 -0.3558,0.1633 -0.1827,0.073 -0.3733,0.1283 -0.1906,0.0554 -0.3877,0.0925 -0.197,0.0371 -0.3988,0.0558 Q 11.205,44 11,44 v 0 Q 10.795,44 10.5931,43.9814 10.3913,43.9627 10.1943,43.9256 9.99721,43.8885 9.8066,43.8331 9.61598,43.7778 9.43334,43.7048 9.2507,43.6317 9.07752,43.5415 8.90434,43.4513 8.74204,43.3447 8.57974,43.2381 8.42964,43.116 8.27953,42.9938 8.14286,42.8571 8.00618,42.7205 7.88404,42.5704 7.76191,42.4203 7.6553,42.258 7.5487,42.0957 7.4585,41.9225 7.36831,41.7493 7.29525,41.5667 7.22219,41.384 7.16687,41.1934 7.11155,41.0028 7.07442,40.8058 7.03729,40.6087 7.01864,40.4069 7,40.205 7,40 V 21 Q 7,20.795 7.01864,20.5931 7.03729,20.3913 7.07442,20.1943 7.11155,19.9972 7.16687,19.8066 7.22219,19.616 7.29525,19.4333 7.36831,19.2507 7.4585,19.0775 7.5487,18.9043 7.6553,18.742 7.76191,18.5797 7.88404,18.4296 8.00618,18.2795 8.14286,18.1429 8.27953,18.0062 8.42964,17.884 q 0.1501,-0.1221 0.3124,-0.2287 0.1623,-0.1066 0.33548,-0.1968 0.17318,-0.0902 0.35582,-0.1633 0.18264,-0.073 0.37326,-0.1283 0.19061,-0.0553 0.3877,-0.0925 0.197,-0.0371 0.3988,-0.0558 Q 10.795,17 11,17 Z"
         transform="rotate(34.999981,-70.408256,81.678613)"
         stroke-miterlimit="4"
         inkscape:connector-curvature="0"
         style="fill:none;stroke:#ffffff;stroke-width:4;stroke-miterlimit:4" />
    </g>
    <g
       id="g342"
       clip-path="url(#clip_37)">
      <path
         id="path340"
         d="M 7,-4.17798e-8 C 2.90264,1.60014 0,5.58615 0,10.2501 c 0,6.0752 4.92487,11 11,11 6.0751,0 11,-4.9248 11,-11 C 22,5.58615 19.0974,1.60014 15,-4.17798e-8 V 9.25012 q 0,0.20502 -0.0186,0.40687 -0.0187,0.20184 -0.0558,0.39891 -0.0372,0.197 -0.0925,0.3876 -0.0553,0.1906 -0.1283,0.3733 -0.0731,0.1826 -0.1633,0.3558 -0.0902,0.1732 -0.1968,0.3355 -0.1066,0.1623 -0.2287,0.3124 -0.1222,0.1501 -0.2589,0.2868 -0.1366,0.1366 -0.2867,0.2588 -0.1501,0.1221 -0.3124,0.2287 -0.1623,0.1066 -0.3355,0.1968 -0.1732,0.0902 -0.3558,0.1633 -0.1827,0.073 -0.3733,0.1284 -0.1906,0.0553 -0.3877,0.0924 -0.197,0.0371 -0.3988,0.0558 -0.2019,0.0186 -0.4069,0.0186 -0.205,0 -0.4069,-0.0186 Q 10.3913,13.2128 10.1943,13.1757 9.99721,13.1386 9.8066,13.0833 9.61598,13.0279 9.43334,12.9549 9.2507,12.8818 9.07752,12.7916 8.90434,12.7014 8.74204,12.5948 8.57974,12.4882 8.42964,12.3661 8.27953,12.2439 8.14286,12.1073 8.00618,11.9706 7.88404,11.8205 7.76191,11.6704 7.6553,11.5081 7.5487,11.3458 7.4585,11.1726 7.36831,10.9994 7.29525,10.8168 7.22219,10.6341 7.16687,10.4435 7.11155,10.2529 7.07442,10.0559 7.03729,9.85883 7.01864,9.65698 7,9.45514 7,9.25012 Z"
         transform="rotate(34.999981,-70.408256,81.678613)"
         inkscape:connector-curvature="0"
         style="fill:#d8d8d8;fill-rule:evenodd;stroke:none" />
    </g>
    <g
       id="g351"
       clip-path="url(#clip_38)">
      <path
         id="path349"
         d="M 7,-4.17798e-8 C 2.90264,1.60014 0,5.58615 0,10.2501 c 0,6.0752 4.92487,11 11,11 6.0751,0 11,-4.9248 11,-11 C 22,5.58615 19.0974,1.60014 15,-4.17798e-8 V 9.25012 q 0,0.20502 -0.0186,0.40687 -0.0187,0.20184 -0.0558,0.39891 -0.0372,0.197 -0.0925,0.3876 -0.0553,0.1906 -0.1283,0.3733 -0.0731,0.1826 -0.1633,0.3558 -0.0902,0.1732 -0.1968,0.3355 -0.1066,0.1623 -0.2287,0.3124 -0.1222,0.1501 -0.2589,0.2868 -0.1366,0.1366 -0.2867,0.2588 -0.1501,0.1221 -0.3124,0.2287 -0.1623,0.1066 -0.3355,0.1968 -0.1732,0.0902 -0.3558,0.1633 -0.1827,0.073 -0.3733,0.1284 -0.1906,0.0553 -0.3877,0.0924 -0.197,0.0371 -0.3988,0.0558 -0.2019,0.0186 -0.4069,0.0186 -0.205,0 -0.4069,-0.0186 Q 10.3913,13.2128 10.1943,13.1757 9.99721,13.1386 9.8066,13.0833 9.61598,13.0279 9.43334,12.9549 9.2507,12.8818 9.07752,12.7916 8.90434,12.7014 8.74204,12.5948 8.57974,12.4882 8.42964,12.3661 8.27953,12.2439 8.14286,12.1073 8.00618,11.9706 7.88404,11.8205 7.76191,11.6704 7.6553,11.5081 7.5487,11.3458 7.4585,11.1726 7.36831,10.9994 7.29525,10.8168 7.22219,10.6341 7.16687,10.4435 7.11155,10.2529 7.07442,10.0559 7.03729,9.85883 7.01864,9.65698 7,9.45514 7,9.25012 Z"
         transform="rotate(34.999981,-70.408256,81.678613)"
         stroke-miterlimit="4"
         inkscape:connector-curvature="0"
         style="fill:none;fill-rule:evenodd;stroke:#979797;stroke-width:1;stroke-miterlimit:4" />
    </g>
    <g
       id="g360"
       clip-path="url(#clip_39)">
      <path
         id="path358"
         d="m 11.9924,8.61464 c -1,0 7.6497,0 9.4306,0 1.7809,0 0.6041,-6.07007 -2.1692,-6.07007 -1.7147,0 -3.1091,1.02341 -4.0758,1.94049 -0.9668,0.91708 -4.1856,4.12958 -4.1856,4.12958 z"
         transform="translate(93,137)"
         inkscape:connector-curvature="0"
         style="fill:#d1d7fa;stroke:none" />
    </g>
    <g
       id="g369"
       clip-path="url(#clip_40)">
      <path
         id="path367"
         d="m 11.9924,8.61464 c -1,0 7.6497,0 9.4306,0 1.7809,0 0.6041,-6.07007 -2.1692,-6.07007 -1.7147,0 -3.1091,1.02341 -4.0758,1.94049 -0.9668,0.91708 -4.1856,4.12958 -4.1856,4.12958 z"
         transform="translate(93,137)"
         stroke-miterlimit="4"
         inkscape:connector-curvature="0"
         style="vector-effect:non-scaling-stroke;fill:none;stroke:#d1d7fa;stroke-width:1;stroke-miterlimit:4" />
    </g>
    <g
       id="g378"
       clip-path="url(#clip_41)">
      <path
         id="path376"
         d="M 24,0 H 23 Q 22.6412,0 22.265,0.0231709 21.8888,0.0463419 21.4983,0.0924948 21.1077,0.138648 20.706,0.207406 20.3042,0.276164 19.8946,0.366968 19.485,0.457771 19.0708,0.569878 18.6566,0.681985 18.2413,0.814482 17.8259,0.946979 17.4128,1.09879 16.9996,1.25059 16.5921,1.42047 16.1845,1.59035 15.7859,1.77691 15.3872,1.96347 15.0007,2.1652 14.6142,2.36692 14.243,2.58217 13.8718,2.79741 13.519,3.02442 13.1661,3.25143 12.8345,3.48835 12.5028,3.72527 12.1951,3.97017 11.8874,4.21506 11.6061,4.46594 11.3248,4.71682 11.0722,4.97164 L 7.86244,8.21002 Q 7.64976,8.25274 7.43997,8.30403 7.23019,8.35533 7.02362,8.41511 6.81706,8.4749 6.61403,8.54309 6.41101,8.61127 6.21183,8.68776 6.01265,8.76425 5.81763,8.84891 5.6226,8.93358 5.43203,9.0263 5.24146,9.11901 5.05564,9.21964 4.86981,9.32026 4.68902,9.42864 4.50823,9.53702 4.33274,9.65299 4.15726,9.76895 3.98735,9.89233 3.81744,10.0157 3.65337,10.1463 3.4893,10.2769 3.33132,10.4145 3.17335,10.5521 3.0217,10.6966 2.87005,10.841 2.72497,10.992 2.57989,11.143 2.44159,11.3004 2.3033,11.4577 2.17201,11.6212 q -0.1313,0.1635 -0.25539,0.3328 -0.12409,0.1694 -0.2408,0.3443 -0.1167,0.175 -0.22583,0.3553 -0.10913,0.1803 -0.21052,0.3656 -0.1014,0.1853 -0.1949,0.3755 Q 0.951075,13.5848 0.865612,13.7794 0.78015,13.974 0.702855,14.1728 0.625561,14.3715 0.556553,14.5742 0.487545,14.7769 0.42693,14.9831 0.366315,15.1893 0.314185,15.3988 0.262056,15.6083 0.218492,15.8207 0.174928,16.0331 0.139996,16.2481 0.105064,16.4632 0.0788181,16.6805 0.0525723,16.8977 0.0350527,17.117 0.0175331,17.3362 0.00876654,17.5571 0,17.7779 0,18 v 2 h 42 q 0.1025,0 0.2034,-0.0093 0.101,-0.0093 0.1995,-0.0279 0.0985,-0.0186 0.1938,-0.0462 0.0953,-0.0277 0.1866,-0.0642 0.0914,-0.0366 0.1779,-0.0816 0.0866,-0.0451 0.1678,-0.0985 0.0811,-0.0533 0.1562,-0.1143 0.075,-0.0611 0.1434,-0.1294 0.0683,-0.0684 0.1294,-0.1434 0.061,-0.0751 0.1144,-0.1562 0.0533,-0.0812 0.0984,-0.1678 0.0451,-0.0865 0.0816,-0.1779 0.0365,-0.0913 0.0642,-0.1866 0.0276,-0.0953 0.0462,-0.1938 0.0186,-0.0985 0.0279,-0.1995 Q 44,18.1025 44,18 V 8 H 38.9513 L 35.9346,4.96484 Q 35.6817,4.71037 35.4001,4.45984 35.1184,4.2093 34.8104,3.96474 34.5023,3.72017 34.1703,3.48358 33.8384,3.24698 33.4852,3.02029 33.132,2.79359 32.7606,2.57864 32.3891,2.36369 32.0023,2.16224 31.6155,1.96079 31.2166,1.77448 30.8177,1.58817 30.4099,1.41853 30.0021,1.24888 29.5887,1.09728 29.1754,0.945684 28.7598,0.813368 28.3443,0.681053 27.93,0.569099 27.5156,0.457145 27.1059,0.366466 26.6961,0.275787 26.2943,0.207122 25.8925,0.138458 25.5019,0.0923683 25.1112,0.0462785 24.735,0.0231393 24.3588,0 24,0 Z"
         transform="translate(93,137)"
         inkscape:connector-curvature="0"
         style="fill:#d1d7fa;fill-rule:evenodd;stroke:none" />
    </g>
    <g
       id="g387"
       clip-path="url(#clip_42)">
      <path
         id="path385"
         d="M 24,0 H 23 Q 22.6412,0 22.265,0.0231709 21.8888,0.0463419 21.4983,0.0924948 21.1077,0.138648 20.706,0.207406 20.3042,0.276164 19.8946,0.366968 19.485,0.457771 19.0708,0.569878 18.6566,0.681985 18.2413,0.814482 17.8259,0.946979 17.4128,1.09879 16.9996,1.25059 16.5921,1.42047 16.1845,1.59035 15.7859,1.77691 15.3872,1.96347 15.0007,2.1652 14.6142,2.36692 14.243,2.58217 13.8718,2.79741 13.519,3.02442 13.1661,3.25143 12.8345,3.48835 12.5028,3.72527 12.1951,3.97017 11.8874,4.21506 11.6061,4.46594 11.3248,4.71682 11.0722,4.97164 L 7.86244,8.21002 Q 7.64976,8.25274 7.43997,8.30403 7.23019,8.35533 7.02362,8.41511 6.81706,8.4749 6.61403,8.54309 6.41101,8.61127 6.21183,8.68776 6.01265,8.76425 5.81763,8.84891 5.6226,8.93358 5.43203,9.0263 5.24146,9.11901 5.05564,9.21964 4.86981,9.32026 4.68902,9.42864 4.50823,9.53702 4.33274,9.65299 4.15726,9.76895 3.98735,9.89233 3.81744,10.0157 3.65337,10.1463 3.4893,10.2769 3.33132,10.4145 3.17335,10.5521 3.0217,10.6966 2.87005,10.841 2.72497,10.992 2.57989,11.143 2.44159,11.3004 2.3033,11.4577 2.17201,11.6212 q -0.1313,0.1635 -0.25539,0.3328 -0.12409,0.1694 -0.2408,0.3443 -0.1167,0.175 -0.22583,0.3553 -0.10913,0.1803 -0.21052,0.3656 -0.1014,0.1853 -0.1949,0.3755 Q 0.951075,13.5848 0.865612,13.7794 0.78015,13.974 0.702855,14.1728 0.625561,14.3715 0.556553,14.5742 0.487545,14.7769 0.42693,14.9831 0.366315,15.1893 0.314185,15.3988 0.262056,15.6083 0.218492,15.8207 0.174928,16.0331 0.139996,16.2481 0.105064,16.4632 0.0788181,16.6805 0.0525723,16.8977 0.0350527,17.117 0.0175331,17.3362 0.00876654,17.5571 0,17.7779 0,18 v 2 h 42 q 0.1025,0 0.2034,-0.0093 0.101,-0.0093 0.1995,-0.0279 0.0985,-0.0186 0.1938,-0.0462 0.0953,-0.0277 0.1866,-0.0642 0.0914,-0.0366 0.1779,-0.0816 0.0866,-0.0451 0.1678,-0.0985 0.0811,-0.0533 0.1562,-0.1143 0.075,-0.0611 0.1434,-0.1294 0.0683,-0.0684 0.1294,-0.1434 0.061,-0.0751 0.1144,-0.1562 0.0533,-0.0812 0.0984,-0.1678 0.0451,-0.0865 0.0816,-0.1779 0.0365,-0.0913 0.0642,-0.1866 0.0276,-0.0953 0.0462,-0.1938 0.0186,-0.0985 0.0279,-0.1995 Q 44,18.1025 44,18 V 8 H 38.9513 L 35.9346,4.96484 Q 35.6817,4.71037 35.4001,4.45984 35.1184,4.2093 34.8104,3.96474 34.5023,3.72017 34.1703,3.48358 33.8384,3.24698 33.4852,3.02029 33.132,2.79359 32.7606,2.57864 32.3891,2.36369 32.0023,2.16224 31.6155,1.96079 31.2166,1.77448 30.8177,1.58817 30.4099,1.41853 30.0021,1.24888 29.5887,1.09728 29.1754,0.945684 28.7598,0.813368 28.3443,0.681053 27.93,0.569099 27.5156,0.457145 27.1059,0.366466 26.6961,0.275787 26.2943,0.207122 25.8925,0.138458 25.5019,0.0923683 25.1112,0.0462785 24.735,0.0231393 24.3588,0 24,0 Z"
         transform="translate(93,137)"
         stroke-miterlimit="4"
         inkscape:connector-curvature="0"
         style="fill:none;fill-rule:evenodd;stroke:#d1d7fa;stroke-width:6;stroke-miterlimit:4" />
    </g>
    <g
       id="g396"
       clip-path="url(#clip_43)">
      <path
         id="path394"
         d="M 6,12 C 9.31371,12 12,9.31371 12,6 12,2.68629 9.31371,0 6,0 2.68629,0 0,2.68629 0,6 c 0,3.31371 2.68629,6 6,6 z"
         transform="translate(100,150)"
         inkscape:connector-curvature="0"
         style="fill:#f9faff;stroke:none" />
    </g>
    <g
       id="g405"
       clip-path="url(#clip_44)">
      <path
         id="path403"
         d="M 6,12 C 9.31371,12 12,9.31371 12,6 12,2.68629 9.31371,0 6,0 2.68629,0 0,2.68629 0,6 c 0,3.31371 2.68629,6 6,6 z"
         transform="translate(100,150)"
         stroke-miterlimit="4"
         inkscape:connector-curvature="0"
         style="fill:none;stroke:#d1d7fa;stroke-width:6.4000001;stroke-miterlimit:4" />
    </g>
    <g
       id="g414"
       clip-path="url(#clip_45)">
      <path
         id="path412"
         d="M 6,12 C 9.31371,12 12,9.31371 12,6 12,2.68629 9.31371,0 6,0 2.68629,0 0,2.68629 0,6 c 0,3.31371 2.68629,6 6,6 z"
         transform="translate(119,150)"
         inkscape:connector-curvature="0"
         style="fill:#f9faff;stroke:none" />
    </g>
    <g
       id="g423"
       clip-path="url(#clip_46)">
      <path
         id="path421"
         d="M 6,12 C 9.31371,12 12,9.31371 12,6 12,2.68629 9.31371,0 6,0 2.68629,0 0,2.68629 0,6 c 0,3.31371 2.68629,6 6,6 z"
         transform="translate(119,150)"
         stroke-miterlimit="4"
         inkscape:connector-curvature="0"
         style="fill:none;stroke:#d1d7fa;stroke-width:6.4000001;stroke-miterlimit:4" />
    </g>
  </g>
</svg>
