  <svg width="33px" height="19px" viewBox="0 0 33 19" version="1.1" xmlns="http://www.w3.org/2000/svg" xmlns:xlink="http://www.w3.org/1999/xlink">
    <g id="Tablet" stroke="none" stroke-width="1" fill="none" fill-rule="evenodd">
      <g class="squiggle" id="Home---New-Recommendations---Service-Summary" transform="translate(-558.000000, -493.000000)" fill="#4a4a4a" fill-rule="nonzero">
        <g id="Group-2" transform="translate(520.000000, 377.000000)">
          <path d="M40.2250468,134.387241 C40.2250468,134.34639 42.5951533,129.730273 45.7920412,125.359259 C49.4849979,120.212084 52.9574795,117.352542 55.0519923,117.842749 C55.2724673,117.883599 55.3827048,117.965301 55.4929423,118.087852 C56.2646049,119.190819 54.666161,122.540568 53.4535483,125.236707 C51.8551044,128.709008 50.3117792,131.977056 51.5243918,133.774482 C51.9102231,134.34639 52.5165295,134.754896 53.3433108,134.918299 C53.6189046,135 53.8944984,135 54.1149734,135 C56.3748424,135 57.6425738,132.508114 58.8551864,130.097928 C59.406374,128.994962 60.0126803,127.851145 60.6189867,127.074984 C60.9496992,126.625627 61.225293,126.421374 61.3906492,126.380524 C61.445768,126.82988 61.1150555,127.932847 60.8945804,128.586456 C60.3433929,130.302181 59.7922053,131.977056 61.0599367,132.875769 C62.7134994,134.060436 67.8946625,133.447677 70.044294,133.120872 C70.7057191,133.039171 71.0915504,132.548964 70.9813129,132.099608 C70.8710753,131.6094 70.2096503,131.323446 69.6033439,131.405147 C66.5718123,131.854504 63.3198057,131.977056 62.7134994,131.650251 C62.4379056,131.323446 62.9339744,129.771123 63.2095682,128.994962 C63.8158745,127.197536 64.4772996,125.155006 62.2725493,124.664799 C59.5166115,124.05204 58.0835239,126.78903 56.7055549,129.485169 C56.2094861,130.506434 55.6582986,131.527699 55.107111,132.303861 C54.4456859,133.202574 54.1149734,133.243424 54.1149734,133.243424 C54.1149734,133.243424 54.1149734,133.243424 54.0598546,133.243424 C53.8393796,133.202574 53.7291421,133.120872 53.6189046,132.95747 C52.847242,131.813653 54.4456859,128.463904 55.7134173,125.767765 C57.4220988,122.132062 58.8551864,119.027416 57.6425738,117.27084 C57.2567425,116.698932 56.5953174,116.331277 55.7685361,116.127024 C52.2960544,115.350862 48.3826227,118.128703 43.7526472,124.542247 C40.5557593,128.994962 38.130534,133.692781 38.0754153,133.733631 C37.8549403,134.182988 38.130534,134.673195 38.7368404,134.877448 C39.2880279,135.081701 40.0045718,134.836598 40.2250468,134.387241 Z" id="Shape"></path>
        </g>
      </g>
    </g>
  </svg>