<?xml version="1.0" standalone="no"?>
<!DOCTYPE svg PUBLIC "-//W3C//DTD SVG 20010904//EN"
 "http://www.w3.org/TR/2001/REC-SVG-20010904/DTD/svg10.dtd">
<svg version="1.0" xmlns="http://www.w3.org/2000/svg"
 width="250.000000pt" height="250.000000pt" viewBox="0 0 250.000000 250.000000"
 preserveAspectRatio="xMidYMid meet">
<metadata>
Created by potrace 1.11, written by Peter Selinger 2001-2013
</metadata>
<g transform="translate(0.000000,250.000000) scale(0.100000,-0.100000)"
fill="#000000" stroke="none">
<path d="M1817 2185 c-37 -52 -73 -95 -79 -95 -6 0 -26 9 -44 21 -19 11 -34
18 -34 14 0 -3 -10 0 -22 7 -13 7 -25 13 -28 13 -3 1 -30 9 -60 18 -30 10 -71
20 -90 23 -19 3 -42 7 -50 10 -37 14 -268 13 -340 -1 -41 -9 -84 -17 -95 -19
-26 -5 -117 -41 -175 -69 -68 -33 -168 -104 -219 -157 -65 -66 -112 -120 -106
-120 3 0 -3 -9 -13 -21 -39 -41 -112 -205 -133 -299 -22 -98 -33 -267 -17
-276 11 -7 406 -9 412 -3 2 2 6 42 9 89 7 96 27 163 71 234 29 48 123 146 139
146 5 0 21 8 35 19 30 20 119 52 166 58 66 9 190 4 246 -10 109 -27 109 -25
39 -120 -33 -45 -58 -88 -57 -97 3 -13 33 -15 228 -12 236 2 242 2 263 2 19
-1 241 7 248 9 22 4 18 52 -8 121 -3 8 -7 20 -8 26 -5 21 -48 159 -56 179 -8
20 -64 204 -98 319 -10 33 -26 65 -37 73 -18 12 -25 6 -87 -82z"/>
<path d="M1763 1216 c-7 -214 -93 -367 -250 -446 -26 -14 -51 -25 -55 -26 -5
-1 -9 -2 -10 -4 -5 -3 -42 -12 -64 -14 -11 -1 -24 -5 -30 -8 -14 -9 -214 -1
-254 10 -50 14 -90 30 -90 38 0 9 73 108 82 112 5 2 8 8 8 14 0 5 7 16 15 25
9 8 15 23 13 32 -3 14 -29 16 -253 14 -440 -3 -478 -4 -497 -20 -19 -17 -19
-17 22 -148 41 -129 81 -257 84 -270 2 -5 6 -23 11 -40 4 -16 10 -34 14 -40 3
-5 6 -14 7 -20 1 -5 16 -54 33 -108 24 -73 36 -97 49 -97 15 1 99 107 127 161
15 28 32 31 68 9 17 -11 40 -20 50 -20 9 0 17 -4 17 -10 0 -5 10 -10 23 -10
13 0 27 -4 32 -9 10 -9 127 -37 199 -48 114 -17 314 -2 426 32 3 1 23 7 45 13
56 17 169 76 240 127 91 65 190 175 235 263 14 26 28 49 31 52 5 4 19 35 24
50 1 3 14 43 29 90 31 97 35 120 41 248 4 92 4 93 -18 92 -12 -1 -24 -1 -27 0
-16 6 -82 5 -86 -2 -3 -4 -15 -4 -27 0 -19 7 -84 8 -112 2 -5 -1 -12 -1 -15 0
-16 6 -82 5 -86 -2 -3 -4 -15 -3 -27 1 -22 8 -23 6 -24 -43z"/>
</g>
</svg>
