<?xml version="1.0" standalone="no"?>
<!DOCTYPE svg PUBLIC "-//W3C//DTD SVG 20010904//EN"
 "http://www.w3.org/TR/2001/REC-SVG-20010904/DTD/svg10.dtd">
<svg version="1.0" xmlns="http://www.w3.org/2000/svg"
 width="300.000000pt" height="300.000000pt" viewBox="0 0 300.000000 300.000000"
 preserveAspectRatio="xMidYMid meet">
<metadata>
Created by potrace 1.11, written by Peter Selinger 2001-2013
</metadata>
<g transform="translate(0.000000,300.000000) scale(0.100000,-0.100000)"
fill="#000000" stroke="none">
<path d="M1908 2745 c-2 -11 -3 -225 -3 -475 l1 -455 62 -3 62 -3 2 413 3 413
34 -90 c19 -49 40 -103 47 -120 7 -16 45 -118 84 -225 40 -107 74 -197 76
-199 9 -11 116 -7 127 4 7 6 64 150 127 319 l115 307 3 -411 2 -410 64 0 64 0
-2 478 -1 477 -88 0 c-49 0 -92 -2 -97 -5 -4 -3 -31 -68 -60 -145 -29 -77 -58
-153 -65 -170 -7 -16 -36 -94 -66 -172 -29 -79 -55 -143 -58 -143 -3 0 -57
139 -120 308 -63 169 -118 311 -123 317 -5 5 -49 10 -98 10 -81 0 -89 -2 -92
-20z"/>
<path d="M380 2256 c0 -446 1 -476 18 -477 59 -4 314 0 361 5 189 20 308 91
371 220 39 79 45 116 45 261 -1 266 -102 396 -350 451 -16 4 -123 9 -237 11
l-208 5 0 -476z m409 355 c168 -36 245 -134 254 -321 9 -177 -45 -305 -151
-359 -65 -33 -124 -44 -254 -46 l-128 -3 0 368 c0 201 2 369 4 371 9 8 226 1
275 -10z"/>
<path d="M487 1230 c-10 -4 -13 -109 -12 -475 l0 -470 59 -3 c33 -2 62 1 65 6
3 6 6 92 5 191 0 121 3 181 10 182 6 0 61 2 121 3 124 3 163 10 220 39 87 43
127 113 131 231 6 155 -63 252 -203 285 -51 13 -371 21 -396 11z m358 -117
c76 -26 111 -84 107 -176 -3 -77 -42 -133 -111 -156 -19 -6 -80 -11 -136 -11
l-101 0 1 178 c1 97 3 178 4 179 5 9 204 -3 236 -14z"/>
<path d="M2281 1212 c-8 -3 -11 -145 -11 -478 l0 -474 65 0 65 0 0 475 0 475
-27 1 c-16 0 -40 2 -55 3 -14 1 -31 0 -37 -2z"/>
</g>
</svg>
