<?xml version="1.0" encoding="UTF-8" standalone="no"?>
<svg
   xmlns:dc="http://purl.org/dc/elements/1.1/"
   xmlns:cc="http://creativecommons.org/ns#"
   xmlns:rdf="http://www.w3.org/1999/02/22-rdf-syntax-ns#"
   xmlns:svg="http://www.w3.org/2000/svg"
   xmlns="http://www.w3.org/2000/svg"
   xmlns:sodipodi="http://sodipodi.sourceforge.net/DTD/sodipodi-0.dtd"
   xmlns:inkscape="http://www.inkscape.org/namespaces/inkscape"
   data-name="Layer 1"
   viewBox="0 0 100 86.60186"
   x="0px"
   y="0px"
   version="1.1"
   id="svg843"
   sodipodi:docname="dish.svg"
   width="100%"
   height="auto"
   inkscape:version="0.92.3 (2405546, 2018-03-11)">
  <metadata
     id="metadata849">
    <rdf:RDF>
      <cc:Work
         rdf:about="">
        <dc:format>image/svg+xml</dc:format>
        <dc:type
           rdf:resource="http://purl.org/dc/dcmitype/StillImage" />
        <dc:title>33</dc:title>
      </cc:Work>
    </rdf:RDF>
  </metadata>
  <defs
     id="defs847" />
  <sodipodi:namedview
     pagecolor="#ffffff"
     bordercolor="#666666"
     borderopacity="1"
     objecttolerance="10"
     gridtolerance="10"
     guidetolerance="10"
     inkscape:pageopacity="0"
     inkscape:pageshadow="2"
     inkscape:window-width="1920"
     inkscape:window-height="1001"
     id="namedview845"
     showgrid="false"
     fit-margin-top="0"
     fit-margin-left="0"
     fit-margin-right="0"
     fit-margin-bottom="0"
     inkscape:zoom="6.464"
     inkscape:cx="46.725622"
     inkscape:cy="27.999998"
     inkscape:window-x="-9"
     inkscape:window-y="-9"
     inkscape:window-maximized="1"
     inkscape:current-layer="g837" />
  <title
     id="title833">33</title>
  <g
     data-name="Group"
     id="g837"
     transform="translate(-3.2743783,-3.8981381)">
    <path
       data-name="Compound Path"
       d="M 94.472331,54.545423 C 92.546193,38.708287 80.454326,25.760359 64.510183,21.58706 a 12.41289,12.41289 0 1 0 -22.471611,0 C 26.094429,25.760359 14.002563,38.708287 12.076425,54.545423 a 10.593759,10.593759 0 0 0 -1.3911,20.545472 l 1.3911,4.708338 A 15.088082,15.088082 0 0 0 26.415452,90.5 H 80.133303 A 15.088082,15.088082 0 0 0 94.472331,79.799233 l 1.3911,-4.708338 a 10.593759,10.593759 0 0 0 -1.3911,-20.545472 z M 13.788547,66.958312 a 2.0331457,2.0331457 0 0 1 0,-4.066291 h 78.971661 a 2.0331457,2.0331457 0 0 1 0,4.066291 z M 49.422102,16.236677 a 3.8522761,3.8522761 0 1 1 3.852276,3.852276 3.8522761,3.8522761 0 0 1 -3.852276,-3.852276 z m 3.852276,12.412889 c 16.479181,0 30.069155,11.128798 32.530332,25.681841 H 20.744046 C 23.205222,39.885372 36.795196,28.649566 53.274378,28.649566 Z m 26.858925,53.28982 H 26.415452 a 6.4204602,6.4204602 0 0 1 -6.206445,-4.601329 l -0.535038,-1.819131 h 67.200817 l -0.535038,1.819131 a 6.4204602,6.4204602 0 0 1 -6.206445,4.601329 z"
       id="path835"
       inkscape:connector-curvature="0"
       style="stroke-width:1.0700767" />
  </g>
</svg>
