<?xml version="1.0" encoding="UTF-8" standalone="no"?>
<svg
   xmlns:dc="http://purl.org/dc/elements/1.1/"
   xmlns:cc="http://creativecommons.org/ns#"
   xmlns:rdf="http://www.w3.org/1999/02/22-rdf-syntax-ns#"
   xmlns:svg="http://www.w3.org/2000/svg"
   xmlns="http://www.w3.org/2000/svg"
   xmlns:sodipodi="http://sodipodi.sourceforge.net/DTD/sodipodi-0.dtd"
   xmlns:inkscape="http://www.inkscape.org/namespaces/inkscape"
   version="1.1"
   x="0px"
   y="0px"
   viewBox="0 0 91.263069 99.999962"
   xml:space="preserve"
   id="svg907"
   sodipodi:docname="extras-and-sides.svg"
   width="100%"
   height="auto"
   inkscape:version="0.92.3 (2405546, 2018-03-11)"><metadata
     id="metadata913"><rdf:RDF><cc:Work
         rdf:about=""><dc:format>image/svg+xml</dc:format><dc:type
           rdf:resource="http://purl.org/dc/dcmitype/StillImage" /><dc:title></dc:title></cc:Work></rdf:RDF></metadata><defs
     id="defs911" /><sodipodi:namedview
     pagecolor="#ffffff"
     bordercolor="#666666"
     borderopacity="1"
     objecttolerance="10"
     gridtolerance="10"
     guidetolerance="10"
     inkscape:pageopacity="0"
     inkscape:pageshadow="2"
     inkscape:window-width="1920"
     inkscape:window-height="1001"
     id="namedview909"
     showgrid="false"
     fit-margin-top="0"
     fit-margin-left="0"
     fit-margin-right="0"
     fit-margin-bottom="0"
     inkscape:zoom="6.464"
     inkscape:cx="43.346993"
     inkscape:cy="53.562856"
     inkscape:window-x="-9"
     inkscape:window-y="-9"
     inkscape:window-maximized="1"
     inkscape:current-layer="svg907" /><g
     id="g901"
     transform="matrix(1.052664,0,0,1.052664,-7.0033811,-2.6332019)"><path
       d="m 31.161133,30.448242 0.195312,0.640625 c 0.403321,1.306152 0.625977,2.025391 0.676758,4.925781 0.01465,0.819336 0.683594,1.473633 1.499023,1.473633 0.0098,0 0.01855,0 0.02734,0 0.828125,-0.01465 1.488281,-0.698242 1.473633,-1.526367 -0.05566,-3.178711 -0.316406,-4.160645 -0.810547,-5.759277 l -0.186523,-0.609375 c -0.210938,-0.709473 -0.423828,-1.360352 -0.621094,-1.962891 -1.042969,-3.179199 -1.138672,-3.899414 0.100586,-5.019531 0.61914,-0.558594 2.880859,-1.227051 7.375976,-1.427735 0.827149,-0.03711 1.467774,-0.737793 1.430665,-1.565429 -0.03613,-0.827637 -0.715821,-1.461914 -1.56543,-1.431641 -7.171875,0.320801 -8.737305,1.733887 -9.251953,2.198242 -2.794922,2.524903 -1.935547,5.145996 -0.94043,8.180664 0.189453,0.578125 0.393555,1.202149 0.59668,1.883301 z"
       id="path887"
       inkscape:connector-curvature="0" /><path
       d="m 48.006836,21.102539 c 0.381836,9.77e-4 0.794922,0.0049 1.227539,0.01367 0.01074,4.88e-4 0.02148,4.88e-4 0.03223,4.88e-4 0.813476,0 1.481445,-0.650879 1.499023,-1.46875 0.0166,-0.828125 -0.640625,-1.513672 -1.46875,-1.530761 -0.452148,-0.0098 -0.882813,-0.01367 -1.282227,-0.01465 -0.002,0 -0.0029,0 -0.0039,0 -0.827148,0 -1.498047,0.668946 -1.5,1.496094 -0.002,0.828613 0.667969,1.501953 1.496094,1.503906 z"
       id="path889"
       inkscape:connector-curvature="0" /><path
       d="m 52.486328,21.288574 c 3.703125,0.337402 4.71582,1.018067 4.938477,1.219238 1.24707,1.126465 1.137695,1.930665 0.0791,5.182618 -0.191406,0.58789 -0.396484,1.219238 -0.599609,1.902343 -1.368164,4.601075 -1.345703,12.614747 0.05469,19.487305 0.144532,0.710449 0.769532,1.200684 1.467774,1.200684 0.09961,0 0.200195,-0.01025 0.301758,-0.03076 0.811523,-0.165527 1.33496,-0.957519 1.169921,-1.769043 -1.463867,-7.180664 -1.167968,-14.506836 -0.11914,-18.032715 0.195312,-0.656738 0.393555,-1.263672 0.577148,-1.829101 1.013672,-3.112793 1.888672,-5.800782 -0.920898,-8.337403 -1.15332,-1.041504 -3.274414,-1.670898 -6.677735,-1.980468 -0.8125,-0.08008 -1.554687,0.532226 -1.629882,1.35791 -0.0752,0.824707 0.533203,1.554687 1.358398,1.629394 z"
       id="path891"
       inkscape:connector-curvature="0" /><path
       d="m 59.602539,53.469727 c -0.801758,0.208496 -1.282227,1.027343 -1.074219,1.829101 0.314453,1.208008 0.652344,2.525879 0.997071,3.914551 0.169921,0.682617 0.782226,1.138672 1.455078,1.138672 0.11914,0 0.241211,-0.01465 0.363281,-0.04492 0.803711,-0.199707 1.292969,-1.013672 1.09375,-1.817383 -0.348633,-1.40039 -0.688477,-2.728027 -1.004883,-3.945801 -0.208984,-0.802246 -1.02832,-1.283691 -1.830078,-1.074218 z"
       id="path893"
       inkscape:connector-curvature="0" /><path
       d="m 92.880859,65.919434 c -0.39685,-0.527466 -1.183471,-1.211426 -2.69049,-1.703064 0.08887,-0.322205 0.13092,-0.621765 0.13092,-0.868225 0,-0.911133 -0.381836,-2.154786 -2.009765,-3.312989 0.04004,-0.196289 0.06055,-0.395508 0.06055,-0.595703 0,-1.003418 -0.487304,-2.354492 -2.600585,-3.497558 9.76e-4,-0.0249 9.76e-4,-0.04932 9.76e-4,-0.07324 0,-0.03662 -0.0089,-0.06995 -0.01032,-0.106018 -0.0037,-0.05127 -0.0061,-0.102417 -0.01483,-0.152221 -0.261658,-2.706055 -4.548706,-3.889161 -8.343018,-4.086487 -1.09668,-0.412598 -1.608398,-0.826172 -1.520508,-1.229492 0.209961,-0.974122 -0.205078,-1.50293 -0.59082,-1.775879 -0.876953,-0.620118 -1.626953,-0.154786 -2.574219,0.43164 -1.25,0.771973 -1.875976,1.893067 -1.824219,3.166016 -1.902465,0.505676 -3.21997,1.286926 -3.879272,2.260132 C 64.735047,42.57001 64.772217,36.038699 67.051759,28.33887 67.868165,25.579104 68.70215,21.541018 66.524415,18.350589 64.490968,15.371951 60.266236,13.67316 53.268556,13.014712 l -1.04413,-8.0175198 c 1.22e-4,-0.0072 0.0021,-0.013916 0.0021,-0.021118 0,-0.6767578 0,-2.4746094 -6.453125,-2.4746094 -6.453125,0 -6.453125,1.7978516 -6.453125,2.4746094 0,0.0072 0.002,0.013855 0.0021,0.021057 L 38.2854,12.960266 c -7.340148,0.614075 -11.752624,2.319885 -13.848877,5.361023 -2.202148,3.194336 -1.367187,7.24707 -0.546875,10.017578 2.40625,8.128906 2.31836,14.943848 -0.362304,28.046875 -0.425781,2.083496 -0.900391,4.121582 -1.359375,6.092773 -0.187744,0.805237 -0.369934,1.59375 -0.547425,2.372986 -0.635498,-0.527649 -1.288269,-1.119385 -1.952575,-1.786072 -0.796875,-0.800293 -1.935547,-1.147949 -3.038086,-0.93457 -1.100586,0.214355 -2.017578,0.959961 -2.453125,1.994629 -0.261719,0.622558 -0.519531,1.298828 -0.788086,2.005859 -0.798828,2.100098 -1.704102,4.480469 -3.150391,6.38086 -2.543945,3.341797 -4.6650388,7.104492 -2.9853513,11.971191 0.5712891,1.655273 2.0507812,4.69336 5.5429693,6.445801 1.669921,0.83789 3.543945,1.256836 5.607421,1.256836 2.063477,0 4.317383,-0.418946 6.745118,-1.256836 1.678039,-0.579346 3.156189,-1.284119 4.461914,-2.082214 v 2.136901 c 0,1.172364 0.948242,2.105469 2.208008,2.170411 2.328125,0.118652 11.118164,1.112793 18.87207,1.989746 0.826172,0.09424 1.563476,-0.496094 1.65918,-1.31836 0.125,-1.082519 1.052734,-1.899414 2.157226,-1.899414 1.207031,0 2.188477,0.959473 2.188477,2.124512 l -0.03223,0.253906 c -0.04492,0.395996 0.06836,0.793457 0.316406,1.105469 0.249024,0.311523 0.610352,0.511719 1.006836,0.556152 6.230469,0.697754 12.896485,1.425293 15.098633,1.529297 0.03906,0.002 0.07813,0.0029 0.117188,0.0029 0.625,0 1.234375,-0.241699 1.685546,-0.672852 0.428711,-0.410156 0.66504,-0.945312 0.663086,-1.504883 l -0.0098,-7.037109 c -9.77e-4,-0.826172 -0.668946,-1.496094 -1.495117,-1.498535 -0.899415,-0.0029 -1.63086,-0.717285 -1.63086,-1.592774 0,-0.874511 0.730469,-1.588867 1.629883,-1.592773 0.820496,-0.0034 1.484192,-0.666077 1.49176,-1.485291 0.204651,0.0063 0.409241,0.01752 0.613709,0.01752 9.308594,0 17.024414,-6.60254 17.199219,-14.714356 0.0127,-0.545898 -0.153321,-1.077148 -0.468751,-1.498046 z M 69.844727,57.072266 c 0.09766,-0.400879 0.01465,-0.834473 -0.208008,-1.181153 0.29071,-0.236267 1.027588,-0.65155 2.448669,-0.976257 0.05347,0.06238 0.09656,0.121277 0.154846,0.185242 0.295899,0.324707 0.702149,0.489257 1.108399,0.489257 0.361328,0 0.722656,-0.129394 1.010742,-0.391601 0.474548,-0.432556 0.597656,-1.096008 0.373474,-1.659363 0.517822,0.33252 1.141419,0.628662 1.87262,0.88739 0.140625,0.0498 0.288086,0.07861 0.4375,0.08447 2.978515,0.123718 4.87799,0.828796 5.531494,1.309875 -0.407654,0.314392 -1.466675,0.829468 -4.048096,0.866883 -0.829102,0.01221 -1.490234,0.693359 -1.478516,1.521972 0.01172,0.820801 0.681641,1.478028 1.5,1.478028 0.0068,0 0.01465,0 0.02149,0 2.749878,-0.04016 4.440002,-0.582764 5.491699,-1.246155 0.999268,0.483032 1.293213,0.900452 1.311035,0.993225 0,4.88e-4 -0.01465,0.07031 -0.131836,0.20459 -0.30664,0.350097 -0.433593,0.823242 -0.341797,1.279785 0.09082,0.457031 0.388672,0.845703 0.805665,1.052246 1.186523,0.586426 1.617187,1.14502 1.617187,1.377441 0,0.04028 -0.03216,0.09754 -0.05701,0.151001 -0.351989,0.42389 -2.902771,3.078003 -11.542602,3.078003 -0.828125,0 -1.5,0.671387 -1.5,1.5 0,0.828614 0.671875,1.5 1.5,1.5 6.889953,0 10.562805,-1.574707 12.429077,-2.884338 1.136658,0.644104 1.495422,1.074463 1.595337,1.235046 -1.76416,1.594178 -6.97937,3.122437 -13.595703,3.122437 -1.970581,0 -3.865723,-0.13794 -5.66034,-0.395386 -0.375488,-2.349548 -0.948974,-4.872314 -1.566894,-7.528686 1.709594,0.34674 3.850158,0.523193 6.410827,0.523193 0.828125,0 1.5,-0.671387 1.5,-1.5 0,-0.828613 -0.671875,-1.5 -1.5,-1.5 -3.825866,0 -5.971496,-0.400696 -7.170776,-0.817139 -0.09064,-0.39862 -0.176514,-0.80249 -0.265686,-1.205322 0.301636,-0.170044 0.637878,-0.335449 1.039978,-0.488281 0.460937,-0.175781 0.790039,-0.586914 0.907227,-1.066406 z m 0.100647,18.864318 -34.414795,-3.309692 c 8.764282,-4.708618 21.090881,-6.24585 21.218444,-6.261169 0.698243,-0.07666 1.985352,-0.0874 2.736329,0.719726 0.04102,0.04395 0.08496,0.08496 0.130859,0.124024 z M 49.307678,5.8289795 50.305237,13.489075 c -0.21399,0.05328 -0.491028,0.107727 -0.808289,0.159912 L 49.37793,12.709961 c -0.104493,-0.820801 -0.856446,-1.395996 -1.676758,-1.299805 -0.822266,0.104492 -1.40332,0.854981 -1.299805,1.676758 l 0.103149,0.813782 c -0.238525,0.0057 -0.473937,0.01239 -0.731079,0.01239 -0.311889,0 -0.606689,-0.0055 -0.891174,-0.01373 l 0.132385,-0.735291 c 0.146485,-0.814941 -0.395507,-1.595214 -1.210937,-1.741699 -0.80957,-0.149414 -1.594727,0.394531 -1.742188,1.210449 l -0.178222,0.989869 c -0.253479,-0.04486 -0.461853,-0.0907 -0.641358,-0.135743 l 0.997254,-7.6579586 c 0.606506,-0.1497192 1.806884,-0.3275146 3.53424,-0.3275146 1.727356,0 2.927735,0.1777955 3.534241,0.3275147 z M 25.089844,63.15918 c 0.46289,-1.990723 0.942383,-4.048828 1.376953,-6.171875 2.393555,-11.702149 3.150391,-19.869141 0.299805,-29.5 -1.026368,-3.465332 -0.981446,-5.836914 0.139648,-7.463379 1.56543,-2.27002 5.516602,-3.615723 12.078125,-4.11377 0.0622,-0.0047 0.120544,-0.02008 0.180176,-0.03204 1.002502,0.563781 2.915954,1.034973 6.608886,1.034973 1.510743,0 4.854615,-0.108277 6.539856,-0.994568 0.06354,0.01385 0.126038,0.03039 0.192566,0.03607 6.251953,0.532715 10.027344,1.869629 11.541016,4.087402 1.109375,1.625977 1.150391,3.991699 0.12793,7.445313 -2.850586,9.630371 -2.09375,17.797363 0.298828,29.499511 0.435547,2.128418 0.916015,4.191407 1.380859,6.186035 0.540711,2.320862 1.050537,4.530213 1.433838,6.591675 L 61.614258,64.970703 C 60.392578,63.708496 58.547852,63.147461 56.40332,63.385742 55.782104,63.460327 42.055359,65.167786 32.721313,70.771851 31.727478,69.824524 30.574524,69.131714 29.299011,68.570618 30.439392,62.829895 31.973022,56.967224 33,53.047363 c 0.230469,-0.877929 0.436523,-1.663574 0.608398,-2.334472 0.553711,-2.159668 0.956055,-4.725098 1.197266,-7.625489 0.06836,-0.825683 -0.545898,-1.550293 -1.371094,-1.618652 -0.805664,-0.07422 -1.549804,0.544922 -1.61914,1.370605 -0.223633,2.694336 -0.608399,5.159668 -1.113282,7.128907 -0.170898,0.666504 -0.375,1.446289 -0.603515,2.318359 -1.009705,3.85022 -2.500794,9.558167 -3.648499,15.235535 -0.285827,-0.09051 -0.572204,-0.180603 -0.865173,-0.269715 -0.405762,-0.123352 -0.842529,-0.31018 -1.303711,-0.555053 0.253906,-1.149536 0.525818,-2.327271 0.808594,-3.538208 z m 3.471801,22.824524 c 0.04144,-0.141358 0.08826,-0.278321 0.122925,-0.42511 0.464844,-1.975098 0.294922,-4.297852 -0.478515,-6.539063 -0.920899,-2.67041 -2.578125,-4.880859 -4.547852,-6.064453 -0.707031,-0.426758 -1.630859,-0.197754 -2.057617,0.512695 -0.427735,0.709961 -0.197266,1.631836 0.512695,2.058594 1.354492,0.814453 2.572266,2.48584 3.256836,4.472168 0.583008,1.687012 0.726563,3.462891 0.394531,4.872071 -0.162109,0.686035 -0.583008,1.888183 -1.589844,2.235351 -1.536132,0.529297 -4.107421,-1.332031 -5.325195,-4.85791 -0.648437,-1.878418 -0.750976,-3.799805 -0.283203,-5.270508 0.250977,-0.789062 -0.185547,-1.632812 -0.974609,-1.883789 -0.791016,-0.252441 -1.633789,0.185059 -1.884766,0.974609 -0.65918,2.072754 -0.547852,4.682129 0.306641,7.158692 0.896972,2.59729 2.430969,4.641113 4.179992,5.828186 -2.332214,0.303039 -4.361816,0.04144 -6.052063,-0.80719 -2.541992,-1.275879 -3.630859,-3.519531 -4.052734,-4.743164 -1.1611328,-3.362305 0.05078,-5.910156 2.536133,-9.175293 1.709961,-2.246094 2.697265,-4.841797 3.567383,-7.131836 0.255859,-0.672852 0.500976,-1.316406 0.75,-1.908203 0.06152,-0.146973 0.175781,-0.197266 0.260742,-0.213867 0.08887,-0.01611 0.220703,-0.0127 0.339844,0.106933 1.799804,1.806641 4.504882,4.129883 7.168945,4.939942 2.170837,0.660339 4.102051,1.321167 5.512085,2.444946 -0.388123,0.481811 -0.613648,1.088745 -0.613648,1.727417 v 10.904114 c -0.32788,0.270752 -0.6734,0.534179 -1.048706,0.784668 z m 40.853394,-0.791321 c 0,2.006836 1.310547,3.720703 3.12793,4.342773 l 0.0068,4.922364 C 70.121058,94.283691 64.835901,93.711914 59.609339,93.128906 59.16305,90.740723 57.044886,88.92627 54.5068,88.92627 c -2.106445,0 -3.94336,1.257812 -4.744141,3.09375 C 41.445312,91.080078 35.24707,90.392578 32.610351,90.199219 V 75.360046 l 39.93274,3.840271 c -0.0017,0.473145 -0.003,1.028199 -0.004,1.650757 -1.815429,0.624024 -3.124023,2.336914 -3.124023,4.341309 z m 6.735352,-6.060547 c -0.203186,0 -0.403687,-0.02728 -0.607056,-0.03455 0.0015,-0.383301 0.0032,-0.710022 0.0055,-0.952759 0.0059,-0.676758 -0.205078,-1.321777 -0.609375,-1.864746 -0.06836,-0.0918 -0.147461,-0.175781 -0.235352,-0.25 L 72.145264,73.86792 c 1.300781,0.116943 2.636779,0.182373 4.005127,0.182373 4.614746,0 9.660766,-0.73761 13.090148,-2.320618 -2.156616,4.331421 -7.234252,7.402161 -13.090148,7.402161 z"
       id="path895"
       inkscape:connector-curvature="0" /><path
       d="m 59.015625,78.932129 c -2.288086,0 -4.150391,1.845215 -4.150391,4.113769 0,2.268555 1.862305,4.11377 4.150391,4.11377 2.288086,0 4.149414,-1.845215 4.149414,-4.11377 0,-2.268554 -1.861328,-4.113769 -4.149414,-4.113769 z m 0,5.227539 c -0.634766,0 -1.150391,-0.499512 -1.150391,-1.11377 0,-0.614257 0.515625,-1.113769 1.150391,-1.113769 0.633789,0 1.149414,0.499512 1.149414,1.113769 0,0.614258 -0.515625,1.11377 -1.149414,1.11377 z"
       id="path897"
       inkscape:connector-curvature="0" /><path
       d="m 42.224609,79.500488 c -2.743164,0 -4.975586,2.210938 -4.975586,4.928223 0,2.717285 2.232422,4.928223 4.975586,4.928223 2.743164,0 4.97461,-2.210938 4.97461,-4.928223 0,-2.717285 -2.231446,-4.928223 -4.97461,-4.928223 z m 0,6.856446 c -1.088867,0 -1.975586,-0.865235 -1.975586,-1.928223 0,-1.062988 0.886719,-1.928223 1.975586,-1.928223 1.088867,0 1.97461,0.865235 1.97461,1.928223 0,1.062988 -0.885742,1.928223 -1.97461,1.928223 z"
       id="path899"
       inkscape:connector-curvature="0" /></g></svg>